<svg width="177" height="30" viewBox="0 0 177 30" fill="none" xmlns="http://www.w3.org/2000/svg">
<path d="M9.39062 11.3242C9.39062 11.4935 9.40365 11.7018 9.42969 11.9492C9.45573 12.1966 9.49479 12.444 9.54688 12.6914C9.61198 12.9258 9.69661 13.1471 9.80078 13.3555C9.90495 13.5638 10.0286 13.7201 10.1719 13.8242H10.9141C11.3828 13.8242 11.7865 13.7982 12.125 13.7461C12.4766 13.694 12.8737 13.5768 13.3164 13.3945C13.7331 13.1992 14.1367 13.0039 14.5273 12.8086C14.931 12.6133 15.2956 12.3919 15.6211 12.1445C15.9596 11.8841 16.2461 11.5781 16.4805 11.2266C16.7148 10.875 16.8841 10.4453 16.9883 9.9375C17.0013 9.89844 17.0143 9.82682 17.0273 9.72266C17.0534 9.60547 17.0729 9.48177 17.0859 9.35156C17.112 9.22135 17.1315 9.09766 17.1445 8.98047C17.1706 8.85026 17.1901 8.76562 17.2031 8.72656C17.2031 8.6875 17.2096 8.60286 17.2227 8.47266C17.2487 8.34245 17.2747 8.20573 17.3008 8.0625C17.3398 7.91927 17.3724 7.78255 17.3984 7.65234C17.4245 7.52214 17.444 7.44401 17.457 7.41797V7.24219V6.53906C17.457 6.33073 17.444 6.1224 17.418 5.91406C17.3919 5.70573 17.3203 5.51693 17.2031 5.34766C17.138 5.25651 17.0534 5.13932 16.9492 4.99609C16.8581 4.83984 16.7604 4.6901 16.6562 4.54688C16.5651 4.40365 16.4805 4.27995 16.4023 4.17578C16.3242 4.07161 16.2721 4.01302 16.2461 4C15.9466 3.58333 15.5885 3.25781 15.1719 3.02344C14.7552 2.78906 14.3255 2.5612 13.8828 2.33984C13.8568 2.3138 13.7852 2.28776 13.668 2.26172C13.5508 2.22266 13.4661 2.1901 13.4141 2.16406C13.0234 2.08594 12.6654 2.03385 12.3398 2.00781C12.0273 1.96875 11.6497 1.9362 11.207 1.91016H11.1484C10.7969 1.91016 10.5104 1.97526 10.2891 2.10547C10.0807 2.22266 9.92448 2.38542 9.82031 2.59375C9.71615 2.78906 9.64453 3.02344 9.60547 3.29688C9.57943 3.55729 9.56641 3.82422 9.56641 4.09766C9.56641 4.25391 9.56641 4.41016 9.56641 4.56641C9.57943 4.72266 9.58594 4.8724 9.58594 5.01562C9.58594 5.08073 9.57943 5.16536 9.56641 5.26953C9.56641 5.3737 9.56641 5.45833 9.56641 5.52344C9.56641 5.54948 9.5599 5.59505 9.54688 5.66016C9.53385 5.72526 9.51432 5.79688 9.48828 5.875C9.47526 5.9401 9.46224 6.00521 9.44922 6.07031C9.4362 6.13542 9.42969 6.17448 9.42969 6.1875C9.41667 6.21354 9.40365 6.28516 9.39062 6.40234C9.39062 6.50651 9.39062 6.63672 9.39062 6.79297C9.39062 6.9362 9.39062 7.08594 9.39062 7.24219C9.39062 7.39844 9.39062 7.52214 9.39062 7.61328C9.39062 7.70443 9.39062 7.82812 9.39062 7.98438C9.39062 8.14062 9.39062 8.29688 9.39062 8.45312C9.39062 8.60938 9.39062 8.74609 9.39062 8.86328C9.40365 8.96745 9.41667 9.02604 9.42969 9.03906C9.42969 9.05208 9.42969 9.09115 9.42969 9.15625C9.44271 9.20833 9.46224 9.26693 9.48828 9.33203L9.56641 9.60547V9.70312C9.56641 9.97656 9.53385 10.25 9.46875 10.5234C9.41667 10.7969 9.39062 11.0638 9.39062 11.3242ZM9.56641 26.3047C9.56641 26.3568 9.58594 26.4219 9.625 26.5C9.66406 26.5781 9.69661 26.6367 9.72266 26.6758C10.1133 27.1445 10.556 27.431 11.0508 27.5352C11.5586 27.6393 12.1185 27.6914 12.7305 27.6914C13.1211 27.6914 13.4727 27.6719 13.7852 27.6328C14.1107 27.5807 14.4167 27.5026 14.7031 27.3984C15.0026 27.2943 15.2956 27.1706 15.582 27.0273C15.8815 26.8711 16.207 26.6823 16.5586 26.4609C16.5716 26.4609 16.6107 26.4479 16.6758 26.4219C16.7409 26.3958 16.8125 26.3698 16.8906 26.3438C16.9688 26.3047 17.0339 26.2721 17.0859 26.2461C17.151 26.2201 17.1901 26.2005 17.2031 26.1875C17.2292 26.1484 17.2747 26.0964 17.3398 26.0312C17.418 25.9661 17.4961 25.8945 17.5742 25.8164C17.6523 25.7383 17.724 25.6667 17.7891 25.6016C17.8672 25.5234 17.9193 25.4714 17.9453 25.4453C18.2578 24.9766 18.4792 24.4427 18.6094 23.8438C18.7526 23.2318 18.8633 22.6654 18.9414 22.1445C18.9414 22.1055 18.9284 22.0273 18.9023 21.9102C18.8893 21.7799 18.8698 21.6497 18.8438 21.5195C18.8307 21.3763 18.8177 21.2526 18.8047 21.1484C18.7917 21.0443 18.7852 20.9792 18.7852 20.9531V20.2109V19.8789C18.7461 19.6315 18.6875 19.3841 18.6094 19.1367C18.5312 18.8763 18.4336 18.6289 18.3164 18.3945C18.1992 18.1602 18.056 17.9453 17.8867 17.75C17.7174 17.5547 17.5221 17.3854 17.3008 17.2422C17.1836 17.1901 17.0469 17.1185 16.8906 17.0273C16.7344 16.9232 16.5781 16.819 16.4219 16.7148C16.2656 16.5977 16.1159 16.4805 15.9727 16.3633C15.8294 16.2461 15.7188 16.1419 15.6406 16.0508C15.4062 15.9596 15.1393 15.862 14.8398 15.7578C14.5404 15.6536 14.2279 15.556 13.9023 15.4648C13.5768 15.3607 13.2513 15.2695 12.9258 15.1914C12.6133 15.1133 12.3333 15.0417 12.0859 14.9766H11.7539C11.2982 14.9766 10.9336 15.0091 10.6602 15.0742C10.3867 15.1393 10.1719 15.263 10.0156 15.4453C9.8724 15.6146 9.76823 15.849 9.70312 16.1484C9.63802 16.4349 9.59245 16.7995 9.56641 17.2422C9.55339 17.3464 9.54036 17.5352 9.52734 17.8086C9.51432 18.082 9.5013 18.3685 9.48828 18.668C9.47526 18.9674 9.46224 19.2539 9.44922 19.5273C9.4362 19.7878 9.42969 19.9635 9.42969 20.0547C9.42969 20.0547 9.42318 20.1003 9.41016 20.1914C9.41016 20.2826 9.41016 20.3867 9.41016 20.5039C9.41016 20.6081 9.40365 20.7122 9.39062 20.8164C9.39062 20.9206 9.39062 20.9987 9.39062 21.0508C9.39062 21.1289 9.39062 21.2266 9.39062 21.3438C9.40365 21.4609 9.41016 21.5781 9.41016 21.6953C9.41016 21.7995 9.41016 21.8971 9.41016 21.9883C9.42318 22.0794 9.42969 22.1315 9.42969 22.1445C9.42969 22.3008 9.4362 22.5742 9.44922 22.9648C9.46224 23.3555 9.47526 23.7721 9.48828 24.2148C9.5013 24.6576 9.51432 25.0807 9.52734 25.4844C9.54036 25.875 9.55339 26.1484 9.56641 26.3047ZM0.738281 28.5312V28.3164C0.738281 28.1602 0.777344 28.0104 0.855469 27.8672C0.946615 27.7109 1.05729 27.5742 1.1875 27.457C1.33073 27.3398 1.48047 27.2487 1.63672 27.1836C1.79297 27.1055 1.94271 27.0664 2.08594 27.0664C2.30729 27.0534 2.52214 27.0404 2.73047 27.0273C2.95182 27.0143 3.16667 27.0078 3.375 27.0078C3.64844 27.0078 3.90885 27.0143 4.15625 27.0273C4.41667 27.0404 4.66406 27.0534 4.89844 27.0664C5.13281 27.0924 5.27604 27.0339 5.32812 26.8906C5.39323 26.7474 5.42578 26.5716 5.42578 26.3633C5.42578 26.2982 5.41927 26.2135 5.40625 26.1094C5.40625 25.9922 5.40625 25.9206 5.40625 25.8945C5.40625 25.5951 5.3737 25.2956 5.30859 24.9961C5.25651 24.6836 5.23047 24.3646 5.23047 24.0391V23.9414C5.25651 23.9154 5.28906 23.8177 5.32812 23.6484C5.38021 23.4792 5.40625 23.3815 5.40625 23.3555V23.2969V23.1797C5.40625 23.1536 5.39323 23.069 5.36719 22.9258C5.35417 22.7826 5.33464 22.6328 5.30859 22.4766C5.29557 22.3073 5.27604 22.1445 5.25 21.9883C5.23698 21.832 5.23047 21.7344 5.23047 21.6953V18.5508C5.16536 18.4076 5.1263 18.2578 5.11328 18.1016C5.10026 17.9323 5.09375 17.7695 5.09375 17.6133C5.09375 17.5482 5.10026 17.444 5.11328 17.3008C5.1263 17.1576 5.13281 17.0729 5.13281 17.0469C5.15885 16.9427 5.1849 16.806 5.21094 16.6367C5.25 16.4544 5.26953 16.2982 5.26953 16.168C5.26953 15.9857 5.26302 15.8099 5.25 15.6406C5.23698 15.4583 5.23047 15.3411 5.23047 15.2891C5.24349 15.263 5.25651 15.1849 5.26953 15.0547C5.29557 14.9115 5.3151 14.7682 5.32812 14.625C5.35417 14.4688 5.3737 14.3255 5.38672 14.1953C5.39974 14.0651 5.40625 13.987 5.40625 13.9609V13.8242C5.38021 13.7852 5.36068 13.7331 5.34766 13.668C5.33464 13.5898 5.32161 13.5117 5.30859 13.4336C5.29557 13.3555 5.28255 13.2839 5.26953 13.2188C5.25651 13.1536 5.24349 13.1081 5.23047 13.082C5.23047 12.9258 5.23047 12.7109 5.23047 12.4375C5.24349 12.1641 5.25 11.8516 5.25 11.5C5.25 11.1354 5.25 10.7513 5.25 10.3477C5.26302 9.93099 5.26953 9.51432 5.26953 9.09766C5.26953 8.68099 5.26302 8.27083 5.25 7.86719C5.25 7.46354 5.25 7.08594 5.25 6.73438C5.25 6.38281 5.24349 6.07031 5.23047 5.79688C5.23047 5.52344 5.23047 5.3151 5.23047 5.17188C5.23047 5.11979 5.22396 5.01562 5.21094 4.85938C5.19792 4.70312 5.1849 4.54036 5.17188 4.37109C5.17188 4.1888 5.16536 4.01953 5.15234 3.86328C5.13932 3.70703 5.13281 3.60286 5.13281 3.55078C5.10677 3.38151 4.99609 3.21224 4.80078 3.04297C4.60547 2.8737 4.42318 2.78906 4.25391 2.78906C3.86328 2.78906 3.46615 2.80859 3.0625 2.84766C2.67188 2.88672 2.26823 2.90625 1.85156 2.90625C1.61719 2.90625 1.40885 2.90625 1.22656 2.90625C1.04427 2.89323 0.875 2.86068 0.71875 2.80859C0.575521 2.75651 0.445312 2.67188 0.328125 2.55469C0.223958 2.4375 0.126302 2.26172 0.0351562 2.02734V1.96875C0.0351562 1.83854 0.0677083 1.72135 0.132812 1.61719C0.210938 1.51302 0.302083 1.42839 0.40625 1.36328C0.510417 1.28516 0.621094 1.23307 0.738281 1.20703C0.855469 1.16797 0.966146 1.14844 1.07031 1.14844C1.1224 1.14844 1.2526 1.14193 1.46094 1.12891C1.66927 1.11589 1.89714 1.10286 2.14453 1.08984C2.39193 1.07682 2.63281 1.0638 2.86719 1.05078C3.11458 1.03776 3.30339 1.03125 3.43359 1.03125H3.88281C4.09115 1.03125 4.29297 1.05729 4.48828 1.10938C4.68359 1.16146 4.89844 1.17448 5.13281 1.14844C5.97917 1.07031 6.82552 0.998698 7.67188 0.933594C8.53125 0.855469 9.41016 0.816406 10.3086 0.816406C10.7773 0.816406 11.2396 0.855469 11.6953 0.933594C12.151 0.998698 12.6068 1.03125 13.0625 1.03125C13.1276 1.03125 13.2448 0.998698 13.4141 0.933594C13.5833 0.855469 13.694 0.816406 13.7461 0.816406C13.7721 0.816406 13.8307 0.829427 13.9219 0.855469C14.026 0.86849 14.1367 0.894531 14.2539 0.933594C14.3711 0.959635 14.4753 0.985677 14.5664 1.01172C14.6706 1.02474 14.7357 1.03125 14.7617 1.03125C14.8138 1.03125 14.9635 1.02474 15.2109 1.01172C15.4583 0.998698 15.7057 0.992188 15.9531 0.992188C16.0573 0.992188 16.1484 0.998698 16.2266 1.01172C16.3177 1.02474 16.3828 1.03125 16.4219 1.03125C16.6693 1.04427 16.8776 1.08333 17.0469 1.14844C17.2161 1.20052 17.3789 1.26562 17.5352 1.34375C17.7044 1.42188 17.8737 1.51302 18.043 1.61719C18.2253 1.70833 18.4401 1.80599 18.6875 1.91016C18.7005 1.92318 18.7331 1.9362 18.7852 1.94922C18.8372 1.96224 18.8893 1.98177 18.9414 2.00781C19.0065 2.07292 19.0781 2.11849 19.1562 2.14453C19.2474 2.17057 19.3255 2.21615 19.3906 2.28125C19.7943 2.65885 20.1523 3.0625 20.4648 3.49219C20.7904 3.92188 21.0312 4.41667 21.1875 4.97656C21.1875 5.0026 21.194 5.0612 21.207 5.15234C21.2201 5.24349 21.2331 5.34766 21.2461 5.46484C21.2721 5.56901 21.2917 5.66667 21.3047 5.75781C21.3177 5.84896 21.3242 5.91406 21.3242 5.95312C21.3503 5.96615 21.3763 6.01823 21.4023 6.10938C21.4414 6.1875 21.474 6.27865 21.5 6.38281C21.5391 6.47396 21.5651 6.5651 21.5781 6.65625C21.6042 6.73438 21.6172 6.77995 21.6172 6.79297C21.6172 6.81901 21.6237 6.89062 21.6367 7.00781C21.6497 7.125 21.6562 7.21615 21.6562 7.28125C21.6562 7.52865 21.6302 7.85417 21.5781 8.25781C21.526 8.64844 21.4479 9.05859 21.3438 9.48828C21.2526 9.90495 21.1419 10.3086 21.0117 10.6992C20.8815 11.0768 20.7383 11.3633 20.582 11.5586C20.4779 11.7148 20.3542 11.8516 20.2109 11.9688C20.0807 12.0859 19.931 12.1966 19.7617 12.3008C19.6055 12.3919 19.4427 12.4831 19.2734 12.5742C19.1042 12.6654 18.9414 12.7695 18.7852 12.8867C18.7852 12.9128 18.7461 12.9779 18.668 13.082C18.5898 13.1732 18.5247 13.2188 18.4727 13.2188C18.3945 13.2708 18.2839 13.3229 18.1406 13.375C18.0104 13.4271 17.8802 13.4922 17.75 13.5703C17.6328 13.6354 17.5286 13.7201 17.4375 13.8242C17.3464 13.9154 17.3008 14.0391 17.3008 14.1953V14.4102C17.3268 14.4362 17.3789 14.4818 17.457 14.5469C17.5352 14.599 17.6198 14.6576 17.7109 14.7227C17.8151 14.7747 17.9128 14.8268 18.0039 14.8789C18.0951 14.931 18.1602 14.9635 18.1992 14.9766C18.2383 15.0026 18.3164 15.0482 18.4336 15.1133C18.5508 15.1654 18.6745 15.224 18.8047 15.2891C18.9479 15.3542 19.0781 15.4193 19.1953 15.4844C19.3125 15.5495 19.3776 15.5951 19.3906 15.6211C20.6276 16.3372 21.5326 17.1771 22.1055 18.1406C22.6784 19.0911 22.9648 20.276 22.9648 21.6953C22.9648 22.151 22.9193 22.5417 22.8281 22.8672C22.737 23.1797 22.6523 23.5378 22.5742 23.9414C22.5482 23.9544 22.5352 24.026 22.5352 24.1562C22.5352 24.2865 22.5352 24.3711 22.5352 24.4102C22.4831 24.6315 22.418 24.8724 22.3398 25.1328C22.2747 25.3802 22.1901 25.6276 22.0859 25.875C21.9818 26.1224 21.8516 26.3503 21.6953 26.5586C21.5521 26.7669 21.3828 26.9362 21.1875 27.0664C21.1484 27.0794 21.0443 27.138 20.875 27.2422C20.7188 27.3333 20.5365 27.444 20.3281 27.5742C20.1328 27.7044 19.931 27.8411 19.7227 27.9844C19.5273 28.1146 19.3711 28.2188 19.2539 28.2969C19.2018 28.2969 19.1367 28.3164 19.0586 28.3555C18.9805 28.3815 18.9414 28.4076 18.9414 28.4336C18.9284 28.4336 18.8763 28.4401 18.7852 28.4531C18.707 28.4661 18.6159 28.4792 18.5117 28.4922C18.4076 28.4922 18.3099 28.4987 18.2188 28.5117C18.1276 28.5247 18.069 28.5312 18.043 28.5312C18.0169 28.5443 17.9648 28.5703 17.8867 28.6094C17.8086 28.6484 17.7174 28.6875 17.6133 28.7266C17.5221 28.7656 17.431 28.7982 17.3398 28.8242C17.2617 28.8503 17.2161 28.8633 17.2031 28.8633C17.1641 28.8633 17.0924 28.8698 16.9883 28.8828C16.8841 28.8958 16.7604 28.9023 16.6172 28.9023C16.474 28.9023 16.3242 28.9023 16.168 28.9023C16.0247 28.8893 15.8815 28.8828 15.7383 28.8828C15.6081 28.8828 15.4909 28.8828 15.3867 28.8828C15.2956 28.8698 15.2305 28.8633 15.1914 28.8633C15.1393 28.8763 15.0026 28.8958 14.7812 28.9219C14.5729 28.9479 14.3451 28.974 14.0977 29C13.8503 29.0391 13.6159 29.0716 13.3945 29.0977C13.1862 29.1237 13.056 29.1367 13.0039 29.1367C12.9779 29.1628 12.8867 29.1758 12.7305 29.1758C12.5872 29.1758 12.4635 29.1758 12.3594 29.1758C12.0599 29.1758 11.8125 29.1432 11.6172 29.0781C11.4349 29.026 11.2005 29 10.9141 29H6.61719C6.55208 29 6.44792 29.0065 6.30469 29.0195C6.16146 29.0326 6.01172 29.0456 5.85547 29.0586C5.69922 29.0716 5.54948 29.0846 5.40625 29.0977C5.27604 29.1107 5.1849 29.1237 5.13281 29.1367C5.10677 29.1628 5.02214 29.1953 4.87891 29.2344C4.7487 29.2865 4.67708 29.3125 4.66406 29.3125C4.625 29.3125 4.54036 29.2865 4.41016 29.2344C4.27995 29.1953 4.20182 29.1628 4.17578 29.1367C3.88932 29.0977 3.59635 29.0781 3.29688 29.0781C3.01042 29.0911 2.71745 29.0846 2.41797 29.0586C2.13151 29.0456 1.84505 29 1.55859 28.9219C1.28516 28.8438 1.01172 28.7135 0.738281 28.5312ZM29.7812 16.0898C29.7812 16.168 29.8138 16.2461 29.8789 16.3242C29.957 16.4023 30.0417 16.4805 30.1328 16.5586C30.237 16.6237 30.3346 16.6823 30.4258 16.7344C30.5299 16.7734 30.6146 16.806 30.6797 16.832H32.7109H34.7031C34.8073 16.819 34.9831 16.7995 35.2305 16.7734C35.4909 16.7474 35.7578 16.7214 36.0312 16.6953C36.3177 16.6562 36.5846 16.6172 36.832 16.5781C37.0924 16.5391 37.2747 16.5 37.3789 16.4609C37.4049 16.4349 37.4375 16.3763 37.4766 16.2852C37.5286 16.181 37.5547 16.1159 37.5547 16.0898V15.9141V15.7578C37.5547 15.7188 37.5482 15.6471 37.5352 15.543C37.5221 15.4258 37.5026 15.3086 37.4766 15.1914C37.4635 15.0612 37.444 14.9375 37.418 14.8203C37.4049 14.7031 37.3919 14.6185 37.3789 14.5664C37.2487 14.4753 37.138 14.3646 37.0469 14.2344C36.9557 14.1042 36.8581 13.9805 36.7539 13.8633C36.6628 13.7331 36.5586 13.6159 36.4414 13.5117C36.3372 13.4076 36.207 13.3229 36.0508 13.2578C35.9596 13.2188 35.8359 13.1667 35.6797 13.1016C35.5365 13.0234 35.3932 12.9518 35.25 12.8867C35.1068 12.8216 34.9831 12.763 34.8789 12.7109C34.7747 12.6589 34.7161 12.6263 34.7031 12.6133H34.5664H34.4102C34.319 12.6263 34.2018 12.6458 34.0586 12.6719C33.9154 12.6979 33.7721 12.724 33.6289 12.75C33.4857 12.763 33.362 12.776 33.2578 12.7891C33.1536 12.8021 33.0951 12.8086 33.082 12.8086C33.043 12.8086 32.9779 12.8346 32.8867 12.8867C32.8086 12.9258 32.7174 12.9714 32.6133 13.0234C32.5221 13.0755 32.431 13.1276 32.3398 13.1797C32.2617 13.2188 32.2096 13.2448 32.1836 13.2578C31.9622 13.3359 31.7474 13.3945 31.5391 13.4336C31.3438 13.4727 31.1745 13.6029 31.0312 13.8242C31.0052 13.8633 30.9466 13.9609 30.8555 14.1172C30.7643 14.2734 30.7057 14.3711 30.6797 14.4102C30.6016 14.5534 30.5104 14.6901 30.4062 14.8203C30.3021 14.9375 30.2044 15.0612 30.1133 15.1914C30.0221 15.3086 29.944 15.4453 29.8789 15.6016C29.8138 15.7448 29.7812 15.9076 29.7812 16.0898ZM26.832 20.8555V20.4844C26.8451 20.4193 26.8581 20.2956 26.8711 20.1133C26.8971 19.931 26.9102 19.7422 26.9102 19.5469C26.9232 19.3385 26.9362 19.1432 26.9492 18.9609C26.9622 18.7786 26.9818 18.6549 27.0078 18.5898C27.0208 18.3555 27.0534 18.0951 27.1055 17.8086C27.1706 17.5091 27.2422 17.2096 27.3203 16.9102C27.4115 16.6107 27.5156 16.3242 27.6328 16.0508C27.75 15.7643 27.8802 15.5169 28.0234 15.3086C28.0365 15.2956 28.0625 15.2695 28.1016 15.2305C28.1536 15.1784 28.2057 15.1328 28.2578 15.0938C28.3099 15.0417 28.3555 14.9961 28.3945 14.957C28.4466 14.918 28.4792 14.8919 28.4922 14.8789C28.5052 14.8659 28.5182 14.8268 28.5312 14.7617C28.5573 14.6966 28.5833 14.6315 28.6094 14.5664C28.6354 14.5013 28.6549 14.4427 28.668 14.3906C28.694 14.3255 28.7135 14.2865 28.7266 14.2734C28.9479 13.8958 29.2214 13.5833 29.5469 13.3359C29.8724 13.0885 30.2044 12.8477 30.543 12.6133C30.7773 12.4701 30.9922 12.3398 31.1875 12.2227C31.3958 12.0924 31.5977 11.9818 31.793 11.8906C32.0013 11.7865 32.2161 11.6953 32.4375 11.6172C32.6719 11.5391 32.9323 11.474 33.2188 11.4219C33.2448 11.4219 33.349 11.4154 33.5312 11.4023C33.7266 11.3893 33.9479 11.3828 34.1953 11.3828C34.4427 11.3698 34.6966 11.3568 34.957 11.3438C35.2174 11.3307 35.4258 11.3242 35.582 11.3242H35.7578H35.9336C36.3633 11.4284 36.7669 11.5521 37.1445 11.6953C37.5352 11.8255 37.8932 11.9948 38.2188 12.2031C38.5573 12.4115 38.8633 12.6654 39.1367 12.9648C39.4232 13.2513 39.6836 13.5964 39.918 14C39.931 14.026 39.9505 14.1042 39.9766 14.2344C40.0026 14.3516 40.0286 14.4102 40.0547 14.4102C40.1328 14.6055 40.224 14.7812 40.3281 14.9375C40.4453 15.0938 40.5495 15.25 40.6406 15.4062C40.7448 15.5495 40.8294 15.7057 40.8945 15.875C40.9596 16.0312 40.9922 16.2135 40.9922 16.4219C40.9922 16.6693 40.888 16.9102 40.6797 17.1445C40.4844 17.3659 40.3281 17.5417 40.2109 17.6719C40.1328 17.6979 39.9896 17.7305 39.7812 17.7695C39.5859 17.8086 39.3646 17.8477 39.1172 17.8867C38.8828 17.9258 38.6419 17.9583 38.3945 17.9844C38.1602 18.0104 37.9648 18.0234 37.8086 18.0234C37.7565 18.0234 37.6393 18.0234 37.457 18.0234C37.2878 18.0104 37.0794 17.9974 36.832 17.9844C36.5977 17.9714 36.3438 17.9648 36.0703 17.9648C35.7969 17.9518 35.5365 17.9453 35.2891 17.9453C35.0286 17.9453 34.8008 17.9583 34.6055 17.9844C34.4232 18.0104 34.2995 18.0234 34.2344 18.0234C34.2214 18.0234 34.1628 18.0299 34.0586 18.043C33.9674 18.056 33.8633 18.0755 33.7461 18.1016C33.6289 18.1146 33.5182 18.1276 33.4141 18.1406C33.3099 18.1536 33.2448 18.1602 33.2188 18.1602C33.0755 18.1732 32.8672 18.1797 32.5938 18.1797C32.3203 18.1797 32.0143 18.1797 31.6758 18.1797C31.3372 18.1797 31.0182 18.1797 30.7188 18.1797C30.4323 18.1797 30.2305 18.1732 30.1133 18.1602C30.0091 18.1732 29.9375 18.2122 29.8984 18.2773C29.8594 18.3294 29.8268 18.388 29.8008 18.4531C29.8008 18.4531 29.7943 18.4857 29.7812 18.5508C29.7812 18.6029 29.7812 18.668 29.7812 18.7461C29.7812 18.8242 29.7812 18.9089 29.7812 19C29.7812 19.0781 29.7812 19.1432 29.7812 19.1953C29.7812 19.2604 29.7812 19.3581 29.7812 19.4883C29.7812 19.6185 29.7812 19.7487 29.7812 19.8789C29.7812 19.9961 29.7812 20.1068 29.7812 20.2109C29.7943 20.3151 29.8008 20.3737 29.8008 20.3867C29.8138 20.6602 29.918 21.0312 30.1133 21.5C30.3086 21.9557 30.5365 22.418 30.7969 22.8867C31.0703 23.3555 31.3568 23.7917 31.6562 24.1953C31.9688 24.5859 32.2552 24.8464 32.5156 24.9766C32.5677 25.0156 32.6914 25.0872 32.8867 25.1914C33.082 25.2956 33.2904 25.4062 33.5117 25.5234C33.7331 25.6276 33.9414 25.7318 34.1367 25.8359C34.3451 25.9271 34.4883 25.9922 34.5664 26.0312C34.6315 26.0312 34.6771 26.0247 34.7031 26.0117C34.7422 25.9987 34.7878 25.9922 34.8398 25.9922C35.1003 25.9922 35.3411 26.0247 35.5625 26.0898C35.7969 26.1549 36.0443 26.1875 36.3047 26.1875H36.5977C36.6628 26.1875 36.7344 26.181 36.8125 26.168L38.7656 25.1523C38.8177 24.9961 38.8828 24.8398 38.9609 24.6836C39.0391 24.5143 39.1302 24.3646 39.2344 24.2344C39.3516 24.1042 39.4818 24 39.625 23.9219C39.7812 23.8438 39.9701 23.8047 40.1914 23.8047H40.2109C40.237 23.8307 40.2695 23.8763 40.3086 23.9414C40.3607 24.0065 40.3867 24.0456 40.3867 24.0586C40.3867 24.0846 40.3607 24.1562 40.3086 24.2734C40.2695 24.3906 40.237 24.4818 40.2109 24.5469C40.0677 24.9245 39.918 25.2826 39.7617 25.6211C39.6055 25.9596 39.4102 26.2982 39.1758 26.6367C39.1497 26.6628 39.1042 26.7083 39.0391 26.7734C38.974 26.8385 38.9023 26.9102 38.8242 26.9883C38.7461 27.0664 38.668 27.1445 38.5898 27.2227C38.5247 27.2878 38.4727 27.3398 38.4336 27.3789C38.4076 27.3919 38.3555 27.418 38.2773 27.457C38.2122 27.4961 38.1341 27.5417 38.043 27.5938C37.9648 27.6328 37.8932 27.6784 37.8281 27.7305C37.763 27.7695 37.724 27.7956 37.7109 27.8086C37.4115 27.9909 37.1445 28.1536 36.9102 28.2969C36.6888 28.4401 36.4609 28.5638 36.2266 28.668C36.0052 28.7721 35.7643 28.8568 35.5039 28.9219C35.2565 28.974 34.9701 29 34.6445 29C33.7852 29 32.9648 28.9023 32.1836 28.707C31.4023 28.4987 30.6927 28.1927 30.0547 27.7891C29.4167 27.3724 28.8698 26.8516 28.4141 26.2266C27.9714 25.5885 27.6589 24.8333 27.4766 23.9609C27.4245 23.8177 27.3659 23.6029 27.3008 23.3164C27.2357 23.0299 27.1706 22.737 27.1055 22.4375C27.0404 22.138 26.9818 21.8646 26.9297 21.6172C26.8776 21.3568 26.8451 21.194 26.832 21.1289V20.8555ZM51.1289 19.6445C51.0898 19.6445 50.9922 19.6836 50.8359 19.7617C50.6927 19.8398 50.5365 19.931 50.3672 20.0352C50.2109 20.1263 50.0547 20.224 49.8984 20.3281C49.7552 20.4193 49.6576 20.4844 49.6055 20.5234C49.5794 20.5625 49.5013 20.6471 49.3711 20.7773C49.2409 20.9076 49.0977 21.0508 48.9414 21.207C48.7982 21.3503 48.6615 21.487 48.5312 21.6172C48.401 21.7474 48.3229 21.832 48.2969 21.8711C48.2448 21.8711 48.1797 21.8971 48.1016 21.9492L47.9844 22.0078C47.9193 22.0729 47.8281 22.2292 47.7109 22.4766C47.5938 22.7109 47.4961 22.9583 47.418 23.2188C47.3268 23.4792 47.2747 23.6745 47.2617 23.8047C47.2487 23.9349 47.2422 24.1107 47.2422 24.332C47.2422 24.6576 47.2812 24.957 47.3594 25.2305C47.4375 25.5039 47.6458 25.7253 47.9844 25.8945C48.0365 25.9206 48.1081 25.9531 48.1992 25.9922C48.3034 26.0182 48.401 26.0443 48.4922 26.0703C48.5964 26.0964 48.6875 26.1224 48.7656 26.1484C48.8438 26.1615 48.9023 26.168 48.9414 26.168C49.0065 26.168 49.0911 26.168 49.1953 26.168C49.2995 26.1549 49.4102 26.1419 49.5273 26.1289C49.6445 26.1159 49.7487 26.1029 49.8398 26.0898C49.944 26.0768 50.0221 26.0638 50.0742 26.0508C50.556 25.9466 50.9401 25.7904 51.2266 25.582C51.513 25.3607 51.7148 25.0156 51.832 24.5469C51.8581 24.4297 51.8971 24.2799 51.9492 24.0977C52.0013 23.9023 52.0469 23.7135 52.0859 23.5312C52.138 23.3359 52.1836 23.1667 52.2227 23.0234C52.2617 22.8672 52.2812 22.776 52.2812 22.75C52.3073 22.75 52.3203 22.724 52.3203 22.6719C52.3333 22.6068 52.3398 22.5677 52.3398 22.5547C52.3398 22.5156 52.3333 22.4701 52.3203 22.418C52.3203 22.3529 52.3073 22.3073 52.2812 22.2812C52.2552 22.1901 52.2357 22.1055 52.2227 22.0273C52.2096 21.9622 52.1966 21.8971 52.1836 21.832C52.1836 21.7669 52.1836 21.7214 52.1836 21.6953V20.9531C52.1576 20.8359 52.112 20.7057 52.0469 20.5625C51.9818 20.4062 51.9036 20.263 51.8125 20.1328C51.7344 19.9896 51.6367 19.8724 51.5195 19.7812C51.4023 19.6901 51.2721 19.6445 51.1289 19.6445ZM43.6875 25.2891C43.6875 24.9635 43.7266 24.5859 43.8047 24.1562C43.8828 23.7135 44.0391 23.349 44.2734 23.0625C44.2865 23.0495 44.3451 22.9844 44.4492 22.8672C44.5664 22.75 44.6966 22.6198 44.8398 22.4766C44.9831 22.3203 45.1263 22.1706 45.2695 22.0273C45.4258 21.8841 45.543 21.7734 45.6211 21.6953C46.0378 21.3177 46.4805 20.9727 46.9492 20.6602C47.418 20.3346 47.8997 20.0482 48.3945 19.8008C48.4596 19.7747 48.5703 19.7487 48.7266 19.7227C48.8958 19.6966 49 19.6706 49.0391 19.6445C49.0781 19.6315 49.1497 19.599 49.2539 19.5469C49.3711 19.4818 49.4948 19.4167 49.625 19.3516C49.7552 19.2734 49.8724 19.2083 49.9766 19.1562C50.0938 19.0911 50.1654 19.0586 50.1914 19.0586C50.4128 18.9544 50.6146 18.8698 50.7969 18.8047C50.9922 18.7396 51.1745 18.668 51.3438 18.5898C51.513 18.5117 51.6758 18.4206 51.832 18.3164C51.9883 18.1992 52.138 18.043 52.2812 17.8477C52.3073 17.7956 52.3268 17.7044 52.3398 17.5742C52.3659 17.431 52.3854 17.2812 52.3984 17.125C52.4115 16.9557 52.418 16.7995 52.418 16.6562C52.431 16.5 52.4375 16.3893 52.4375 16.3242C52.4375 16.0117 52.431 15.6992 52.418 15.3867C52.4049 15.0612 52.3529 14.7552 52.2617 14.4688C52.1836 14.1693 52.0534 13.9023 51.8711 13.668C51.7018 13.4206 51.4544 13.2253 51.1289 13.082C51.1029 13.069 51.0443 13.0495 50.9531 13.0234C50.862 12.9974 50.7643 12.9714 50.6602 12.9453C50.556 12.9062 50.4583 12.8737 50.3672 12.8477C50.276 12.8216 50.2174 12.8086 50.1914 12.8086C50.1914 12.7956 50.1654 12.776 50.1133 12.75C50.0612 12.724 50.0026 12.6979 49.9375 12.6719C49.8724 12.6328 49.8073 12.6068 49.7422 12.5938C49.6771 12.5677 49.6315 12.5482 49.6055 12.5352H49.5078C49.3385 12.5352 49.2083 12.5547 49.1172 12.5938C49.026 12.6328 48.9089 12.7044 48.7656 12.8086C48.7135 12.8346 48.6484 12.8672 48.5703 12.9062C48.4922 12.9453 48.4141 12.9909 48.3359 13.043C48.2578 13.0951 48.1862 13.1406 48.1211 13.1797C48.069 13.2057 48.0365 13.2188 48.0234 13.2188C47.9974 13.2448 47.9648 13.2969 47.9258 13.375C47.8867 13.4401 47.8477 13.5182 47.8086 13.6094C47.7826 13.6875 47.7565 13.7656 47.7305 13.8438C47.7044 13.9089 47.6914 13.9479 47.6914 13.9609C47.6784 13.987 47.6654 14.0391 47.6523 14.1172C47.6393 14.1823 47.6263 14.2604 47.6133 14.3516C47.6003 14.4297 47.5872 14.5078 47.5742 14.5859C47.5612 14.651 47.5547 14.6901 47.5547 14.7031C47.5547 14.7422 47.5286 14.8268 47.4766 14.957C47.4245 15.0742 47.3789 15.1458 47.3398 15.1719C47.2878 15.4583 47.2487 15.6992 47.2227 15.8945C47.2096 16.0898 47.1641 16.2461 47.0859 16.3633C47.0078 16.4805 46.8841 16.5651 46.7148 16.6172C46.5586 16.6562 46.3177 16.6758 45.9922 16.6758C45.6927 16.6758 45.3997 16.6693 45.1133 16.6562C44.8398 16.6432 44.5924 16.5977 44.3711 16.5195C44.1628 16.4284 43.9935 16.2917 43.8633 16.1094C43.7331 15.9141 43.668 15.6471 43.668 15.3086C43.668 15.1654 43.6745 15.0091 43.6875 14.8398C43.7005 14.6706 43.7461 14.5273 43.8242 14.4102C43.8372 14.3971 43.8698 14.3646 43.9219 14.3125C43.974 14.2474 44.0326 14.1823 44.0977 14.1172C44.1628 14.0521 44.2214 13.9935 44.2734 13.9414C44.3385 13.8893 44.3841 13.8503 44.4102 13.8242C45.5299 12.9909 46.6953 12.3138 47.9062 11.793C49.1302 11.2591 50.4388 10.9922 51.832 10.9922C52.1576 10.9922 52.4831 11.0117 52.8086 11.0508C53.1471 11.0898 53.4727 11.168 53.7852 11.2852C54.0977 11.3893 54.3841 11.5391 54.6445 11.7344C54.9049 11.9297 55.1198 12.1771 55.2891 12.4766C55.3281 12.5547 55.3737 12.6589 55.4258 12.7891C55.4909 12.9193 55.556 13.0495 55.6211 13.1797C55.6862 13.3099 55.7383 13.4206 55.7773 13.5117C55.8294 13.6029 55.8555 13.6549 55.8555 13.668C55.8685 13.707 55.8815 13.8047 55.8945 13.9609C55.9076 14.1042 55.9206 14.2604 55.9336 14.4297C55.9466 14.5859 55.9596 14.7422 55.9727 14.8984C55.9857 15.0417 55.9922 15.1328 55.9922 15.1719C55.9922 15.2109 56.0182 15.2695 56.0703 15.3477C56.0964 15.3867 56.1289 15.4193 56.168 15.4453C56.181 15.4453 56.1875 15.4779 56.1875 15.543V15.5625C56.1745 15.5755 56.168 15.582 56.168 15.582C56.0768 15.8815 56.0182 16.181 55.9922 16.4805C55.9661 16.7799 55.9206 17.0924 55.8555 17.418C55.8555 17.431 55.8359 17.5221 55.7969 17.6914C55.7708 17.8607 55.7578 17.9714 55.7578 18.0234C55.7318 18.0365 55.7188 18.1602 55.7188 18.3945C55.7188 18.6029 55.7253 18.8177 55.7383 19.0391C55.7513 19.2604 55.7578 19.4036 55.7578 19.4688C55.7578 19.4948 55.7448 19.5469 55.7188 19.625C55.7057 19.6901 55.6862 19.7682 55.6602 19.8594C55.6471 19.9375 55.6276 20.0156 55.6016 20.0938C55.5885 20.1589 55.582 20.1979 55.582 20.2109C55.582 20.25 55.569 20.4323 55.543 20.7578C55.5169 21.0833 55.4844 21.4609 55.4453 21.8906C55.4193 22.3073 55.3867 22.737 55.3477 23.1797C55.3216 23.6094 55.3021 23.9609 55.2891 24.2344V24.3125V24.4297C55.2891 24.4818 55.2956 24.5859 55.3086 24.7422C55.3216 24.8854 55.3346 25.0417 55.3477 25.2109C55.3607 25.3802 55.3737 25.543 55.3867 25.6992C55.3997 25.8555 55.4128 25.9727 55.4258 26.0508C55.6081 26.2591 55.8359 26.4089 56.1094 26.5C56.3828 26.5911 56.6367 26.6367 56.8711 26.6367C57.1315 26.6367 57.3594 26.6042 57.5547 26.5391C57.763 26.474 57.9779 26.4414 58.1992 26.4414C58.2253 26.4414 58.3034 26.4479 58.4336 26.4609C58.5768 26.4609 58.668 26.4609 58.707 26.4609C58.8372 26.526 58.9154 26.6042 58.9414 26.6953C58.9805 26.7865 59 26.9036 59 27.0469C59 27.0599 59 27.0859 59 27.125C59 27.1641 58.987 27.1836 58.9609 27.1836L57.6133 28.5703L57.457 28.6484C57.3268 28.7005 57.2422 28.7266 57.2031 28.7266C57.1641 28.7266 57.0664 28.7331 56.9102 28.7461C56.7539 28.7591 56.5846 28.7721 56.4023 28.7852C56.2201 28.7982 56.0443 28.8112 55.875 28.8242C55.7188 28.8372 55.6211 28.8503 55.582 28.8633C55.556 28.8633 55.4909 28.8763 55.3867 28.9023C55.2826 28.9154 55.1719 28.9349 55.0547 28.9609C54.9375 28.974 54.8268 28.987 54.7227 29C54.6315 29.013 54.5729 29.013 54.5469 29C54.5208 29 54.4688 28.9935 54.3906 28.9805C54.3255 28.9544 54.2474 28.9284 54.1562 28.9023C54.0651 28.8633 53.974 28.8307 53.8828 28.8047C53.7917 28.7786 53.7201 28.7526 53.668 28.7266C53.4596 28.6484 53.2513 28.5443 53.043 28.4141C52.8346 28.2839 52.6784 28.1276 52.5742 27.9453C52.4961 27.8021 52.431 27.6458 52.3789 27.4766C52.3398 27.2943 52.2878 27.1315 52.2227 26.9883C52.1706 26.832 52.0924 26.7018 51.9883 26.5977C51.8841 26.4935 51.7214 26.4414 51.5 26.4414C51.487 26.4414 51.474 26.4479 51.4609 26.4609C51.4609 26.4609 51.4544 26.4609 51.4414 26.4609H51.4023C51.0768 26.6693 50.8164 26.9102 50.6211 27.1836C50.4388 27.457 50.2109 27.7109 49.9375 27.9453C49.7161 28.1276 49.4883 28.2839 49.2539 28.4141C49.0326 28.5312 48.8047 28.681 48.5703 28.8633C48.5052 28.8893 48.388 28.9154 48.2188 28.9414C48.0625 28.9674 47.8867 28.9935 47.6914 29.0195C47.5091 29.0586 47.3268 29.0846 47.1445 29.0977C46.9753 29.1237 46.8516 29.1367 46.7734 29.1367C46.7344 29.1367 46.6693 29.1302 46.5781 29.1172C46.487 29.1172 46.3828 29.1107 46.2656 29.0977C46.1615 29.0846 46.0573 29.0651 45.9531 29.0391C45.862 29.026 45.7969 29.013 45.7578 29C45.7318 29 45.6862 28.9805 45.6211 28.9414C45.569 28.8893 45.5104 28.8372 45.4453 28.7852C45.3802 28.7331 45.3151 28.6875 45.25 28.6484C45.1979 28.5964 45.1654 28.5703 45.1523 28.5703C44.5794 28.1797 44.1888 27.6979 43.9805 27.125C43.7852 26.5521 43.6875 25.9401 43.6875 25.2891ZM59.5469 28.3945C59.5469 28.1862 59.5859 28.0234 59.6641 27.9062C59.7552 27.7891 59.8659 27.7044 59.9961 27.6523C60.1393 27.5872 60.2956 27.5482 60.4648 27.5352C60.6471 27.5091 60.8229 27.4896 60.9922 27.4766C61.0182 27.4505 61.0833 27.4375 61.1875 27.4375C61.2917 27.4375 61.4023 27.444 61.5195 27.457C61.6497 27.4701 61.7344 27.4766 61.7734 27.4766C61.9036 27.3984 62.0339 27.3008 62.1641 27.1836C62.3073 27.0534 62.431 26.9167 62.5352 26.7734C62.6523 26.6172 62.7435 26.4544 62.8086 26.2852C62.8867 26.1029 62.9258 25.9271 62.9258 25.7578L62.9844 22.0664L63.0234 21.3242L63.1797 17.6133C63.2188 17.3789 63.2383 17.1706 63.2383 16.9883C63.2513 16.793 63.2578 16.6042 63.2578 16.4219C63.2578 16.2005 63.2318 15.9596 63.1797 15.6992C63.1406 15.4258 63.056 15.1849 62.9258 14.9766C62.7435 14.6771 62.5221 14.3971 62.2617 14.1367C62.0143 13.8633 61.7279 13.6354 61.4023 13.4531C61.3763 13.4401 61.3242 13.4271 61.2461 13.4141C61.168 13.388 61.0833 13.362 60.9922 13.3359C60.9141 13.3099 60.8359 13.2773 60.7578 13.2383C60.6927 13.1862 60.6602 13.1341 60.6602 13.082C60.6602 12.9518 60.7708 12.8086 60.9922 12.6523C61.2135 12.4961 61.4674 12.3464 61.7539 12.2031C62.0404 12.0469 62.3203 11.9167 62.5938 11.8125C62.8802 11.6953 63.0755 11.6042 63.1797 11.5391C63.362 11.4609 63.5312 11.3633 63.6875 11.2461C63.8568 11.1159 64.0195 10.9922 64.1758 10.875C64.3451 10.7578 64.5143 10.6602 64.6836 10.582C64.8529 10.4909 65.0417 10.4453 65.25 10.4453C65.4062 10.4453 65.5299 10.5365 65.6211 10.7188C65.7122 10.901 65.7839 11.1289 65.8359 11.4023C65.888 11.6628 65.9336 11.9557 65.9727 12.2812C66.0117 12.5938 66.0573 12.8867 66.1094 13.1602C66.1615 13.4206 66.2266 13.6419 66.3047 13.8242C66.3828 14.0065 66.4935 14.0977 66.6367 14.0977C66.7279 14.0977 66.7865 14.0911 66.8125 14.0781C66.8385 14.0651 66.8906 14.013 66.9688 13.9219C66.9818 13.8958 67.0404 13.8112 67.1445 13.668C67.2487 13.5117 67.3659 13.349 67.4961 13.1797C67.6393 12.9974 67.7695 12.8346 67.8867 12.6914C68.0039 12.5482 68.082 12.4635 68.1211 12.4375C68.2513 12.2812 68.4792 12.0859 68.8047 11.8516C69.1302 11.6172 69.4818 11.3893 69.8594 11.168C70.25 10.9466 70.6276 10.7578 70.9922 10.6016C71.3568 10.4323 71.6367 10.3477 71.832 10.3477C72.1055 10.3477 72.3659 10.3997 72.6133 10.5039C72.8737 10.6081 73.1016 10.7578 73.2969 10.9531C73.4922 11.1354 73.6484 11.3503 73.7656 11.5977C73.8828 11.8451 73.9414 12.1055 73.9414 12.3789C73.9414 12.8997 73.8242 13.3555 73.5898 13.7461C73.3685 14.1367 72.9844 14.4427 72.4375 14.6641H72.2031C71.9688 14.6641 71.7539 14.612 71.5586 14.5078C71.3633 14.3906 71.168 14.2669 70.9727 14.1367C70.7904 13.9935 70.6016 13.8698 70.4062 13.7656C70.2109 13.6484 70.0026 13.5898 69.7812 13.5898C69.4818 13.5898 69.2148 13.6419 68.9805 13.7461C68.7591 13.8372 68.5312 13.9349 68.2969 14.0391C68.2448 14.0781 68.1602 14.1302 68.043 14.1953C67.9388 14.2474 67.8281 14.3125 67.7109 14.3906C67.6068 14.4557 67.5026 14.5143 67.3984 14.5664C67.3073 14.6185 67.2422 14.651 67.2031 14.6641C67.0729 14.7552 66.9557 14.8854 66.8516 15.0547C66.7474 15.224 66.6562 15.4128 66.5781 15.6211C66.513 15.8164 66.4544 16.0182 66.4023 16.2266C66.3633 16.4349 66.3372 16.6172 66.3242 16.7734C66.3242 16.7865 66.3177 16.8516 66.3047 16.9688C66.2917 17.0729 66.2721 17.1966 66.2461 17.3398C66.2331 17.4831 66.2201 17.6263 66.207 17.7695C66.194 17.8997 66.1875 18.0039 66.1875 18.082V18.1211V18.2188C66.1875 18.3099 66.1875 18.4922 66.1875 18.7656C66.2005 19.026 66.2135 19.3385 66.2266 19.7031C66.2396 20.0547 66.2461 20.4323 66.2461 20.8359C66.2591 21.2266 66.2721 21.6042 66.2852 21.9688C66.2982 22.3203 66.3047 22.6328 66.3047 22.9062C66.3177 23.1667 66.3242 23.3424 66.3242 23.4336V25.4844C66.3372 25.5495 66.3633 25.6732 66.4023 25.8555C66.4414 26.0378 66.487 26.2331 66.5391 26.4414C66.6042 26.6367 66.6693 26.8255 66.7344 27.0078C66.8125 27.1771 66.8906 27.2812 66.9688 27.3203C67.0859 27.3724 67.2487 27.418 67.457 27.457C67.6784 27.4961 67.8932 27.5482 68.1016 27.6133C68.3229 27.6654 68.5117 27.7435 68.668 27.8477C68.8242 27.9518 68.9023 28.0885 68.9023 28.2578C68.9023 28.401 68.8568 28.5247 68.7656 28.6289C68.6745 28.7201 68.5638 28.7982 68.4336 28.8633C68.3034 28.9284 68.1602 28.974 68.0039 29C67.8607 29.0391 67.7305 29.0586 67.6133 29.0586C67.3138 29.0586 67.0078 29.0326 66.6953 28.9805C66.3958 28.9284 66.0964 28.9023 65.7969 28.9023C65.4583 28.9023 65.1068 28.9284 64.7422 28.9805C64.3906 29.0326 64.0521 29.0586 63.7266 29.0586H63.668C63.6419 29.0586 63.5898 29.0521 63.5117 29.0391C63.4466 29.0391 63.3685 29.0326 63.2773 29.0195C63.1992 29.0195 63.1211 29.013 63.043 29C62.9779 29 62.9388 29 62.9258 29C62.8867 29 62.7891 29.0065 62.6328 29.0195C62.4766 29.0456 62.3659 29.0586 62.3008 29.0586H61.5586H60.9531C60.7969 29.0586 60.6341 29.0521 60.4648 29.0391C60.2956 29.026 60.1393 29 59.9961 28.9609C59.8659 28.9089 59.7552 28.8438 59.6641 28.7656C59.5859 28.6745 59.5469 28.5508 59.5469 28.3945ZM84.7031 13.4141C84.7292 13.388 84.7617 13.2708 84.8008 13.0625C84.8398 12.8411 84.8854 12.5026 84.9375 12.0469C84.9505 11.7865 84.9766 11.5391 85.0156 11.3047C85.0547 11.0573 85.1068 10.8294 85.1719 10.6211C85.1849 10.6081 85.2109 10.5495 85.25 10.4453C85.2891 10.3411 85.3281 10.2305 85.3672 10.1133C85.4193 9.98307 85.4648 9.86589 85.5039 9.76172C85.543 9.65755 85.569 9.59245 85.582 9.56641C85.5951 9.51432 85.6211 9.41016 85.6602 9.25391C85.7122 9.08464 85.7643 8.90885 85.8164 8.72656C85.8685 8.54427 85.9141 8.375 85.9531 8.21875C86.0052 8.04948 86.0378 7.94531 86.0508 7.90625C86.1289 7.60677 86.2721 7.32682 86.4805 7.06641C86.6888 6.79297 86.8841 6.52604 87.0664 6.26562L87.3594 5.89453C87.9062 5.13932 88.5247 4.45573 89.2148 3.84375C89.918 3.23177 90.6732 2.71745 91.4805 2.30078C92.2878 1.88411 93.1406 1.5651 94.0391 1.34375C94.9375 1.10938 95.8555 0.992188 96.793 0.992188C97.4961 0.992188 98.1602 1.02474 98.7852 1.08984C99.4102 1.15495 100.016 1.2526 100.602 1.38281C101.201 1.5 101.793 1.64974 102.379 1.83203C102.965 2.01432 103.583 2.22917 104.234 2.47656H104.469C104.664 2.47656 104.827 2.40495 104.957 2.26172C105.087 2.10547 105.191 1.94271 105.27 1.77344C105.374 1.59115 105.497 1.41536 105.641 1.24609C105.797 1.07682 106.025 0.992188 106.324 0.992188C106.493 0.992188 106.637 1.03776 106.754 1.12891C106.871 1.22005 106.962 1.33724 107.027 1.48047C107.105 1.6237 107.164 1.77995 107.203 1.94922C107.242 2.10547 107.262 2.25521 107.262 2.39844C107.249 2.42448 107.242 2.45052 107.242 2.47656C107.229 2.5026 107.223 2.53516 107.223 2.57422C107.223 2.60026 107.216 2.6263 107.203 2.65234C107.177 2.69141 107.151 2.74349 107.125 2.80859C107.125 2.84766 107.112 2.91927 107.086 3.02344C107.073 3.11458 107.066 3.21224 107.066 3.31641C107.04 3.4987 107.014 3.68099 106.988 3.86328C106.975 4.04557 106.956 4.1888 106.93 4.29297V4.70312C107.047 5.44531 107.132 6.20052 107.184 6.96875C107.236 7.73698 107.262 8.49219 107.262 9.23438V10.0742C107.197 10.1654 107.105 10.25 106.988 10.3281C106.871 10.4062 106.76 10.4453 106.656 10.4453C106.5 10.4453 106.357 10.3867 106.227 10.2695C106.096 10.1393 105.979 9.98307 105.875 9.80078C105.784 9.61849 105.699 9.42318 105.621 9.21484C105.556 9.00651 105.497 8.8112 105.445 8.62891C105.393 8.48568 105.348 8.36849 105.309 8.27734C105.283 8.17318 105.257 8.08854 105.23 8.02344C105.217 7.9974 105.178 7.9388 105.113 7.84766C105.061 7.75651 104.996 7.65885 104.918 7.55469C104.853 7.45052 104.794 7.35938 104.742 7.28125C104.69 7.1901 104.664 7.13151 104.664 7.10547C104.625 7.06641 104.553 6.96224 104.449 6.79297C104.345 6.6237 104.234 6.44792 104.117 6.26562C104 6.07031 103.889 5.88802 103.785 5.71875C103.681 5.54948 103.622 5.4388 103.609 5.38672C103.531 5.33464 103.486 5.30208 103.473 5.28906C103.46 5.27604 103.453 5.23698 103.453 5.17188C103.232 5.08073 103.049 4.95703 102.906 4.80078C102.346 4.39714 101.786 4.01302 101.227 3.64844C100.68 3.28385 100.068 3.02995 99.3906 2.88672H98.7852C98.7591 2.88672 98.7201 2.88021 98.668 2.86719C98.6289 2.85417 98.5768 2.83464 98.5117 2.80859C98.4857 2.80859 98.4596 2.80859 98.4336 2.80859C98.4206 2.79557 98.388 2.78906 98.3359 2.78906C98.2969 2.77604 98.2383 2.76953 98.1602 2.76953C98.082 2.75651 97.9648 2.73698 97.8086 2.71094C97.3268 2.71094 96.8711 2.75651 96.4414 2.84766C96.0117 2.92578 95.5755 3.03646 95.1328 3.17969C95.0938 3.19271 95.0482 3.20573 94.9961 3.21875C94.957 3.23177 94.918 3.24479 94.8789 3.25781C94.8529 3.27083 94.8268 3.27734 94.8008 3.27734C94.7096 3.30339 94.651 3.31641 94.625 3.31641C94.612 3.31641 94.5794 3.31641 94.5273 3.31641C94.4753 3.34245 94.4297 3.36198 94.3906 3.375C94.3646 3.38802 94.2669 3.42708 94.0977 3.49219C94.0326 3.51823 93.9349 3.59635 93.8047 3.72656C93.6745 3.84375 93.4661 4.03255 93.1797 4.29297C93.1146 4.35807 93.0365 4.42969 92.9453 4.50781C92.8672 4.57292 92.8086 4.61849 92.7695 4.64453C92.7044 4.70964 92.6328 4.77474 92.5547 4.83984C92.4766 4.90495 92.4245 4.95052 92.3984 4.97656C92.3724 5.0026 92.3073 5.06771 92.2031 5.17188C92.112 5.27604 92.0664 5.33464 92.0664 5.34766C92.0404 5.38672 92.0013 5.46484 91.9492 5.58203C91.8971 5.69922 91.8385 5.82292 91.7734 5.95312C91.7083 6.08333 91.6432 6.20052 91.5781 6.30469C91.526 6.40885 91.487 6.47396 91.4609 6.5C91.4349 6.52604 91.4023 6.57161 91.3633 6.63672C91.3372 6.70182 91.2982 6.76693 91.2461 6.83203C91.181 6.9362 91.1029 7.05339 91.0117 7.18359C90.9206 7.30078 90.8294 7.41797 90.7383 7.53516C90.6602 7.65234 90.5885 7.75651 90.5234 7.84766C90.4714 7.92578 90.4453 7.97135 90.4453 7.98438C90.4323 7.9974 90.4193 8.03646 90.4062 8.10156C90.3932 8.15365 90.3802 8.21875 90.3672 8.29688C90.3542 8.36198 90.3411 8.43359 90.3281 8.51172C90.3151 8.57682 90.3086 8.61589 90.3086 8.62891C90.2826 8.65495 90.237 8.73307 90.1719 8.86328C90.1198 8.99349 90.0547 9.13672 89.9766 9.29297C89.9115 9.44922 89.8464 9.59245 89.7812 9.72266C89.7292 9.85286 89.7031 9.9375 89.7031 9.97656C89.6641 10.0417 89.638 10.1133 89.625 10.1914L89.5859 10.3477C89.5599 10.4648 89.5208 10.6471 89.4688 10.8945C89.4297 11.1289 89.3906 11.3763 89.3516 11.6367C89.3125 11.8841 89.2799 12.112 89.2539 12.3203C89.2279 12.5286 89.2148 12.6589 89.2148 12.7109V15.6602C89.2409 15.6862 89.2734 15.7969 89.3125 15.9922C89.3646 16.1745 89.3906 16.3568 89.3906 16.5391C89.3906 16.487 89.332 16.7799 89.2148 17.418C89.306 17.6133 89.3581 17.8346 89.3711 18.082C89.3971 18.3164 89.4297 18.5573 89.4688 18.8047C89.4948 19 89.5208 19.2214 89.5469 19.4688C89.5859 19.7031 89.638 19.9505 89.7031 20.2109C89.7552 20.4193 89.8659 20.6667 90.0352 20.9531C90.2044 21.2396 90.3737 21.513 90.543 21.7734C90.5951 21.8516 90.6602 21.9492 90.7383 22.0664C90.8294 22.1836 90.9466 22.3854 91.0898 22.6719C91.2201 22.9323 91.3503 23.1927 91.4805 23.4531C91.6237 23.7005 91.806 23.8828 92.0273 24C92.0794 24.026 92.112 24.0456 92.125 24.0586C92.138 24.0586 92.1706 24.0716 92.2227 24.0977C92.2878 24.1367 92.3854 24.2083 92.5156 24.3125C92.6589 24.4167 92.8802 24.6185 93.1797 24.918C93.349 25.1003 93.5182 25.276 93.6875 25.4453C93.8698 25.6016 94.0065 25.7057 94.0977 25.7578C94.1107 25.7578 94.1237 25.7708 94.1367 25.7969C94.1497 25.8229 94.2018 25.8555 94.293 25.8945C94.293 25.9076 94.3255 25.9271 94.3906 25.9531C94.4557 25.9792 94.5339 26.0117 94.625 26.0508C94.7161 26.0768 94.8203 26.1224 94.9375 26.1875C95.0938 26.2526 95.25 26.3242 95.4062 26.4023C95.5755 26.4674 95.7383 26.5326 95.8945 26.5977C96.0508 26.6628 96.1875 26.7214 96.3047 26.7734C96.4349 26.8125 96.5326 26.832 96.5977 26.832H97.8086C97.8607 26.8581 97.8997 26.8776 97.9258 26.8906C97.9518 26.8906 98.0365 26.9167 98.1797 26.9688H98.6875C99.1693 26.9688 99.651 26.8711 100.133 26.6758C100.628 26.4805 101.103 26.2331 101.559 25.9336C102.014 25.6211 102.438 25.2826 102.828 24.918C103.232 24.5404 103.577 24.1758 103.863 23.8242C104.046 23.6029 104.176 23.4141 104.254 23.2578C104.345 23.1016 104.436 22.9323 104.527 22.75L104.801 22.1836C104.853 22.0404 104.905 21.9036 104.957 21.7734C105.022 21.6302 105.081 21.4805 105.133 21.3242C105.25 20.9857 105.38 20.6471 105.523 20.3086C105.667 19.9701 105.829 19.6315 106.012 19.293C106.064 19.2148 106.22 19.1758 106.48 19.1758C106.702 19.1758 106.852 19.2214 106.93 19.3125C107.008 19.4036 107.112 19.5599 107.242 19.7812V20.6211C107.242 21.2331 107.203 21.8385 107.125 22.4375C107.099 22.75 107.073 23.0495 107.047 23.3359C107.034 23.6224 107.027 23.9544 107.027 24.332C107.027 24.3971 107.034 24.5599 107.047 24.8203C107.06 25.0677 107.079 25.3346 107.105 25.6211C107.132 25.8945 107.151 26.1549 107.164 26.4023C107.19 26.6367 107.216 26.7799 107.242 26.832V27.0664C107.242 27.1576 107.216 27.2682 107.164 27.3984C107.125 27.5286 107.066 27.6589 106.988 27.7891C106.923 27.9062 106.845 28.0104 106.754 28.1016C106.663 28.1797 106.572 28.2188 106.48 28.2188C106.298 28.2188 106.168 28.1602 106.09 28.043C106.025 27.9258 105.979 27.7956 105.953 27.6523C105.927 27.6263 105.914 27.6003 105.914 27.5742C105.914 27.5482 105.901 27.5156 105.875 27.4766C105.875 27.4375 105.842 27.3594 105.777 27.2422C105.725 27.125 105.66 27.0013 105.582 26.8711C105.517 26.7279 105.452 26.6042 105.387 26.5C105.322 26.3828 105.283 26.3047 105.27 26.2656C105.191 26.2135 105.1 26.1875 104.996 26.1875C104.736 26.1875 104.495 26.2721 104.273 26.4414C104.065 26.5977 103.87 26.7604 103.688 26.9297C103.57 27.0599 103.453 27.1836 103.336 27.3008C103.232 27.4049 103.134 27.4766 103.043 27.5156C103.004 27.5156 102.958 27.5286 102.906 27.5547C102.854 27.5677 102.796 27.5807 102.73 27.5938C102.678 27.6068 102.639 27.6133 102.613 27.6133C102.522 27.7174 102.411 27.7956 102.281 27.8477C102.164 27.8867 102.034 27.9323 101.891 27.9844C101.747 28.0365 101.585 28.0885 101.402 28.1406C101.22 28.1797 101.025 28.2318 100.816 28.2969C100.491 28.375 100.172 28.4727 99.8594 28.5898C99.5469 28.694 99.2539 28.8307 98.9805 29C98.6289 29.026 98.2708 29.0456 97.9062 29.0586C97.5417 29.0846 97.1706 29.0977 96.793 29.0977C96.4935 29.0977 96.181 29.0846 95.8555 29.0586C95.543 29.0456 95.224 29.026 94.8984 29C94.8724 28.987 94.8203 28.9674 94.7422 28.9414C94.6641 28.9154 94.5794 28.8893 94.4883 28.8633C94.3971 28.8242 94.3125 28.7982 94.2344 28.7852C94.1562 28.7591 94.0977 28.7396 94.0586 28.7266C94.0846 28.7266 94.0391 28.7201 93.9219 28.707C93.8177 28.681 93.707 28.668 93.5898 28.668C93.4596 28.6289 93.3555 28.6029 93.2773 28.5898C93.1992 28.5768 93.1406 28.5573 93.1016 28.5312C92.9844 28.4661 92.9128 28.4271 92.8867 28.4141C92.8737 28.401 92.8607 28.3945 92.8477 28.3945C92.7174 28.3164 92.5547 28.2578 92.3594 28.2188C92.0339 28.1016 91.7083 27.9779 91.3828 27.8477C91.0703 27.7044 90.7643 27.5482 90.4648 27.3789C90.0091 27.0924 89.5859 26.7604 89.1953 26.3828C88.8047 25.9922 88.4401 25.5951 88.1016 25.1914C88.0625 25.1393 87.9714 25.0221 87.8281 24.8398C87.6849 24.6576 87.5286 24.4688 87.3594 24.2734C87.1901 24.0651 87.0339 23.8698 86.8906 23.6875C86.7474 23.5052 86.6562 23.3945 86.6172 23.3555C86.6042 23.3164 86.5651 23.2383 86.5 23.1211C86.4349 22.9909 86.3568 22.8477 86.2656 22.6914C86.1875 22.5352 86.1094 22.3854 86.0312 22.2422C85.9661 22.0859 85.9141 21.9753 85.875 21.9102C85.849 21.8581 85.8164 21.7865 85.7773 21.6953C85.7383 21.5911 85.7057 21.4805 85.6797 21.3633C85.6276 21.2201 85.5755 21.0898 85.5234 20.9727C85.4844 20.8424 85.4583 20.7448 85.4453 20.6797C85.3932 20.4974 85.3216 20.2435 85.2305 19.918C85.1523 19.5924 85.0742 19.2734 84.9961 18.9609C84.918 18.6484 84.8529 18.375 84.8008 18.1406C84.7487 17.8932 84.7227 17.763 84.7227 17.75C84.6966 17.3984 84.6641 17.0339 84.625 16.6562C84.599 16.2656 84.5859 15.862 84.5859 15.4453C84.5859 14.8203 84.625 14.1432 84.7031 13.4141ZM110.445 28.3945C110.445 28.1862 110.484 28.0234 110.562 27.9062C110.654 27.7891 110.764 27.7044 110.895 27.6523C111.038 27.5872 111.194 27.5482 111.363 27.5352C111.546 27.5091 111.721 27.4896 111.891 27.4766C111.917 27.4505 111.982 27.4375 112.086 27.4375C112.19 27.4375 112.301 27.444 112.418 27.457C112.548 27.4701 112.633 27.4766 112.672 27.4766C112.802 27.3984 112.932 27.3008 113.062 27.1836C113.206 27.0534 113.329 26.9167 113.434 26.7734C113.551 26.6172 113.642 26.4544 113.707 26.2852C113.785 26.1029 113.824 25.9271 113.824 25.7578L113.883 22.0664L113.922 21.3242L114.078 17.6133C114.117 17.3789 114.137 17.1706 114.137 16.9883C114.15 16.793 114.156 16.6042 114.156 16.4219C114.156 16.2005 114.13 15.9596 114.078 15.6992C114.039 15.4258 113.954 15.1849 113.824 14.9766C113.642 14.6771 113.421 14.3971 113.16 14.1367C112.913 13.8633 112.626 13.6354 112.301 13.4531C112.275 13.4401 112.223 13.4271 112.145 13.4141C112.066 13.388 111.982 13.362 111.891 13.3359C111.812 13.3099 111.734 13.2773 111.656 13.2383C111.591 13.1862 111.559 13.1341 111.559 13.082C111.559 12.9518 111.669 12.8086 111.891 12.6523C112.112 12.4961 112.366 12.3464 112.652 12.2031C112.939 12.0469 113.219 11.9167 113.492 11.8125C113.779 11.6953 113.974 11.6042 114.078 11.5391C114.26 11.4609 114.43 11.3633 114.586 11.2461C114.755 11.1159 114.918 10.9922 115.074 10.875C115.243 10.7578 115.413 10.6602 115.582 10.582C115.751 10.4909 115.94 10.4453 116.148 10.4453C116.305 10.4453 116.428 10.5365 116.52 10.7188C116.611 10.901 116.682 11.1289 116.734 11.4023C116.786 11.6628 116.832 11.9557 116.871 12.2812C116.91 12.5938 116.956 12.8867 117.008 13.1602C117.06 13.4206 117.125 13.6419 117.203 13.8242C117.281 14.0065 117.392 14.0977 117.535 14.0977C117.626 14.0977 117.685 14.0911 117.711 14.0781C117.737 14.0651 117.789 14.013 117.867 13.9219C117.88 13.8958 117.939 13.8112 118.043 13.668C118.147 13.5117 118.264 13.349 118.395 13.1797C118.538 12.9974 118.668 12.8346 118.785 12.6914C118.902 12.5482 118.98 12.4635 119.02 12.4375C119.15 12.2812 119.378 12.0859 119.703 11.8516C120.029 11.6172 120.38 11.3893 120.758 11.168C121.148 10.9466 121.526 10.7578 121.891 10.6016C122.255 10.4323 122.535 10.3477 122.73 10.3477C123.004 10.3477 123.264 10.3997 123.512 10.5039C123.772 10.6081 124 10.7578 124.195 10.9531C124.391 11.1354 124.547 11.3503 124.664 11.5977C124.781 11.8451 124.84 12.1055 124.84 12.3789C124.84 12.8997 124.723 13.3555 124.488 13.7461C124.267 14.1367 123.883 14.4427 123.336 14.6641H123.102C122.867 14.6641 122.652 14.612 122.457 14.5078C122.262 14.3906 122.066 14.2669 121.871 14.1367C121.689 13.9935 121.5 13.8698 121.305 13.7656C121.109 13.6484 120.901 13.5898 120.68 13.5898C120.38 13.5898 120.113 13.6419 119.879 13.7461C119.658 13.8372 119.43 13.9349 119.195 14.0391C119.143 14.0781 119.059 14.1302 118.941 14.1953C118.837 14.2474 118.727 14.3125 118.609 14.3906C118.505 14.4557 118.401 14.5143 118.297 14.5664C118.206 14.6185 118.141 14.651 118.102 14.6641C117.971 14.7552 117.854 14.8854 117.75 15.0547C117.646 15.224 117.555 15.4128 117.477 15.6211C117.411 15.8164 117.353 16.0182 117.301 16.2266C117.262 16.4349 117.236 16.6172 117.223 16.7734C117.223 16.7865 117.216 16.8516 117.203 16.9688C117.19 17.0729 117.171 17.1966 117.145 17.3398C117.132 17.4831 117.118 17.6263 117.105 17.7695C117.092 17.8997 117.086 18.0039 117.086 18.082V18.1211V18.2188C117.086 18.3099 117.086 18.4922 117.086 18.7656C117.099 19.026 117.112 19.3385 117.125 19.7031C117.138 20.0547 117.145 20.4323 117.145 20.8359C117.158 21.2266 117.171 21.6042 117.184 21.9688C117.197 22.3203 117.203 22.6328 117.203 22.9062C117.216 23.1667 117.223 23.3424 117.223 23.4336V25.4844C117.236 25.5495 117.262 25.6732 117.301 25.8555C117.34 26.0378 117.385 26.2331 117.438 26.4414C117.503 26.6367 117.568 26.8255 117.633 27.0078C117.711 27.1771 117.789 27.2812 117.867 27.3203C117.984 27.3724 118.147 27.418 118.355 27.457C118.577 27.4961 118.792 27.5482 119 27.6133C119.221 27.6654 119.41 27.7435 119.566 27.8477C119.723 27.9518 119.801 28.0885 119.801 28.2578C119.801 28.401 119.755 28.5247 119.664 28.6289C119.573 28.7201 119.462 28.7982 119.332 28.8633C119.202 28.9284 119.059 28.974 118.902 29C118.759 29.0391 118.629 29.0586 118.512 29.0586C118.212 29.0586 117.906 29.0326 117.594 28.9805C117.294 28.9284 116.995 28.9023 116.695 28.9023C116.357 28.9023 116.005 28.9284 115.641 28.9805C115.289 29.0326 114.951 29.0586 114.625 29.0586H114.566C114.54 29.0586 114.488 29.0521 114.41 29.0391C114.345 29.0391 114.267 29.0326 114.176 29.0195C114.098 29.0195 114.02 29.013 113.941 29C113.876 29 113.837 29 113.824 29C113.785 29 113.688 29.0065 113.531 29.0195C113.375 29.0456 113.264 29.0586 113.199 29.0586H112.457H111.852C111.695 29.0586 111.533 29.0521 111.363 29.0391C111.194 29.026 111.038 29 110.895 28.9609C110.764 28.9089 110.654 28.8438 110.562 28.7656C110.484 28.6745 110.445 28.5508 110.445 28.3945ZM129 16.0898C129 16.168 129.033 16.2461 129.098 16.3242C129.176 16.4023 129.26 16.4805 129.352 16.5586C129.456 16.6237 129.553 16.6823 129.645 16.7344C129.749 16.7734 129.833 16.806 129.898 16.832H131.93H133.922C134.026 16.819 134.202 16.7995 134.449 16.7734C134.71 16.7474 134.977 16.7214 135.25 16.6953C135.536 16.6562 135.803 16.6172 136.051 16.5781C136.311 16.5391 136.493 16.5 136.598 16.4609C136.624 16.4349 136.656 16.3763 136.695 16.2852C136.747 16.181 136.773 16.1159 136.773 16.0898V15.9141V15.7578C136.773 15.7188 136.767 15.6471 136.754 15.543C136.741 15.4258 136.721 15.3086 136.695 15.1914C136.682 15.0612 136.663 14.9375 136.637 14.8203C136.624 14.7031 136.611 14.6185 136.598 14.5664C136.467 14.4753 136.357 14.3646 136.266 14.2344C136.174 14.1042 136.077 13.9805 135.973 13.8633C135.882 13.7331 135.777 13.6159 135.66 13.5117C135.556 13.4076 135.426 13.3229 135.27 13.2578C135.178 13.2188 135.055 13.1667 134.898 13.1016C134.755 13.0234 134.612 12.9518 134.469 12.8867C134.326 12.8216 134.202 12.763 134.098 12.7109C133.993 12.6589 133.935 12.6263 133.922 12.6133H133.785H133.629C133.538 12.6263 133.421 12.6458 133.277 12.6719C133.134 12.6979 132.991 12.724 132.848 12.75C132.704 12.763 132.581 12.776 132.477 12.7891C132.372 12.8021 132.314 12.8086 132.301 12.8086C132.262 12.8086 132.197 12.8346 132.105 12.8867C132.027 12.9258 131.936 12.9714 131.832 13.0234C131.741 13.0755 131.65 13.1276 131.559 13.1797C131.48 13.2188 131.428 13.2448 131.402 13.2578C131.181 13.3359 130.966 13.3945 130.758 13.4336C130.562 13.4727 130.393 13.6029 130.25 13.8242C130.224 13.8633 130.165 13.9609 130.074 14.1172C129.983 14.2734 129.924 14.3711 129.898 14.4102C129.82 14.5534 129.729 14.6901 129.625 14.8203C129.521 14.9375 129.423 15.0612 129.332 15.1914C129.241 15.3086 129.163 15.4453 129.098 15.6016C129.033 15.7448 129 15.9076 129 16.0898ZM126.051 20.8555V20.4844C126.064 20.4193 126.077 20.2956 126.09 20.1133C126.116 19.931 126.129 19.7422 126.129 19.5469C126.142 19.3385 126.155 19.1432 126.168 18.9609C126.181 18.7786 126.201 18.6549 126.227 18.5898C126.24 18.3555 126.272 18.0951 126.324 17.8086C126.389 17.5091 126.461 17.2096 126.539 16.9102C126.63 16.6107 126.734 16.3242 126.852 16.0508C126.969 15.7643 127.099 15.5169 127.242 15.3086C127.255 15.2956 127.281 15.2695 127.32 15.2305C127.372 15.1784 127.424 15.1328 127.477 15.0938C127.529 15.0417 127.574 14.9961 127.613 14.957C127.665 14.918 127.698 14.8919 127.711 14.8789C127.724 14.8659 127.737 14.8268 127.75 14.7617C127.776 14.6966 127.802 14.6315 127.828 14.5664C127.854 14.5013 127.874 14.4427 127.887 14.3906C127.913 14.3255 127.932 14.2865 127.945 14.2734C128.167 13.8958 128.44 13.5833 128.766 13.3359C129.091 13.0885 129.423 12.8477 129.762 12.6133C129.996 12.4701 130.211 12.3398 130.406 12.2227C130.615 12.0924 130.816 11.9818 131.012 11.8906C131.22 11.7865 131.435 11.6953 131.656 11.6172C131.891 11.5391 132.151 11.474 132.438 11.4219C132.464 11.4219 132.568 11.4154 132.75 11.4023C132.945 11.3893 133.167 11.3828 133.414 11.3828C133.661 11.3698 133.915 11.3568 134.176 11.3438C134.436 11.3307 134.645 11.3242 134.801 11.3242H134.977H135.152C135.582 11.4284 135.986 11.5521 136.363 11.6953C136.754 11.8255 137.112 11.9948 137.438 12.2031C137.776 12.4115 138.082 12.6654 138.355 12.9648C138.642 13.2513 138.902 13.5964 139.137 14C139.15 14.026 139.169 14.1042 139.195 14.2344C139.221 14.3516 139.247 14.4102 139.273 14.4102C139.352 14.6055 139.443 14.7812 139.547 14.9375C139.664 15.0938 139.768 15.25 139.859 15.4062C139.964 15.5495 140.048 15.7057 140.113 15.875C140.178 16.0312 140.211 16.2135 140.211 16.4219C140.211 16.6693 140.107 16.9102 139.898 17.1445C139.703 17.3659 139.547 17.5417 139.43 17.6719C139.352 17.6979 139.208 17.7305 139 17.7695C138.805 17.8086 138.583 17.8477 138.336 17.8867C138.102 17.9258 137.861 17.9583 137.613 17.9844C137.379 18.0104 137.184 18.0234 137.027 18.0234C136.975 18.0234 136.858 18.0234 136.676 18.0234C136.507 18.0104 136.298 17.9974 136.051 17.9844C135.816 17.9714 135.562 17.9648 135.289 17.9648C135.016 17.9518 134.755 17.9453 134.508 17.9453C134.247 17.9453 134.02 17.9583 133.824 17.9844C133.642 18.0104 133.518 18.0234 133.453 18.0234C133.44 18.0234 133.382 18.0299 133.277 18.043C133.186 18.056 133.082 18.0755 132.965 18.1016C132.848 18.1146 132.737 18.1276 132.633 18.1406C132.529 18.1536 132.464 18.1602 132.438 18.1602C132.294 18.1732 132.086 18.1797 131.812 18.1797C131.539 18.1797 131.233 18.1797 130.895 18.1797C130.556 18.1797 130.237 18.1797 129.938 18.1797C129.651 18.1797 129.449 18.1732 129.332 18.1602C129.228 18.1732 129.156 18.2122 129.117 18.2773C129.078 18.3294 129.046 18.388 129.02 18.4531C129.02 18.4531 129.013 18.4857 129 18.5508C129 18.6029 129 18.668 129 18.7461C129 18.8242 129 18.9089 129 19C129 19.0781 129 19.1432 129 19.1953C129 19.2604 129 19.3581 129 19.4883C129 19.6185 129 19.7487 129 19.8789C129 19.9961 129 20.1068 129 20.2109C129.013 20.3151 129.02 20.3737 129.02 20.3867C129.033 20.6602 129.137 21.0312 129.332 21.5C129.527 21.9557 129.755 22.418 130.016 22.8867C130.289 23.3555 130.576 23.7917 130.875 24.1953C131.188 24.5859 131.474 24.8464 131.734 24.9766C131.786 25.0156 131.91 25.0872 132.105 25.1914C132.301 25.2956 132.509 25.4062 132.73 25.5234C132.952 25.6276 133.16 25.7318 133.355 25.8359C133.564 25.9271 133.707 25.9922 133.785 26.0312C133.85 26.0312 133.896 26.0247 133.922 26.0117C133.961 25.9987 134.007 25.9922 134.059 25.9922C134.319 25.9922 134.56 26.0247 134.781 26.0898C135.016 26.1549 135.263 26.1875 135.523 26.1875H135.816C135.882 26.1875 135.953 26.181 136.031 26.168L137.984 25.1523C138.036 24.9961 138.102 24.8398 138.18 24.6836C138.258 24.5143 138.349 24.3646 138.453 24.2344C138.57 24.1042 138.701 24 138.844 23.9219C139 23.8438 139.189 23.8047 139.41 23.8047H139.43C139.456 23.8307 139.488 23.8763 139.527 23.9414C139.579 24.0065 139.605 24.0456 139.605 24.0586C139.605 24.0846 139.579 24.1562 139.527 24.2734C139.488 24.3906 139.456 24.4818 139.43 24.5469C139.286 24.9245 139.137 25.2826 138.98 25.6211C138.824 25.9596 138.629 26.2982 138.395 26.6367C138.368 26.6628 138.323 26.7083 138.258 26.7734C138.193 26.8385 138.121 26.9102 138.043 26.9883C137.965 27.0664 137.887 27.1445 137.809 27.2227C137.743 27.2878 137.691 27.3398 137.652 27.3789C137.626 27.3919 137.574 27.418 137.496 27.457C137.431 27.4961 137.353 27.5417 137.262 27.5938C137.184 27.6328 137.112 27.6784 137.047 27.7305C136.982 27.7695 136.943 27.7956 136.93 27.8086C136.63 27.9909 136.363 28.1536 136.129 28.2969C135.908 28.4401 135.68 28.5638 135.445 28.668C135.224 28.7721 134.983 28.8568 134.723 28.9219C134.475 28.974 134.189 29 133.863 29C133.004 29 132.184 28.9023 131.402 28.707C130.621 28.4987 129.911 28.1927 129.273 27.7891C128.635 27.3724 128.089 26.8516 127.633 26.2266C127.19 25.5885 126.878 24.8333 126.695 23.9609C126.643 23.8177 126.585 23.6029 126.52 23.3164C126.454 23.0299 126.389 22.737 126.324 22.4375C126.259 22.138 126.201 21.8646 126.148 21.6172C126.096 21.3568 126.064 21.194 126.051 21.1289V20.8555ZM145.68 16.0898C145.68 16.168 145.712 16.2461 145.777 16.3242C145.855 16.4023 145.94 16.4805 146.031 16.5586C146.135 16.6237 146.233 16.6823 146.324 16.7344C146.428 16.7734 146.513 16.806 146.578 16.832H148.609H150.602C150.706 16.819 150.882 16.7995 151.129 16.7734C151.389 16.7474 151.656 16.7214 151.93 16.6953C152.216 16.6562 152.483 16.6172 152.73 16.5781C152.991 16.5391 153.173 16.5 153.277 16.4609C153.303 16.4349 153.336 16.3763 153.375 16.2852C153.427 16.181 153.453 16.1159 153.453 16.0898V15.9141V15.7578C153.453 15.7188 153.447 15.6471 153.434 15.543C153.421 15.4258 153.401 15.3086 153.375 15.1914C153.362 15.0612 153.342 14.9375 153.316 14.8203C153.303 14.7031 153.29 14.6185 153.277 14.5664C153.147 14.4753 153.036 14.3646 152.945 14.2344C152.854 14.1042 152.757 13.9805 152.652 13.8633C152.561 13.7331 152.457 13.6159 152.34 13.5117C152.236 13.4076 152.105 13.3229 151.949 13.2578C151.858 13.2188 151.734 13.1667 151.578 13.1016C151.435 13.0234 151.292 12.9518 151.148 12.8867C151.005 12.8216 150.882 12.763 150.777 12.7109C150.673 12.6589 150.615 12.6263 150.602 12.6133H150.465H150.309C150.217 12.6263 150.1 12.6458 149.957 12.6719C149.814 12.6979 149.671 12.724 149.527 12.75C149.384 12.763 149.26 12.776 149.156 12.7891C149.052 12.8021 148.993 12.8086 148.98 12.8086C148.941 12.8086 148.876 12.8346 148.785 12.8867C148.707 12.9258 148.616 12.9714 148.512 13.0234C148.421 13.0755 148.329 13.1276 148.238 13.1797C148.16 13.2188 148.108 13.2448 148.082 13.2578C147.861 13.3359 147.646 13.3945 147.438 13.4336C147.242 13.4727 147.073 13.6029 146.93 13.8242C146.904 13.8633 146.845 13.9609 146.754 14.1172C146.663 14.2734 146.604 14.3711 146.578 14.4102C146.5 14.5534 146.409 14.6901 146.305 14.8203C146.201 14.9375 146.103 15.0612 146.012 15.1914C145.921 15.3086 145.842 15.4453 145.777 15.6016C145.712 15.7448 145.68 15.9076 145.68 16.0898ZM142.73 20.8555V20.4844C142.743 20.4193 142.757 20.2956 142.77 20.1133C142.796 19.931 142.809 19.7422 142.809 19.5469C142.822 19.3385 142.835 19.1432 142.848 18.9609C142.861 18.7786 142.88 18.6549 142.906 18.5898C142.919 18.3555 142.952 18.0951 143.004 17.8086C143.069 17.5091 143.141 17.2096 143.219 16.9102C143.31 16.6107 143.414 16.3242 143.531 16.0508C143.648 15.7643 143.779 15.5169 143.922 15.3086C143.935 15.2956 143.961 15.2695 144 15.2305C144.052 15.1784 144.104 15.1328 144.156 15.0938C144.208 15.0417 144.254 14.9961 144.293 14.957C144.345 14.918 144.378 14.8919 144.391 14.8789C144.404 14.8659 144.417 14.8268 144.43 14.7617C144.456 14.6966 144.482 14.6315 144.508 14.5664C144.534 14.5013 144.553 14.4427 144.566 14.3906C144.592 14.3255 144.612 14.2865 144.625 14.2734C144.846 13.8958 145.12 13.5833 145.445 13.3359C145.771 13.0885 146.103 12.8477 146.441 12.6133C146.676 12.4701 146.891 12.3398 147.086 12.2227C147.294 12.0924 147.496 11.9818 147.691 11.8906C147.9 11.7865 148.115 11.6953 148.336 11.6172C148.57 11.5391 148.831 11.474 149.117 11.4219C149.143 11.4219 149.247 11.4154 149.43 11.4023C149.625 11.3893 149.846 11.3828 150.094 11.3828C150.341 11.3698 150.595 11.3568 150.855 11.3438C151.116 11.3307 151.324 11.3242 151.48 11.3242H151.656H151.832C152.262 11.4284 152.665 11.5521 153.043 11.6953C153.434 11.8255 153.792 11.9948 154.117 12.2031C154.456 12.4115 154.762 12.6654 155.035 12.9648C155.322 13.2513 155.582 13.5964 155.816 14C155.829 14.026 155.849 14.1042 155.875 14.2344C155.901 14.3516 155.927 14.4102 155.953 14.4102C156.031 14.6055 156.122 14.7812 156.227 14.9375C156.344 15.0938 156.448 15.25 156.539 15.4062C156.643 15.5495 156.728 15.7057 156.793 15.875C156.858 16.0312 156.891 16.2135 156.891 16.4219C156.891 16.6693 156.786 16.9102 156.578 17.1445C156.383 17.3659 156.227 17.5417 156.109 17.6719C156.031 17.6979 155.888 17.7305 155.68 17.7695C155.484 17.8086 155.263 17.8477 155.016 17.8867C154.781 17.9258 154.54 17.9583 154.293 17.9844C154.059 18.0104 153.863 18.0234 153.707 18.0234C153.655 18.0234 153.538 18.0234 153.355 18.0234C153.186 18.0104 152.978 17.9974 152.73 17.9844C152.496 17.9714 152.242 17.9648 151.969 17.9648C151.695 17.9518 151.435 17.9453 151.188 17.9453C150.927 17.9453 150.699 17.9583 150.504 17.9844C150.322 18.0104 150.198 18.0234 150.133 18.0234C150.12 18.0234 150.061 18.0299 149.957 18.043C149.866 18.056 149.762 18.0755 149.645 18.1016C149.527 18.1146 149.417 18.1276 149.312 18.1406C149.208 18.1536 149.143 18.1602 149.117 18.1602C148.974 18.1732 148.766 18.1797 148.492 18.1797C148.219 18.1797 147.913 18.1797 147.574 18.1797C147.236 18.1797 146.917 18.1797 146.617 18.1797C146.331 18.1797 146.129 18.1732 146.012 18.1602C145.908 18.1732 145.836 18.2122 145.797 18.2773C145.758 18.3294 145.725 18.388 145.699 18.4531C145.699 18.4531 145.693 18.4857 145.68 18.5508C145.68 18.6029 145.68 18.668 145.68 18.7461C145.68 18.8242 145.68 18.9089 145.68 19C145.68 19.0781 145.68 19.1432 145.68 19.1953C145.68 19.2604 145.68 19.3581 145.68 19.4883C145.68 19.6185 145.68 19.7487 145.68 19.8789C145.68 19.9961 145.68 20.1068 145.68 20.2109C145.693 20.3151 145.699 20.3737 145.699 20.3867C145.712 20.6602 145.816 21.0312 146.012 21.5C146.207 21.9557 146.435 22.418 146.695 22.8867C146.969 23.3555 147.255 23.7917 147.555 24.1953C147.867 24.5859 148.154 24.8464 148.414 24.9766C148.466 25.0156 148.59 25.0872 148.785 25.1914C148.98 25.2956 149.189 25.4062 149.41 25.5234C149.632 25.6276 149.84 25.7318 150.035 25.8359C150.243 25.9271 150.387 25.9922 150.465 26.0312C150.53 26.0312 150.576 26.0247 150.602 26.0117C150.641 25.9987 150.686 25.9922 150.738 25.9922C150.999 25.9922 151.24 26.0247 151.461 26.0898C151.695 26.1549 151.943 26.1875 152.203 26.1875H152.496C152.561 26.1875 152.633 26.181 152.711 26.168L154.664 25.1523C154.716 24.9961 154.781 24.8398 154.859 24.6836C154.938 24.5143 155.029 24.3646 155.133 24.2344C155.25 24.1042 155.38 24 155.523 23.9219C155.68 23.8438 155.868 23.8047 156.09 23.8047H156.109C156.135 23.8307 156.168 23.8763 156.207 23.9414C156.259 24.0065 156.285 24.0456 156.285 24.0586C156.285 24.0846 156.259 24.1562 156.207 24.2734C156.168 24.3906 156.135 24.4818 156.109 24.5469C155.966 24.9245 155.816 25.2826 155.66 25.6211C155.504 25.9596 155.309 26.2982 155.074 26.6367C155.048 26.6628 155.003 26.7083 154.938 26.7734C154.872 26.8385 154.801 26.9102 154.723 26.9883C154.645 27.0664 154.566 27.1445 154.488 27.2227C154.423 27.2878 154.371 27.3398 154.332 27.3789C154.306 27.3919 154.254 27.418 154.176 27.457C154.111 27.4961 154.033 27.5417 153.941 27.5938C153.863 27.6328 153.792 27.6784 153.727 27.7305C153.661 27.7695 153.622 27.7956 153.609 27.8086C153.31 27.9909 153.043 28.1536 152.809 28.2969C152.587 28.4401 152.359 28.5638 152.125 28.668C151.904 28.7721 151.663 28.8568 151.402 28.9219C151.155 28.974 150.868 29 150.543 29C149.684 29 148.863 28.9023 148.082 28.707C147.301 28.4987 146.591 28.1927 145.953 27.7891C145.315 27.3724 144.768 26.8516 144.312 26.2266C143.87 25.5885 143.557 24.8333 143.375 23.9609C143.323 23.8177 143.264 23.6029 143.199 23.3164C143.134 23.0299 143.069 22.737 143.004 22.4375C142.939 22.138 142.88 21.8646 142.828 21.6172C142.776 21.3568 142.743 21.194 142.73 21.1289V20.8555ZM168.746 13.668C168.746 13.3164 168.674 13.0625 168.531 12.9062C168.388 12.75 168.225 12.6328 168.043 12.5547C167.874 12.4766 167.717 12.4049 167.574 12.3398C167.431 12.2747 167.359 12.1641 167.359 12.0078C167.359 11.8906 167.392 11.7995 167.457 11.7344C167.535 11.6562 167.626 11.5911 167.73 11.5391C167.835 11.487 167.939 11.4544 168.043 11.4414C168.16 11.4154 168.258 11.4023 168.336 11.4023C168.518 11.4023 168.694 11.4284 168.863 11.4805C169.033 11.5326 169.221 11.5586 169.43 11.5586H169.625C170.237 11.4544 170.836 11.3568 171.422 11.2656C172.008 11.1745 172.613 11.1289 173.238 11.1289C173.421 11.1289 173.603 11.1484 173.785 11.1875C173.98 11.2266 174.078 11.3177 174.078 11.4609V11.5586C174.013 11.6758 173.954 11.7539 173.902 11.793C173.85 11.832 173.798 11.8646 173.746 11.8906C173.707 11.9036 173.648 11.9167 173.57 11.9297C173.505 11.9427 173.421 11.9688 173.316 12.0078C173.121 12.112 172.906 12.2227 172.672 12.3398C172.438 12.444 172.197 12.5612 171.949 12.6914C171.702 12.8216 171.461 12.9518 171.227 13.082C171.005 13.2122 170.81 13.349 170.641 13.4922C170.615 13.5052 170.562 13.5508 170.484 13.6289C170.419 13.707 170.348 13.7917 170.27 13.8828C170.191 13.9609 170.113 14.0456 170.035 14.1367C169.97 14.2148 169.924 14.2604 169.898 14.2734C169.872 14.2734 169.794 14.319 169.664 14.4102C169.547 14.5013 169.475 14.5534 169.449 14.5664C169.436 14.6055 169.391 14.6706 169.312 14.7617C169.234 14.8398 169.169 14.9245 169.117 15.0156C169.117 15.0417 169.111 15.0547 169.098 15.0547C169.085 15.0547 169.078 15.0612 169.078 15.0742C169.026 15.1523 168.935 15.276 168.805 15.4453C168.674 15.6016 168.531 15.7643 168.375 15.9336C168.232 16.1029 168.089 16.2656 167.945 16.4219C167.815 16.5781 167.711 16.6823 167.633 16.7344C167.542 16.7995 167.457 16.8776 167.379 16.9688C167.301 17.0469 167.229 17.125 167.164 17.2031C167.06 17.3464 166.969 17.4896 166.891 17.6328C166.826 17.776 166.793 17.9518 166.793 18.1602C166.793 18.1602 166.812 18.1797 166.852 18.2188C166.891 18.2578 166.936 18.3034 166.988 18.3555C167.04 18.4076 167.086 18.4531 167.125 18.4922C167.177 18.5312 167.21 18.5508 167.223 18.5508C167.236 18.5768 167.275 18.6159 167.34 18.668C167.405 18.707 167.47 18.7526 167.535 18.8047C167.6 18.8438 167.659 18.8828 167.711 18.9219C167.763 18.9609 167.796 18.987 167.809 19C167.809 19.026 167.848 19.0977 167.926 19.2148C168.017 19.319 168.076 19.4036 168.102 19.4688C168.219 19.6771 168.355 19.8333 168.512 19.9375C168.681 20.0417 168.85 20.1784 169.02 20.3477C169.033 20.3737 169.059 20.4193 169.098 20.4844C169.15 20.5365 169.195 20.5951 169.234 20.6602C169.286 20.7253 169.332 20.7904 169.371 20.8555C169.423 20.9076 169.449 20.9401 169.449 20.9531C169.488 21.0052 169.553 21.0833 169.645 21.1875C169.736 21.2917 169.827 21.4023 169.918 21.5195C170.009 21.6237 170.094 21.7214 170.172 21.8125C170.25 21.9036 170.302 21.9688 170.328 22.0078L171.07 22.75C171.109 22.776 171.181 22.8672 171.285 23.0234C171.402 23.1797 171.526 23.3555 171.656 23.5508C171.799 23.7461 171.923 23.9284 172.027 24.0977C172.145 24.2669 172.223 24.3776 172.262 24.4297C172.275 24.4427 172.307 24.4753 172.359 24.5273C172.424 24.5664 172.49 24.6185 172.555 24.6836C172.633 24.7357 172.698 24.7943 172.75 24.8594C172.802 24.9115 172.828 24.9505 172.828 24.9766C172.971 25.1328 173.108 25.3086 173.238 25.5039C173.368 25.6992 173.505 25.875 173.648 26.0312C173.674 26.0443 173.746 26.0964 173.863 26.1875C173.993 26.2656 174.065 26.3047 174.078 26.3047C174.091 26.3177 174.143 26.3633 174.234 26.4414C174.326 26.5065 174.417 26.5846 174.508 26.6758C174.612 26.7539 174.703 26.832 174.781 26.9102C174.872 26.9883 174.931 27.0404 174.957 27.0664C174.983 27.0924 175.055 27.151 175.172 27.2422C175.289 27.3203 175.413 27.4115 175.543 27.5156C175.686 27.6068 175.816 27.6979 175.934 27.7891C176.051 27.8672 176.122 27.9193 176.148 27.9453C176.253 28.0365 176.318 28.1081 176.344 28.1602C176.37 28.2122 176.383 28.3229 176.383 28.4922C176.383 28.6745 176.344 28.8372 176.266 28.9805C176.188 29.1107 176.038 29.1758 175.816 29.1758C175.23 29.1758 174.645 29.1432 174.059 29.0781C173.486 29.026 172.919 29 172.359 29H171.285C170.921 29 170.569 29 170.23 29C169.892 29.013 169.534 29.0456 169.156 29.0977C168.974 29.0716 168.818 29 168.688 28.8828C168.57 28.7526 168.512 28.5768 168.512 28.3555C168.512 28.3034 168.518 28.2578 168.531 28.2188C168.531 28.1797 168.538 28.1471 168.551 28.1211C168.603 28.0951 168.701 28.043 168.844 27.9648C168.987 27.8867 169.091 27.8346 169.156 27.8086C169.195 27.8086 169.26 27.8021 169.352 27.7891C169.456 27.763 169.566 27.7435 169.684 27.7305C169.801 27.7044 169.911 27.6849 170.016 27.6719C170.12 27.6589 170.191 27.6523 170.23 27.6523C170.23 27.6263 170.243 27.5807 170.27 27.5156C170.309 27.4505 170.328 27.4049 170.328 27.3789C170.328 27.3398 170.322 27.2812 170.309 27.2031C170.296 27.112 170.283 27.0208 170.27 26.9297C170.27 26.8255 170.263 26.7344 170.25 26.6562C170.237 26.5651 170.23 26.5 170.23 26.4609C170.152 26.4089 170.035 26.3177 169.879 26.1875C169.736 26.0443 169.579 25.8945 169.41 25.7383C169.254 25.582 169.104 25.4323 168.961 25.2891C168.831 25.1458 168.74 25.0417 168.688 24.9766C168.674 24.9505 168.642 24.8919 168.59 24.8008C168.538 24.7096 168.479 24.612 168.414 24.5078C168.349 24.4036 168.284 24.3125 168.219 24.2344C168.167 24.1432 168.128 24.0846 168.102 24.0586C167.802 23.707 167.49 23.375 167.164 23.0625C166.852 22.75 166.565 22.3984 166.305 22.0078C166.253 21.9297 166.174 21.832 166.07 21.7148C165.966 21.5846 165.849 21.4674 165.719 21.3633C165.589 21.2461 165.458 21.1484 165.328 21.0703C165.211 20.9922 165.113 20.9531 165.035 20.9531H164.957C164.879 21.1094 164.801 21.2852 164.723 21.4805C164.645 21.6628 164.586 21.8385 164.547 22.0078C164.547 22.112 164.54 22.2943 164.527 22.5547C164.514 22.8021 164.501 23.069 164.488 23.3555C164.475 23.6419 164.462 23.9089 164.449 24.1562C164.436 24.4036 164.43 24.5794 164.43 24.6836V25.4258C164.43 25.4388 164.436 25.4779 164.449 25.543C164.462 25.5951 164.475 25.6536 164.488 25.7188C164.501 25.7839 164.514 25.849 164.527 25.9141C164.54 25.9792 164.547 26.0182 164.547 26.0312C164.547 26.0573 164.547 26.1224 164.547 26.2266C164.56 26.3307 164.573 26.4414 164.586 26.5586C164.599 26.6758 164.612 26.7865 164.625 26.8906C164.638 26.9818 164.651 27.0404 164.664 27.0664C164.703 27.1576 164.794 27.2617 164.938 27.3789C165.081 27.4961 165.23 27.6133 165.387 27.7305C165.556 27.8477 165.699 27.9648 165.816 28.082C165.947 28.1862 166.012 28.2643 166.012 28.3164V28.4336C165.842 28.7331 165.621 28.9284 165.348 29.0195C165.074 29.1237 164.775 29.1758 164.449 29.1758C164.189 29.1758 163.922 29.1628 163.648 29.1367C163.388 29.1107 163.141 29.0977 162.906 29.0977C162.828 29.1237 162.646 29.1432 162.359 29.1562C162.086 29.1823 161.786 29.2083 161.461 29.2344C161.148 29.2604 160.849 29.2799 160.562 29.293C160.289 29.306 160.12 29.3125 160.055 29.3125H159.762C159.501 29.3125 159.267 29.2604 159.059 29.1562C158.85 29.0521 158.746 28.8893 158.746 28.668V28.4336C158.85 28.2513 159.007 28.1081 159.215 28.0039C159.423 27.8997 159.632 27.8151 159.84 27.75C160.061 27.6849 160.257 27.6263 160.426 27.5742C160.608 27.5221 160.725 27.457 160.777 27.3789C160.921 27.1966 161.012 26.9948 161.051 26.7734C161.09 26.5521 161.109 26.3242 161.109 26.0898C161.109 25.8815 161.103 25.6927 161.09 25.5234C161.077 25.3411 161.07 25.1589 161.07 24.9766C161.083 24.9505 161.103 24.8919 161.129 24.8008C161.155 24.6966 161.174 24.5859 161.188 24.4688C161.201 24.3516 161.214 24.2409 161.227 24.1367C161.24 24.0326 161.246 23.9674 161.246 23.9414C161.337 22.9648 161.396 21.9883 161.422 21.0117C161.461 20.0221 161.487 19.0391 161.5 18.0625C161.513 17.0729 161.533 16.0898 161.559 15.1133C161.585 14.1237 161.637 13.1406 161.715 12.1641C161.715 12.138 161.721 12.0859 161.734 12.0078C161.747 11.9167 161.76 11.819 161.773 11.7148C161.799 11.6107 161.819 11.5195 161.832 11.4414C161.845 11.3503 161.852 11.2917 161.852 11.2656C161.852 11.2526 161.858 11.1419 161.871 10.9336C161.884 10.7122 161.897 10.4648 161.91 10.1914C161.936 9.90495 161.956 9.61198 161.969 9.3125C161.982 9.01302 161.988 8.77214 161.988 8.58984V8.41406C161.988 8.38802 161.982 8.32292 161.969 8.21875C161.956 8.10156 161.936 7.97786 161.91 7.84766C161.897 7.71745 161.884 7.59375 161.871 7.47656C161.858 7.35938 161.852 7.28125 161.852 7.24219C161.852 7.1901 161.845 7.13151 161.832 7.06641C161.819 6.98828 161.812 6.92318 161.812 6.87109C161.812 6.72786 161.819 6.60417 161.832 6.5C161.845 6.39583 161.852 6.28516 161.852 6.16797C161.852 5.79036 161.826 5.41276 161.773 5.03516C161.734 4.64453 161.617 4.29948 161.422 4C161.357 3.88281 161.188 3.76562 160.914 3.64844C160.641 3.51823 160.354 3.39453 160.055 3.27734C159.768 3.14714 159.508 3.01693 159.273 2.88672C159.039 2.75651 158.922 2.63281 158.922 2.51562C158.922 2.48958 158.928 2.4375 158.941 2.35938C158.967 2.26823 158.993 2.20312 159.02 2.16406C159.124 2.02083 159.286 1.92969 159.508 1.89062C159.742 1.83854 159.924 1.79948 160.055 1.77344C160.367 1.64323 160.68 1.50651 160.992 1.36328C161.305 1.22005 161.617 1.08984 161.93 0.972656C162.255 0.842448 162.581 0.738281 162.906 0.660156C163.245 0.56901 163.583 0.523438 163.922 0.523438C163.974 0.523438 164.052 0.529948 164.156 0.542969C164.273 0.55599 164.391 0.582031 164.508 0.621094C164.625 0.660156 164.729 0.71224 164.82 0.777344C164.911 0.829427 164.957 0.901042 164.957 0.992188V6.1875C164.957 6.21354 164.951 6.26562 164.938 6.34375C164.938 6.40885 164.924 6.48698 164.898 6.57812C164.885 6.65625 164.859 6.73438 164.82 6.8125C164.781 6.8776 164.729 6.92969 164.664 6.96875V9.03906C164.716 9.07812 164.755 9.2474 164.781 9.54688C164.82 9.83333 164.853 10.1589 164.879 10.5234C164.905 10.875 164.924 11.2135 164.938 11.5391C164.951 11.8646 164.957 12.0729 164.957 12.1641V12.6133C164.957 12.6263 164.951 12.6719 164.938 12.75C164.924 12.8151 164.905 12.8932 164.879 12.9844C164.866 13.0625 164.853 13.1406 164.84 13.2188C164.827 13.2969 164.82 13.3424 164.82 13.3555C164.807 13.4466 164.801 13.6094 164.801 13.8438C164.801 14.0651 164.801 14.306 164.801 14.5664C164.801 14.8138 164.801 15.0547 164.801 15.2891C164.801 15.5104 164.807 15.6667 164.82 15.7578C164.807 15.7839 164.781 15.8555 164.742 15.9727C164.716 16.0898 164.69 16.1615 164.664 16.1875V16.2266C164.664 16.3047 164.677 16.4023 164.703 16.5195C164.729 16.6367 164.755 16.7604 164.781 16.8906C164.82 17.0078 164.853 17.125 164.879 17.2422C164.918 17.3594 164.944 17.4505 164.957 17.5156C164.97 17.5677 164.983 17.6654 164.996 17.8086C165.009 17.9518 165.022 18.1016 165.035 18.2578C165.061 18.4141 165.081 18.5638 165.094 18.707C165.12 18.8503 165.146 18.9479 165.172 19C165.172 19.0391 165.185 19.0586 165.211 19.0586H165.27C165.374 19.0586 165.504 18.9674 165.66 18.7852C165.816 18.6029 166.012 18.3359 166.246 17.9844C166.48 17.6328 166.76 17.1901 167.086 16.6562C167.424 16.1224 167.828 15.5039 168.297 14.8008C168.362 14.6055 168.453 14.4232 168.57 14.2539C168.688 14.0846 168.746 13.8893 168.746 13.668Z" fill="white"/>
</svg>
