<svg width="138" height="39" viewBox="0 0 138 39" fill="none" xmlns="http://www.w3.org/2000/svg">
<path d="M17.16 30.36C16.7333 30.36 16.3733 30.04 16.08 29.4L5.24 5.88C5.16 5.69333 5.05333 5.61333 4.92 5.64C4.81333 5.66667 4.76 5.78667 4.76 6V26.56C4.76 27.3067 4.88 27.88 5.12 28.28C5.38667 28.6533 5.85333 28.8933 6.52 29L7.04 29.08C7.38667 29.1067 7.56 29.2667 7.56 29.56C7.56 29.8533 7.36 30 6.96 30H1.24C0.84 30 0.64 29.8533 0.64 29.56C0.64 29.2667 0.813333 29.1067 1.16 29.08L1.68 29C2.37333 28.8933 2.85333 28.6533 3.12 28.28C3.38667 27.88 3.52 27.3067 3.52 26.56V3.84C3.52 3.28 3.42667 2.90667 3.24 2.72C3.08 2.53333 2.69333 2.38667 2.08 2.28L1.16 2.12C0.813333 2.04 0.64 1.88 0.64 1.64C0.64 1.34667 0.84 1.2 1.24 1.2H5.52C6.18667 1.2 6.65333 1.49333 6.92 2.08L16.36 22.84C16.44 23 16.5333 23.0667 16.64 23.04C16.7733 23.0133 16.84 22.92 16.84 22.76V4.64C16.84 3.78667 16.6933 3.2 16.4 2.88C16.1067 2.53333 15.7333 2.32 15.28 2.24L14.56 2.12C14.2133 2.04 14.04 1.88 14.04 1.64C14.04 1.34667 14.24 1.2 14.64 1.2H20.36C20.76 1.2 20.96 1.34667 20.96 1.64C20.96 1.93333 20.7867 2.09333 20.44 2.12L19.92 2.2C19.2267 2.30666 18.7467 2.53333 18.48 2.88C18.2133 3.2 18.08 3.78667 18.08 4.64V29.08C18.08 29.56 17.9867 29.8933 17.8 30.08C17.64 30.2667 17.4267 30.36 17.16 30.36ZM25.6928 5.8C25.1328 5.8 24.6528 5.6 24.2528 5.2C23.8795 4.8 23.6928 4.29333 23.6928 3.68C23.6928 3.06666 23.8795 2.57333 24.2528 2.2C24.6528 1.8 25.1328 1.6 25.6928 1.6C26.2528 1.6 26.7195 1.8 27.0928 2.2C27.4661 2.57333 27.6528 3.06666 27.6528 3.68C27.6528 4.29333 27.4661 4.8 27.0928 5.2C26.7195 5.6 26.2528 5.8 25.6928 5.8ZM22.3328 30C21.9328 30 21.7328 29.8533 21.7328 29.56C21.7328 29.32 21.9061 29.16 22.2528 29.08L22.7328 29C23.3995 28.8933 23.8261 28.7333 24.0128 28.52C24.1995 28.28 24.2928 27.88 24.2928 27.32V13.88C24.2928 13.4 24.2128 13.08 24.0528 12.92C23.9195 12.7333 23.6661 12.6133 23.2928 12.56L22.4528 12.44C22.1061 12.4133 21.9328 12.2667 21.9328 12C21.9328 11.7867 22.1461 11.64 22.5728 11.56C23.3995 11.4267 24.0661 11.2133 24.5728 10.92C25.0795 10.6267 25.5728 10.2667 26.0528 9.84C26.2928 9.6 26.4928 9.48 26.6528 9.48C26.8928 9.48 27.0128 9.64 27.0128 9.96V27.32C27.0128 27.88 27.0928 28.28 27.2528 28.52C27.4128 28.76 27.7195 28.9067 28.1728 28.96L29.1728 29.08C29.4661 29.1333 29.6128 29.28 29.6128 29.52C29.6128 29.84 29.4128 30 29.0128 30H22.3328ZM37.1591 38.6C35.1324 38.6 33.5324 38.1867 32.3591 37.36C31.1857 36.56 30.5991 35.5867 30.5991 34.44C30.5991 33.96 30.6657 33.52 30.7991 33.12C30.9324 32.7467 31.2124 32.3067 31.6391 31.8C32.0924 31.2933 32.7724 30.64 33.6791 29.84C33.9991 29.5467 34.1591 29.28 34.1591 29.04C34.1591 28.7733 33.9991 28.5733 33.6791 28.44C32.7191 28.04 32.1457 27.5333 31.9591 26.92C31.7724 26.28 31.9991 25.6933 32.6391 25.16L35.5191 22.68C35.8391 22.4133 35.8257 22.1867 35.4791 22C34.3857 21.4667 33.5191 20.64 32.8791 19.52C32.2391 18.4 31.9191 17.2 31.9191 15.92C31.9191 14.6933 32.1857 13.5867 32.7191 12.6C33.2524 11.6133 33.9724 10.8267 34.8791 10.24C35.7857 9.65333 36.7991 9.36 37.9191 9.36C38.5591 9.36 39.1724 9.46667 39.7591 9.68C40.1324 9.81333 40.3591 9.69333 40.4391 9.32C40.6791 8.30667 41.1191 7.52 41.7591 6.96C42.4257 6.37333 43.0791 6.08 43.7191 6.08C44.3324 6.08 44.8257 6.26666 45.1991 6.64C45.5991 6.98666 45.7991 7.42667 45.7991 7.96C45.7991 8.41333 45.6657 8.77333 45.3991 9.04C45.1324 9.30667 44.7991 9.44 44.3991 9.44C44.0524 9.44 43.7991 9.37333 43.6391 9.24C43.4791 9.10666 43.3324 8.97333 43.1991 8.84C43.0657 8.70667 42.8524 8.64 42.5591 8.64C41.9191 8.64 41.5191 8.98667 41.3591 9.68C41.2791 9.94667 41.2791 10.1733 41.3591 10.36C41.4657 10.5467 41.6124 10.7333 41.7991 10.92C42.4391 11.5333 42.9324 12.28 43.2791 13.16C43.6524 14.04 43.8391 15.0133 43.8391 16.08C43.8391 17.36 43.5724 18.5067 43.0391 19.52C42.5324 20.5333 41.8257 21.3333 40.9191 21.92C40.0391 22.5067 39.0391 22.8 37.9191 22.8C37.4391 22.8 37.0257 22.9067 36.6791 23.12C36.3324 23.3067 35.9857 23.5867 35.6391 23.96L34.9591 24.72C34.6124 25.1467 34.5057 25.56 34.6391 25.96C34.7991 26.3333 35.1724 26.52 35.7591 26.52H39.1991C41.1191 26.52 42.6391 27 43.7591 27.96C44.8791 28.8933 45.4391 30.1867 45.4391 31.84C45.4391 33.1467 45.0657 34.3067 44.3191 35.32C43.5724 36.3333 42.5724 37.1333 41.3191 37.72C40.0924 38.3067 38.7057 38.6 37.1591 38.6ZM37.8791 21.8C38.8391 21.8 39.5991 21.28 40.1591 20.24C40.7191 19.2 40.9991 17.7867 40.9991 16C40.9991 14.2667 40.7057 12.88 40.1191 11.84C39.5591 10.7733 38.8124 10.24 37.8791 10.24C36.9457 10.24 36.1857 10.7733 35.5991 11.84C35.0391 12.88 34.7591 14.2667 34.7591 16C34.7591 17.7867 35.0391 19.2 35.5991 20.24C36.1591 21.28 36.9191 21.8 37.8791 21.8ZM37.6391 37.72C38.5991 37.72 39.4791 37.5067 40.2791 37.08C41.0791 36.6533 41.7057 36.0533 42.1591 35.28C42.6391 34.5333 42.8791 33.68 42.8791 32.72C42.8791 31.52 42.5191 30.6 41.7991 29.96C41.1057 29.2933 40.1191 28.96 38.8391 28.96H37.9191C37.0924 28.96 36.4657 29.04 36.0391 29.2C35.6391 29.36 35.2524 29.64 34.8791 30.04C34.0524 30.92 33.5324 31.6267 33.3191 32.16C33.1057 32.6933 32.9991 33.24 32.9991 33.8C32.9991 34.9733 33.3991 35.92 34.1991 36.64C35.0257 37.36 36.1724 37.72 37.6391 37.72ZM47.2128 30C46.8928 30 46.7328 29.8533 46.7328 29.56C46.7328 29.2933 46.8795 29.1333 47.1728 29.08L47.7328 29C48.2928 28.92 48.6528 28.76 48.8128 28.52C48.9995 28.28 49.0928 27.88 49.0928 27.32V4.4C49.0928 3.92 49.0128 3.6 48.8528 3.44C48.7195 3.25333 48.4661 3.13333 48.0928 3.08L47.2528 2.96C46.9595 2.90667 46.8128 2.74667 46.8128 2.48C46.8128 2.21333 46.9595 2.05333 47.2528 2C47.9995 1.84 48.6261 1.65333 49.1328 1.44C49.6395 1.22666 50.0661 1.01333 50.4128 0.799999C50.8395 0.533333 51.1595 0.4 51.3728 0.4C51.6661 0.4 51.8128 0.613333 51.8128 1.04V11.64C51.8128 11.88 51.8928 12.0267 52.0528 12.08C52.2128 12.1067 52.4128 12.0133 52.6528 11.8C53.6661 10.8667 54.5595 10.2267 55.3328 9.88C56.1061 9.53333 56.9195 9.36 57.7728 9.36C59.0261 9.36 60.0128 9.78667 60.7328 10.64C61.4528 11.4667 61.8128 12.6933 61.8128 14.32V27.32C61.8128 27.88 61.8928 28.28 62.0528 28.52C62.2395 28.7333 62.6128 28.88 63.1728 28.96L64.0528 29.08C64.3461 29.1333 64.4928 29.2933 64.4928 29.56C64.4928 29.8533 64.3328 30 64.0128 30H57.2928C56.9195 30 56.7328 29.8533 56.7328 29.56C56.7328 29.2933 56.8795 29.1333 57.1728 29.08L57.7328 29C58.2928 28.92 58.6528 28.76 58.8128 28.52C58.9995 28.28 59.0928 27.88 59.0928 27.32V14.76C59.0928 13.4533 58.8528 12.5333 58.3728 12C57.8928 11.4667 57.2128 11.2 56.3328 11.2C55.4795 11.2 54.7061 11.4533 54.0128 11.96C53.3461 12.44 52.8128 13.0933 52.4128 13.92C52.0128 14.72 51.8128 15.6133 51.8128 16.6V27.32C51.8128 27.88 51.8928 28.28 52.0528 28.52C52.2395 28.76 52.6128 28.9067 53.1728 28.96L54.2528 29.08C54.5461 29.1333 54.6928 29.2933 54.6928 29.56C54.6928 29.8533 54.5328 30 54.2128 30H47.2128ZM70.8019 30.36C69.8685 30.36 69.0952 30.04 68.4819 29.4C67.8952 28.7333 67.6019 27.6533 67.6019 26.16V11.2C67.6019 10.88 67.4419 10.72 67.1219 10.72H65.9619C65.5352 10.72 65.3219 10.56 65.3219 10.24C65.3219 10.0267 65.4419 9.84 65.6819 9.68C66.5619 9.06667 67.2685 8.41333 67.8019 7.72C68.3352 7 68.8019 6.02666 69.2019 4.8C69.3885 4.24 69.6152 3.96 69.8819 3.96C70.1752 3.96 70.3219 4.17333 70.3219 4.6V9.04C70.3219 9.41333 70.5085 9.6 70.8819 9.6H73.4819C73.9085 9.6 74.1219 9.78667 74.1219 10.16C74.1219 10.5333 73.9085 10.72 73.4819 10.72H70.8819C70.5085 10.72 70.3219 10.9067 70.3219 11.28V26.2C70.3219 26.7867 70.4152 27.2533 70.6019 27.6C70.7885 27.92 71.1352 28.08 71.6419 28.08C72.2019 28.08 72.6552 27.8 73.0019 27.24C73.3752 26.68 73.6152 25.7733 73.7219 24.52C73.7752 24.1467 73.9485 23.96 74.2419 23.96C74.5619 23.96 74.7219 24.16 74.7219 24.56C74.6419 26.6133 74.2152 28.0933 73.4419 29C72.6952 29.9067 71.8152 30.36 70.8019 30.36ZM76.0734 30C75.7534 30 75.5934 29.8533 75.5934 29.56C75.5934 29.2933 75.7401 29.1333 76.0334 29.08L76.5934 29C77.1534 28.92 77.5668 28.76 77.8334 28.52C78.1001 28.28 78.2334 27.88 78.2334 27.32V4.4C78.2334 3.92 78.1534 3.58666 77.9934 3.4C77.8601 3.21333 77.6068 3.10666 77.2334 3.08L76.3134 2.96C76.0201 2.90667 75.8734 2.74667 75.8734 2.48C75.8734 2.21333 76.0201 2.05333 76.3134 2C77.0601 1.84 77.7001 1.65333 78.2334 1.44C78.7668 1.22666 79.2068 1.01333 79.5534 0.799999C79.9801 0.533333 80.3001 0.4 80.5134 0.4C80.8068 0.4 80.9534 0.613333 80.9534 1.04V27.32C80.9534 27.88 81.0334 28.28 81.1934 28.52C81.3801 28.7333 81.7534 28.88 82.3134 28.96L83.2334 29.08C83.5268 29.1333 83.6734 29.2933 83.6734 29.56C83.6734 29.8533 83.5134 30 83.1934 30H76.0734ZM88.6225 5.8C88.0625 5.8 87.5825 5.6 87.1825 5.2C86.8092 4.8 86.6225 4.29333 86.6225 3.68C86.6225 3.06666 86.8092 2.57333 87.1825 2.2C87.5825 1.8 88.0625 1.6 88.6225 1.6C89.1825 1.6 89.6492 1.8 90.0225 2.2C90.3958 2.57333 90.5825 3.06666 90.5825 3.68C90.5825 4.29333 90.3958 4.8 90.0225 5.2C89.6492 5.6 89.1825 5.8 88.6225 5.8ZM85.2625 30C84.8625 30 84.6625 29.8533 84.6625 29.56C84.6625 29.32 84.8358 29.16 85.1825 29.08L85.6625 29C86.3292 28.8933 86.7558 28.7333 86.9425 28.52C87.1292 28.28 87.2225 27.88 87.2225 27.32V13.88C87.2225 13.4 87.1425 13.08 86.9825 12.92C86.8492 12.7333 86.5958 12.6133 86.2225 12.56L85.3825 12.44C85.0358 12.4133 84.8625 12.2667 84.8625 12C84.8625 11.7867 85.0758 11.64 85.5025 11.56C86.3292 11.4267 86.9958 11.2133 87.5025 10.92C88.0092 10.6267 88.5025 10.2667 88.9825 9.84C89.2225 9.6 89.4225 9.48 89.5825 9.48C89.8225 9.48 89.9425 9.64 89.9425 9.96V27.32C89.9425 27.88 90.0225 28.28 90.1825 28.52C90.3425 28.76 90.6492 28.9067 91.1025 28.96L92.1025 29.08C92.3958 29.1333 92.5425 29.28 92.5425 29.52C92.5425 29.84 92.3425 30 91.9425 30H85.2625ZM100.089 38.6C98.0621 38.6 96.4621 38.1867 95.2888 37.36C94.1154 36.56 93.5288 35.5867 93.5288 34.44C93.5288 33.96 93.5954 33.52 93.7288 33.12C93.8621 32.7467 94.1421 32.3067 94.5688 31.8C95.0221 31.2933 95.7021 30.64 96.6088 29.84C96.9288 29.5467 97.0888 29.28 97.0888 29.04C97.0888 28.7733 96.9288 28.5733 96.6088 28.44C95.6488 28.04 95.0754 27.5333 94.8888 26.92C94.7021 26.28 94.9288 25.6933 95.5688 25.16L98.4488 22.68C98.7688 22.4133 98.7554 22.1867 98.4088 22C97.3154 21.4667 96.4488 20.64 95.8088 19.52C95.1688 18.4 94.8488 17.2 94.8488 15.92C94.8488 14.6933 95.1154 13.5867 95.6488 12.6C96.1821 11.6133 96.9021 10.8267 97.8088 10.24C98.7154 9.65333 99.7288 9.36 100.849 9.36C101.489 9.36 102.102 9.46667 102.689 9.68C103.062 9.81333 103.289 9.69333 103.369 9.32C103.609 8.30667 104.049 7.52 104.689 6.96C105.355 6.37333 106.009 6.08 106.649 6.08C107.262 6.08 107.755 6.26666 108.129 6.64C108.529 6.98666 108.729 7.42667 108.729 7.96C108.729 8.41333 108.595 8.77333 108.329 9.04C108.062 9.30667 107.729 9.44 107.329 9.44C106.982 9.44 106.729 9.37333 106.569 9.24C106.409 9.10666 106.262 8.97333 106.129 8.84C105.995 8.70667 105.782 8.64 105.489 8.64C104.849 8.64 104.449 8.98667 104.289 9.68C104.209 9.94667 104.209 10.1733 104.289 10.36C104.395 10.5467 104.542 10.7333 104.729 10.92C105.369 11.5333 105.862 12.28 106.209 13.16C106.582 14.04 106.769 15.0133 106.769 16.08C106.769 17.36 106.502 18.5067 105.969 19.52C105.462 20.5333 104.755 21.3333 103.849 21.92C102.969 22.5067 101.969 22.8 100.849 22.8C100.369 22.8 99.9554 22.9067 99.6088 23.12C99.2621 23.3067 98.9154 23.5867 98.5688 23.96L97.8888 24.72C97.5421 25.1467 97.4354 25.56 97.5688 25.96C97.7288 26.3333 98.1021 26.52 98.6888 26.52H102.129C104.049 26.52 105.569 27 106.689 27.96C107.809 28.8933 108.369 30.1867 108.369 31.84C108.369 33.1467 107.995 34.3067 107.249 35.32C106.502 36.3333 105.502 37.1333 104.249 37.72C103.022 38.3067 101.635 38.6 100.089 38.6ZM100.809 21.8C101.769 21.8 102.529 21.28 103.089 20.24C103.649 19.2 103.929 17.7867 103.929 16C103.929 14.2667 103.635 12.88 103.049 11.84C102.489 10.7733 101.742 10.24 100.809 10.24C99.8754 10.24 99.1154 10.7733 98.5288 11.84C97.9688 12.88 97.6888 14.2667 97.6888 16C97.6888 17.7867 97.9688 19.2 98.5288 20.24C99.0888 21.28 99.8488 21.8 100.809 21.8ZM100.569 37.72C101.529 37.72 102.409 37.5067 103.209 37.08C104.009 36.6533 104.635 36.0533 105.089 35.28C105.569 34.5333 105.809 33.68 105.809 32.72C105.809 31.52 105.449 30.6 104.729 29.96C104.035 29.2933 103.049 28.96 101.769 28.96H100.849C100.022 28.96 99.3954 29.04 98.9688 29.2C98.5688 29.36 98.1821 29.64 97.8088 30.04C96.9821 30.92 96.4621 31.6267 96.2488 32.16C96.0354 32.6933 95.9288 33.24 95.9288 33.8C95.9288 34.9733 96.3288 35.92 97.1288 36.64C97.9554 37.36 99.1021 37.72 100.569 37.72ZM110.143 30C109.823 30 109.663 29.8533 109.663 29.56C109.663 29.2933 109.809 29.1333 110.103 29.08L110.663 29C111.223 28.92 111.583 28.76 111.743 28.52C111.929 28.28 112.023 27.88 112.023 27.32V4.4C112.023 3.92 111.943 3.6 111.783 3.44C111.649 3.25333 111.396 3.13333 111.023 3.08L110.183 2.96C109.889 2.90667 109.743 2.74667 109.743 2.48C109.743 2.21333 109.889 2.05333 110.183 2C110.929 1.84 111.556 1.65333 112.063 1.44C112.569 1.22666 112.996 1.01333 113.343 0.799999C113.769 0.533333 114.089 0.4 114.303 0.4C114.596 0.4 114.743 0.613333 114.743 1.04V11.64C114.743 11.88 114.823 12.0267 114.983 12.08C115.143 12.1067 115.343 12.0133 115.583 11.8C116.596 10.8667 117.489 10.2267 118.263 9.88C119.036 9.53333 119.849 9.36 120.703 9.36C121.956 9.36 122.943 9.78667 123.663 10.64C124.383 11.4667 124.743 12.6933 124.743 14.32V27.32C124.743 27.88 124.823 28.28 124.983 28.52C125.169 28.7333 125.543 28.88 126.103 28.96L126.983 29.08C127.276 29.1333 127.423 29.2933 127.423 29.56C127.423 29.8533 127.263 30 126.943 30H120.223C119.849 30 119.663 29.8533 119.663 29.56C119.663 29.2933 119.809 29.1333 120.103 29.08L120.663 29C121.223 28.92 121.583 28.76 121.743 28.52C121.929 28.28 122.023 27.88 122.023 27.32V14.76C122.023 13.4533 121.783 12.5333 121.303 12C120.823 11.4667 120.143 11.2 119.263 11.2C118.409 11.2 117.636 11.4533 116.943 11.96C116.276 12.44 115.743 13.0933 115.343 13.92C114.943 14.72 114.743 15.6133 114.743 16.6V27.32C114.743 27.88 114.823 28.28 114.983 28.52C115.169 28.76 115.543 28.9067 116.103 28.96L117.183 29.08C117.476 29.1333 117.623 29.2933 117.623 29.56C117.623 29.8533 117.463 30 117.143 30H110.143ZM133.732 30.36C132.798 30.36 132.025 30.04 131.412 29.4C130.825 28.7333 130.532 27.6533 130.532 26.16V11.2C130.532 10.88 130.372 10.72 130.052 10.72H128.892C128.465 10.72 128.252 10.56 128.252 10.24C128.252 10.0267 128.372 9.84 128.612 9.68C129.492 9.06667 130.198 8.41333 130.732 7.72C131.265 7 131.732 6.02666 132.132 4.8C132.318 4.24 132.545 3.96 132.812 3.96C133.105 3.96 133.252 4.17333 133.252 4.6V9.04C133.252 9.41333 133.438 9.6 133.812 9.6H136.412C136.838 9.6 137.052 9.78667 137.052 10.16C137.052 10.5333 136.838 10.72 136.412 10.72H133.812C133.438 10.72 133.252 10.9067 133.252 11.28V26.2C133.252 26.7867 133.345 27.2533 133.532 27.6C133.718 27.92 134.065 28.08 134.572 28.08C135.132 28.08 135.585 27.8 135.932 27.24C136.305 26.68 136.545 25.7733 136.652 24.52C136.705 24.1467 136.878 23.96 137.172 23.96C137.492 23.96 137.652 24.16 137.652 24.56C137.572 26.6133 137.145 28.0933 136.372 29C135.625 29.9067 134.745 30.36 133.732 30.36Z" fill="white"/>
</svg>
