<svg width="182" height="24" viewBox="0 0 182 24" fill="none" xmlns="http://www.w3.org/2000/svg">
<path d="M9.08 23.384C7.88533 23.384 6.79733 23.2453 5.816 22.968C4.856 22.6907 4.01333 22.3173 3.288 21.848C2.584 21.3573 1.99733 20.8133 1.528 20.216C1.05867 19.6187 0.728 18.9893 0.536 18.328L3.576 17.336C3.896 18.2107 4.504 18.968 5.4 19.608C6.296 20.248 7.39467 20.5787 8.696 20.6C10.2747 20.6 11.512 20.2907 12.408 19.672C13.3253 19.032 13.784 18.1893 13.784 17.144C13.784 16.184 13.3893 15.4053 12.6 14.808C11.8107 14.1893 10.7653 13.72 9.464 13.4L6.872 12.728C5.848 12.4507 4.90933 12.056 4.056 11.544C3.224 11.032 2.56267 10.3813 2.072 9.592C1.58133 8.80267 1.336 7.85333 1.336 6.744C1.336 4.696 1.99733 3.096 3.32 1.944C4.664 0.791999 6.59467 0.216 9.112 0.216C10.5627 0.216 11.8213 0.450666 12.888 0.919998C13.9547 1.368 14.8293 1.96533 15.512 2.712C16.216 3.45867 16.7173 4.28 17.016 5.176L13.976 6.2C13.6133 5.24 12.9947 4.472 12.12 3.896C11.2453 3.29867 10.168 3 8.888 3C7.544 3 6.47733 3.32 5.688 3.96C4.92 4.6 4.536 5.47467 4.536 6.584C4.536 7.52267 4.83467 8.248 5.432 8.76C6.05067 9.25067 6.872 9.624 7.896 9.88L10.488 10.52C12.5787 11.032 14.1893 11.8853 15.32 13.08C16.472 14.2533 17.048 15.544 17.048 16.952C17.048 18.168 16.7387 19.2667 16.12 20.248C15.5227 21.208 14.6267 21.976 13.432 22.552C12.2587 23.1067 10.808 23.384 9.08 23.384ZM30.5298 23L30.4018 20.216V14.648C30.4018 13.4747 30.2631 12.4933 29.9858 11.704C29.7298 10.9147 29.3244 10.3173 28.7698 9.912C28.2364 9.50667 27.5218 9.304 26.6258 9.304C25.7938 9.304 25.0684 9.47467 24.4498 9.816C23.8524 10.1573 23.3511 10.6907 22.9458 11.416L20.2578 10.392C20.6418 9.66667 21.1218 9.02667 21.6978 8.472C22.2738 7.896 22.9671 7.448 23.7778 7.128C24.5884 6.78667 25.5378 6.616 26.6258 6.616C28.1404 6.616 29.3991 6.91467 30.4018 7.512C31.4044 8.10933 32.1511 8.97333 32.6418 10.104C33.1538 11.2347 33.3991 12.632 33.3778 14.296L33.3458 23H30.5298ZM25.8258 23.384C23.9271 23.384 22.4444 22.9573 21.3778 22.104C20.3324 21.2293 19.8098 20.024 19.8098 18.488C19.8098 16.8453 20.3538 15.5973 21.4418 14.744C22.5511 13.8693 24.0871 13.432 26.0498 13.432H30.4978V15.832H26.8818C25.4098 15.832 24.3751 16.0667 23.7778 16.536C23.1804 16.984 22.8818 17.6133 22.8818 18.424C22.8818 19.1707 23.1591 19.7573 23.7138 20.184C24.2898 20.5893 25.0791 20.792 26.0818 20.792C26.9564 20.792 27.7138 20.6107 28.3538 20.248C28.9938 19.864 29.4951 19.3307 29.8578 18.648C30.2204 17.9653 30.4018 17.1867 30.4018 16.312H31.4578C31.4578 18.488 30.9884 20.216 30.0498 21.496C29.1324 22.7547 27.7244 23.384 25.8258 23.384ZM37.2057 23V7H40.0538L40.1818 9.208C40.6938 8.35467 41.3338 7.71467 42.1018 7.288C42.8698 6.84 43.7551 6.616 44.7578 6.616C46.0378 6.616 47.1258 6.91467 48.0218 7.512C48.9178 8.088 49.5684 8.97333 49.9738 10.168C50.4431 9.016 51.1044 8.14133 51.9578 7.544C52.8111 6.92533 53.8244 6.616 54.9978 6.616C56.8111 6.616 58.2298 7.21333 59.2538 8.408C60.2778 9.58133 60.7791 11.3947 60.7578 13.848V23H57.7498V14.808C57.7498 13.3573 57.5898 12.2587 57.2698 11.512C56.9711 10.744 56.5658 10.2107 56.0538 9.912C55.5418 9.61333 54.9444 9.45333 54.2618 9.432C53.0671 9.432 52.1391 9.89067 51.4778 10.808C50.8378 11.7253 50.5178 13.016 50.5178 14.68V23H47.4778V14.808C47.4778 13.3573 47.3284 12.2587 47.0298 11.512C46.7311 10.744 46.3151 10.2107 45.7818 9.912C45.2698 9.61333 44.6724 9.45333 43.9898 9.432C42.7951 9.432 41.8671 9.89067 41.2058 10.808C40.5658 11.7253 40.2458 13.016 40.2458 14.68V23H37.2057ZM88.3918 23V0.599998H91.5278V23H88.3918ZM73.1918 23V0.599998H76.3278V23H73.1918ZM75.8158 12.92V10.04H89.3838V12.92H75.8158ZM103.559 23.384C102.002 23.384 100.626 23.032 99.431 22.328C98.2363 21.6027 97.2977 20.6107 96.615 19.352C95.9323 18.0933 95.591 16.6427 95.591 15C95.591 13.3573 95.9323 11.9067 96.615 10.648C97.2977 9.38933 98.2363 8.408 99.431 7.704C100.647 6.97867 102.034 6.616 103.591 6.616C105.063 6.616 106.354 6.98933 107.463 7.736C108.572 8.46133 109.436 9.50667 110.055 10.872C110.695 12.216 111.015 13.8053 111.015 15.64H98.087L98.663 15.16C98.663 16.2907 98.887 17.272 99.335 18.104C99.783 18.936 100.391 19.576 101.159 20.024C101.927 20.4507 102.802 20.664 103.783 20.664C104.85 20.664 105.735 20.4187 106.439 19.928C107.164 19.416 107.73 18.776 108.135 18.008L110.759 19.224C110.332 20.056 109.778 20.792 109.095 21.432C108.412 22.0507 107.602 22.5307 106.663 22.872C105.746 23.2133 104.711 23.384 103.559 23.384ZM98.855 13.72L98.247 13.24H108.359L107.783 13.72C107.783 12.7813 107.591 11.9813 107.207 11.32C106.823 10.6373 106.311 10.1253 105.671 9.784C105.031 9.42133 104.316 9.24 103.527 9.24C102.759 9.24 102.012 9.42133 101.287 9.784C100.583 10.1253 99.9963 10.6267 99.527 11.288C99.079 11.9493 98.855 12.76 98.855 13.72ZM115.874 14.392C115.874 12.664 116.205 11.256 116.866 10.168C117.528 9.08 118.381 8.26933 119.426 7.736C120.472 7.20267 121.57 6.936 122.722 6.936V9.816C121.762 9.816 120.845 9.96533 119.97 10.264C119.117 10.5413 118.413 11.0107 117.858 11.672C117.325 12.312 117.058 13.1867 117.058 14.296L115.874 14.392ZM114.018 23V7H117.058V23H114.018ZM125.174 23V7H128.023L128.151 9.208C128.663 8.35467 129.303 7.71467 130.071 7.288C130.839 6.84 131.724 6.616 132.727 6.616C134.007 6.616 135.095 6.91467 135.991 7.512C136.887 8.088 137.537 8.97333 137.943 10.168C138.412 9.016 139.073 8.14133 139.927 7.544C140.78 6.92533 141.793 6.616 142.967 6.616C144.78 6.616 146.199 7.21333 147.223 8.408C148.247 9.58133 148.748 11.3947 148.727 13.848V23H145.719V14.808C145.719 13.3573 145.559 12.2587 145.239 11.512C144.94 10.744 144.535 10.2107 144.023 9.912C143.511 9.61333 142.913 9.45333 142.231 9.432C141.036 9.432 140.108 9.89067 139.447 10.808C138.807 11.7253 138.487 13.016 138.487 14.68V23H135.447V14.808C135.447 13.3573 135.297 12.2587 134.999 11.512C134.7 10.744 134.284 10.2107 133.751 9.912C133.239 9.61333 132.641 9.45333 131.959 9.432C130.764 9.432 129.836 9.89067 129.175 10.808C128.535 11.7253 128.215 13.016 128.215 14.68V23H125.174ZM159.684 23.384C158.127 23.384 156.751 23.032 155.556 22.328C154.361 21.6027 153.423 20.6107 152.74 19.352C152.057 18.0933 151.716 16.6427 151.716 15C151.716 13.3573 152.057 11.9067 152.74 10.648C153.423 9.38933 154.361 8.408 155.556 7.704C156.772 6.97867 158.159 6.616 159.716 6.616C161.188 6.616 162.479 6.98933 163.588 7.736C164.697 8.46133 165.561 9.50667 166.18 10.872C166.82 12.216 167.14 13.8053 167.14 15.64H154.212L154.788 15.16C154.788 16.2907 155.012 17.272 155.46 18.104C155.908 18.936 156.516 19.576 157.284 20.024C158.052 20.4507 158.927 20.664 159.908 20.664C160.975 20.664 161.86 20.4187 162.564 19.928C163.289 19.416 163.855 18.776 164.26 18.008L166.884 19.224C166.457 20.056 165.903 20.792 165.22 21.432C164.537 22.0507 163.727 22.5307 162.788 22.872C161.871 23.2133 160.836 23.384 159.684 23.384ZM154.98 13.72L154.372 13.24H164.484L163.908 13.72C163.908 12.7813 163.716 11.9813 163.332 11.32C162.948 10.6373 162.436 10.1253 161.796 9.784C161.156 9.42133 160.441 9.24 159.652 9.24C158.884 9.24 158.137 9.42133 157.412 9.784C156.708 10.1253 156.121 10.6267 155.652 11.288C155.204 11.9493 154.98 12.76 154.98 13.72ZM175.871 23.384C174.741 23.384 173.727 23.2133 172.831 22.872C171.957 22.5307 171.21 22.072 170.591 21.496C169.994 20.92 169.546 20.2693 169.247 19.544L171.871 18.392C172.213 19.0533 172.725 19.5973 173.407 20.024C174.09 20.4507 174.847 20.664 175.679 20.664C176.597 20.664 177.354 20.4933 177.951 20.152C178.549 19.8107 178.847 19.3307 178.847 18.712C178.847 18.1147 178.623 17.6453 178.175 17.304C177.727 16.9627 177.077 16.6853 176.223 16.472L174.719 16.088C173.226 15.6827 172.063 15.0747 171.231 14.264C170.421 13.4533 170.015 12.536 170.015 11.512C170.015 9.95467 170.517 8.74933 171.519 7.896C172.522 7.04267 174.005 6.616 175.967 6.616C176.927 6.616 177.802 6.75467 178.591 7.032C179.402 7.30933 180.085 7.704 180.639 8.216C181.215 8.728 181.621 9.336 181.855 10.04L179.295 11.192C179.039 10.552 178.602 10.0827 177.983 9.784C177.365 9.464 176.639 9.304 175.807 9.304C174.954 9.304 174.282 9.496 173.791 9.88C173.301 10.2427 173.055 10.7547 173.055 11.416C173.055 11.7787 173.258 12.1307 173.663 12.472C174.09 12.792 174.709 13.0587 175.519 13.272L177.247 13.688C178.293 13.944 179.157 14.3387 179.839 14.872C180.522 15.384 181.034 15.9707 181.375 16.632C181.717 17.272 181.887 17.944 181.887 18.648C181.887 19.608 181.621 20.4507 181.087 21.176C180.575 21.88 179.861 22.424 178.943 22.808C178.047 23.192 177.023 23.384 175.871 23.384Z" fill="black"/>
</svg>
