<svg width="105" height="33" viewBox="0 0 105 33" fill="none" xmlns="http://www.w3.org/2000/svg">
<path d="M3.59999 26.6H-7.30902e-06L9.91999 1.52H13.44L23.24 26.6H19.64L17.36 20.56H5.87999L3.59999 26.6ZM11.6 4.64C11.3333 5.57333 11.0133 6.56 10.64 7.6C10.2933 8.64 9.93333 9.68 9.55999 10.72L6.99999 17.56H16.24L13.68 10.72C13.1467 9.25333 12.72 8.06667 12.4 7.16C12.1067 6.25333 11.84 5.41333 11.6 4.64ZM29.5062 32.68H26.2262V6.84H29.0662L29.2662 8.6H29.3862C30.2129 7.90667 31.1996 7.37333 32.3462 7C33.4929 6.62667 34.7196 6.44 36.0262 6.44C38.7196 6.44 40.6396 7.24 41.7862 8.84C42.9596 10.44 43.5462 13.0533 43.5462 16.68C43.5462 20.3067 42.8396 22.92 41.4262 24.52C40.0129 26.12 37.6529 26.92 34.3462 26.92C33.3596 26.92 32.4529 26.8533 31.6262 26.72C30.8262 26.5867 30.1196 26.3867 29.5062 26.12V32.68ZM40.2662 16.68C40.2662 13.96 39.8796 12.0667 39.1062 11C38.3596 9.93333 36.9462 9.4 34.8662 9.4C33.8796 9.4 32.9329 9.54667 32.0262 9.84C31.1462 10.1067 30.3062 10.5067 29.5062 11.04V23.08C30.1729 23.3467 30.8529 23.5467 31.5462 23.68C32.2662 23.8133 33.0662 23.88 33.9462 23.88C36.4262 23.88 38.0929 23.3733 38.9462 22.36C39.8262 21.32 40.2662 19.4267 40.2662 16.68ZM65.2269 16.68C65.2269 20.4133 64.5335 23.0533 63.1469 24.6C61.7869 26.1467 59.4402 26.92 56.1069 26.92C52.6669 26.92 50.2802 26.1733 48.9469 24.68C47.6135 23.1867 46.9469 20.52 46.9469 16.68C46.9469 12.92 47.6269 10.28 48.9869 8.76C50.3735 7.21333 52.7469 6.44 56.1069 6.44C59.5469 6.44 61.9202 7.18667 63.2269 8.68C64.5602 10.1733 65.2269 12.84 65.2269 16.68ZM50.2269 16.64C50.2269 19.5733 50.6135 21.52 51.3869 22.48C52.1602 23.4133 53.7335 23.88 56.1069 23.88C58.4002 23.88 59.9469 23.3867 60.7469 22.4C61.5469 21.3867 61.9469 19.4667 61.9469 16.64C61.9469 13.7067 61.5602 11.7733 60.7869 10.84C60.0402 9.88 58.4802 9.4 56.1069 9.4C53.7869 9.4 52.2269 9.89333 51.4269 10.88C50.6269 11.8667 50.2269 13.7867 50.2269 16.64ZM72.8656 -4.76837e-07V26.6H69.5856V-4.76837e-07H72.8656ZM81.4203 -4.76837e-07V26.6H78.1403V-4.76837e-07H81.4203ZM104.055 16.68C104.055 20.4133 103.362 23.0533 101.975 24.6C100.615 26.1467 98.2683 26.92 94.935 26.92C91.495 26.92 89.1083 26.1733 87.775 24.68C86.4417 23.1867 85.775 20.52 85.775 16.68C85.775 12.92 86.455 10.28 87.815 8.76C89.2017 7.21333 91.575 6.44 94.935 6.44C98.375 6.44 100.748 7.18667 102.055 8.68C103.388 10.1733 104.055 12.84 104.055 16.68ZM89.055 16.64C89.055 19.5733 89.4417 21.52 90.215 22.48C90.9883 23.4133 92.5617 23.88 94.935 23.88C97.2283 23.88 98.775 23.3867 99.575 22.4C100.375 21.3867 100.775 19.4667 100.775 16.64C100.775 13.7067 100.388 11.7733 99.615 10.84C98.8683 9.88 97.3083 9.4 94.935 9.4C92.615 9.4 91.055 9.89333 90.255 10.88C89.455 11.8667 89.055 13.7867 89.055 16.64Z" fill="white"/>
</svg>
