<svg width="151" height="38" viewBox="0 0 151 38" fill="none" xmlns="http://www.w3.org/2000/svg">
<path d="M6.13183e-06 28.6L12.88 9.53674e-07H22.76L35.64 28.6H28.68L25.96 22.56H9.68001L6.96001 28.6H6.13183e-06ZM12 17.36H23.64L18.08 5H17.56L12 17.36ZM38.2453 37.6V8H53.0453C56.6187 8 59.4053 8.88 61.4053 10.64C63.4053 12.4 64.4053 14.9467 64.4053 18.28C64.4053 21.64 63.4053 24.2 61.4053 25.96C59.4053 27.72 56.6187 28.6 53.0453 28.6H44.0453V37.6H38.2453ZM53.0453 12.6H44.0453V24H53.0453C54.7787 24 56.0987 23.5333 57.0053 22.6C57.9387 21.64 58.4053 20.2 58.4053 18.28C58.4053 16.3867 57.9387 14.9733 57.0053 14.04C56.0987 13.08 54.7787 12.6 53.0453 12.6ZM78.5709 28.8C74.9976 28.8 72.2109 27.92 70.2109 26.16C68.2109 24.3733 67.2109 21.76 67.2109 18.32C67.2109 14.8533 68.2109 12.24 70.2109 10.48C72.2109 8.69333 74.9976 7.8 78.5709 7.8H85.9709C89.5443 7.8 92.3309 8.69333 94.3309 10.48C96.3309 12.24 97.3309 14.8533 97.3309 18.32C97.3309 21.76 96.3309 24.3733 94.3309 26.16C92.3309 27.92 89.5443 28.8 85.9709 28.8H78.5709ZM78.5709 24.2H85.9709C87.7043 24.2 89.0243 23.72 89.9309 22.76C90.8643 21.8 91.3309 20.32 91.3309 18.32C91.3309 16.2933 90.8643 14.8 89.9309 13.84C89.0243 12.88 87.7043 12.4 85.9709 12.4H78.5709C76.8376 12.4 75.5043 12.88 74.5709 13.84C73.6643 14.8 73.2109 16.2933 73.2109 18.32C73.2109 20.32 73.6643 21.8 74.5709 22.76C75.5043 23.72 76.8376 24.2 78.5709 24.2ZM100.941 28.6V9.53674e-07H106.741V28.6H100.941ZM111.136 28.6V9.53674e-07H116.936V28.6H111.136ZM131.891 28.8C128.318 28.8 125.531 27.92 123.531 26.16C121.531 24.3733 120.531 21.76 120.531 18.32C120.531 14.8533 121.531 12.24 123.531 10.48C125.531 8.69333 128.318 7.8 131.891 7.8H139.291C142.865 7.8 145.651 8.69333 147.651 10.48C149.651 12.24 150.651 14.8533 150.651 18.32C150.651 21.76 149.651 24.3733 147.651 26.16C145.651 27.92 142.865 28.8 139.291 28.8H131.891ZM131.891 24.2H139.291C141.025 24.2 142.345 23.72 143.251 22.76C144.185 21.8 144.651 20.32 144.651 18.32C144.651 16.2933 144.185 14.8 143.251 13.84C142.345 12.88 141.025 12.4 139.291 12.4H131.891C130.158 12.4 128.825 12.88 127.891 13.84C126.985 14.8 126.531 16.2933 126.531 18.32C126.531 20.32 126.985 21.8 127.891 22.76C128.825 23.72 130.158 24.2 131.891 24.2Z" fill="white"/>
</svg>
