<svg width="178" height="36" viewBox="0 0 178 36" fill="none" xmlns="http://www.w3.org/2000/svg">
<path d="M10.3906 10.8008C10.3906 10.9701 10.4036 11.1784 10.4297 11.4258C10.4557 11.6732 10.4948 11.9206 10.5469 12.168C10.612 12.4023 10.6966 12.6237 10.8008 12.832C10.9049 13.0404 11.0286 13.1966 11.1719 13.3008H11.9141C12.3828 13.3008 12.7865 13.2747 13.125 13.2227C13.4766 13.1706 13.8737 13.0534 14.3164 12.8711C14.7331 12.6758 15.1367 12.4805 15.5273 12.2852C15.931 12.0898 16.2956 11.8685 16.6211 11.6211C16.9596 11.3607 17.2461 11.0547 17.4805 10.7031C17.7148 10.3516 17.8841 9.92188 17.9883 9.41406C18.0013 9.375 18.0143 9.30339 18.0273 9.19922C18.0534 9.08203 18.0729 8.95833 18.0859 8.82812C18.112 8.69792 18.1315 8.57422 18.1445 8.45703C18.1706 8.32682 18.1901 8.24219 18.2031 8.20312C18.2031 8.16406 18.2096 8.07943 18.2227 7.94922C18.2487 7.81901 18.2747 7.68229 18.3008 7.53906C18.3398 7.39583 18.3724 7.25911 18.3984 7.12891C18.4245 6.9987 18.444 6.92057 18.457 6.89453V6.01562C18.457 5.80729 18.444 5.59896 18.418 5.39062C18.3919 5.18229 18.3203 4.99349 18.2031 4.82422C18.138 4.73307 18.0534 4.61589 17.9492 4.47266C17.8581 4.31641 17.7604 4.16667 17.6562 4.02344C17.5651 3.88021 17.4805 3.75651 17.4023 3.65234C17.3242 3.54818 17.2721 3.48958 17.2461 3.47656C16.9466 3.0599 16.5885 2.73438 16.1719 2.5C15.7552 2.26562 15.3255 2.03776 14.8828 1.81641C14.8568 1.79036 14.7852 1.76432 14.668 1.73828C14.5508 1.69922 14.4661 1.66667 14.4141 1.64062C14.0234 1.5625 13.6654 1.51042 13.3398 1.48438C13.0273 1.44531 12.6497 1.41276 12.207 1.38672H12.1484C11.7969 1.38672 11.5104 1.45182 11.2891 1.58203C11.0807 1.69922 10.9245 1.86198 10.8203 2.07031C10.7161 2.26562 10.6445 2.5 10.6055 2.77344C10.5794 3.03385 10.5664 3.30078 10.5664 3.57422C10.5664 3.73047 10.5664 3.88672 10.5664 4.04297C10.5794 4.19922 10.5859 4.34896 10.5859 4.49219C10.5859 4.55729 10.5794 4.64193 10.5664 4.74609C10.5664 4.85026 10.5664 4.9349 10.5664 5C10.5664 5.02604 10.5599 5.07161 10.5469 5.13672C10.5339 5.20182 10.5143 5.27344 10.4883 5.35156C10.4753 5.41667 10.4622 5.48177 10.4492 5.54688C10.4362 5.61198 10.4297 5.65104 10.4297 5.66406C10.4167 5.6901 10.4036 5.76172 10.3906 5.87891C10.3906 5.98307 10.3906 6.11328 10.3906 6.26953C10.3906 6.41276 10.3906 6.5625 10.3906 6.71875C10.3906 6.875 10.3906 6.9987 10.3906 7.08984C10.3906 7.18099 10.3906 7.30469 10.3906 7.46094C10.3906 7.61719 10.3906 7.77344 10.3906 7.92969C10.3906 8.08594 10.3906 8.22266 10.3906 8.33984C10.4036 8.44401 10.4167 8.5026 10.4297 8.51562C10.4297 8.52865 10.4297 8.56771 10.4297 8.63281C10.4427 8.6849 10.4622 8.74349 10.4883 8.80859L10.5664 9.08203V9.17969C10.5664 9.45312 10.5339 9.72656 10.4688 10C10.4167 10.2734 10.3906 10.5404 10.3906 10.8008ZM10.5664 25.7812C10.5664 25.8333 10.5859 25.8984 10.625 25.9766C10.6641 26.0547 10.6966 26.1133 10.7227 26.1523C11.1133 26.6211 11.556 26.9076 12.0508 27.0117C12.5586 27.1159 13.1185 27.168 13.7305 27.168C14.1211 27.168 14.4727 27.1484 14.7852 27.1094C15.1107 27.0573 15.4167 26.9792 15.7031 26.875C16.0026 26.7708 16.2956 26.6471 16.582 26.5039C16.8815 26.3477 17.207 26.1589 17.5586 25.9375C17.5716 25.9375 17.6107 25.9245 17.6758 25.8984C17.7409 25.8724 17.8125 25.8464 17.8906 25.8203C17.9688 25.7812 18.0339 25.7487 18.0859 25.7227C18.151 25.6966 18.1901 25.6771 18.2031 25.6641C18.2292 25.625 18.2747 25.5729 18.3398 25.5078C18.418 25.4427 18.4961 25.3711 18.5742 25.293C18.6523 25.2148 18.724 25.1432 18.7891 25.0781C18.8672 25 18.9193 24.9479 18.9453 24.9219C19.2578 24.4531 19.4792 23.9193 19.6094 23.3203C19.7526 22.7083 19.8633 22.1419 19.9414 21.6211C19.9414 21.582 19.9284 21.5039 19.9023 21.3867C19.8893 21.2565 19.8698 21.1263 19.8438 20.9961C19.8307 20.8529 19.8177 20.7292 19.8047 20.625C19.7917 20.5208 19.7852 20.4557 19.7852 20.4297V19.3555C19.7461 19.1081 19.6875 18.8607 19.6094 18.6133C19.5312 18.3529 19.4336 18.1055 19.3164 17.8711C19.1992 17.6367 19.056 17.4219 18.8867 17.2266C18.7174 17.0312 18.5221 16.862 18.3008 16.7188C18.1836 16.6667 18.0469 16.5951 17.8906 16.5039C17.7344 16.3997 17.5781 16.2956 17.4219 16.1914C17.2656 16.0742 17.1159 15.957 16.9727 15.8398C16.8294 15.7227 16.7188 15.6185 16.6406 15.5273C16.4062 15.4362 16.1393 15.3385 15.8398 15.2344C15.5404 15.1302 15.2279 15.0326 14.9023 14.9414C14.5768 14.8372 14.2513 14.7461 13.9258 14.668C13.6133 14.5898 13.3333 14.5182 13.0859 14.4531H12.7539C12.2982 14.4531 11.9336 14.4857 11.6602 14.5508C11.3867 14.6159 11.1719 14.7396 11.0156 14.9219C10.8724 15.0911 10.7682 15.3255 10.7031 15.625C10.638 15.9115 10.5924 16.276 10.5664 16.7188C10.5534 16.8229 10.5404 17.0117 10.5273 17.2852C10.5143 17.5586 10.5013 17.8451 10.4883 18.1445C10.4753 18.444 10.4622 18.7305 10.4492 19.0039C10.4362 19.2643 10.4297 19.4401 10.4297 19.5312C10.4297 19.5312 10.4232 19.5768 10.4102 19.668C10.4102 19.7591 10.4102 19.8633 10.4102 19.9805C10.4102 20.0846 10.4036 20.1888 10.3906 20.293C10.3906 20.3971 10.3906 20.4753 10.3906 20.5273C10.3906 20.6055 10.3906 20.7031 10.3906 20.8203C10.4036 20.9375 10.4102 21.0547 10.4102 21.1719C10.4102 21.276 10.4102 21.3737 10.4102 21.4648C10.4232 21.556 10.4297 21.6081 10.4297 21.6211C10.4297 21.7773 10.4362 22.0508 10.4492 22.4414C10.4622 22.832 10.4753 23.2487 10.4883 23.6914C10.5013 24.1341 10.5143 24.5573 10.5273 24.9609C10.5404 25.3516 10.5534 25.625 10.5664 25.7812ZM1.73828 28.0078V27.793C1.73828 27.6367 1.77734 27.487 1.85547 27.3438C1.94661 27.1875 2.05729 27.0508 2.1875 26.9336C2.33073 26.8164 2.48047 26.7253 2.63672 26.6602C2.79297 26.582 2.94271 26.543 3.08594 26.543C3.30729 26.5299 3.52214 26.5169 3.73047 26.5039C3.95182 26.4909 4.16667 26.4844 4.375 26.4844C4.64844 26.4844 4.90885 26.4909 5.15625 26.5039C5.41667 26.5169 5.66406 26.5299 5.89844 26.543C6.13281 26.569 6.27604 26.5104 6.32812 26.3672C6.39323 26.224 6.42578 26.0482 6.42578 25.8398C6.42578 25.7747 6.41927 25.6901 6.40625 25.5859C6.40625 25.4688 6.40625 25.3971 6.40625 25.3711C6.40625 25.0716 6.3737 24.7721 6.30859 24.4727C6.25651 24.1602 6.23047 23.8411 6.23047 23.5156V23.418C6.25651 23.3919 6.28906 23.2943 6.32812 23.125C6.38021 22.9557 6.40625 22.8581 6.40625 22.832V22.6562C6.40625 22.6302 6.39323 22.5456 6.36719 22.4023C6.35417 22.2591 6.33464 22.1094 6.30859 21.9531C6.29557 21.7839 6.27604 21.6211 6.25 21.4648C6.23698 21.3086 6.23047 21.2109 6.23047 21.1719V18.0273C6.16536 17.8841 6.1263 17.7344 6.11328 17.5781C6.10026 17.4089 6.09375 17.2461 6.09375 17.0898C6.09375 17.0247 6.10026 16.9206 6.11328 16.7773C6.1263 16.6341 6.13281 16.5495 6.13281 16.5234C6.15885 16.4193 6.1849 16.2826 6.21094 16.1133C6.25 15.931 6.26953 15.7747 6.26953 15.6445C6.26953 15.4622 6.26302 15.2865 6.25 15.1172C6.23698 14.9349 6.23047 14.8177 6.23047 14.7656C6.24349 14.7396 6.25651 14.6615 6.26953 14.5312C6.29557 14.388 6.3151 14.2448 6.32812 14.1016C6.35417 13.9453 6.3737 13.8021 6.38672 13.6719C6.39974 13.5417 6.40625 13.4635 6.40625 13.4375V13.3008C6.38021 13.2617 6.36068 13.2096 6.34766 13.1445C6.33464 13.0664 6.32161 12.9883 6.30859 12.9102C6.29557 12.832 6.28255 12.7604 6.26953 12.6953C6.25651 12.6302 6.24349 12.5846 6.23047 12.5586C6.23047 12.4023 6.23047 12.1875 6.23047 11.9141C6.24349 11.6406 6.25 11.3281 6.25 10.9766C6.25 10.612 6.25 10.2279 6.25 9.82422C6.26302 9.40755 6.26953 8.99089 6.26953 8.57422C6.26953 8.15755 6.26302 7.7474 6.25 7.34375C6.25 6.9401 6.25 6.5625 6.25 6.21094C6.25 5.85938 6.24349 5.54688 6.23047 5.27344C6.23047 5 6.23047 4.79167 6.23047 4.64844C6.23047 4.59635 6.22396 4.49219 6.21094 4.33594C6.19792 4.17969 6.1849 4.01693 6.17188 3.84766C6.17188 3.66536 6.16536 3.49609 6.15234 3.33984C6.13932 3.18359 6.13281 3.07943 6.13281 3.02734C6.10677 2.85807 5.99609 2.6888 5.80078 2.51953C5.60547 2.35026 5.42318 2.26562 5.25391 2.26562C4.86328 2.26562 4.46615 2.28516 4.0625 2.32422C3.67188 2.36328 3.26823 2.38281 2.85156 2.38281C2.61719 2.38281 2.40885 2.38281 2.22656 2.38281C2.04427 2.36979 1.875 2.33724 1.71875 2.28516C1.57552 2.23307 1.44531 2.14844 1.32812 2.03125C1.22396 1.91406 1.1263 1.73828 1.03516 1.50391V1.44531C1.03516 1.3151 1.06771 1.19792 1.13281 1.09375C1.21094 0.989583 1.30208 0.904948 1.40625 0.839844C1.51042 0.761719 1.62109 0.709635 1.73828 0.683594C1.85547 0.644531 1.96615 0.625 2.07031 0.625C2.1224 0.625 2.2526 0.61849 2.46094 0.605469C2.66927 0.592448 2.89714 0.579427 3.14453 0.566406C3.39193 0.553385 3.63281 0.540365 3.86719 0.527344C4.11458 0.514323 4.30339 0.507812 4.43359 0.507812H4.88281C5.09115 0.507812 5.29297 0.533854 5.48828 0.585938C5.68359 0.638021 5.89844 0.651042 6.13281 0.625C6.97917 0.546875 7.82552 0.47526 8.67188 0.410156C9.53125 0.332031 10.4102 0.292969 11.3086 0.292969C11.7773 0.292969 12.2396 0.332031 12.6953 0.410156C13.151 0.47526 13.6068 0.507812 14.0625 0.507812C14.1276 0.507812 14.2448 0.47526 14.4141 0.410156C14.5833 0.332031 14.694 0.292969 14.7461 0.292969C14.7721 0.292969 14.8307 0.30599 14.9219 0.332031C15.026 0.345052 15.1367 0.371094 15.2539 0.410156C15.3711 0.436198 15.4753 0.46224 15.5664 0.488281C15.6706 0.501302 15.7357 0.507812 15.7617 0.507812C15.8138 0.507812 15.9635 0.501302 16.2109 0.488281C16.4583 0.47526 16.7057 0.46875 16.9531 0.46875C17.0573 0.46875 17.1484 0.47526 17.2266 0.488281C17.3177 0.501302 17.3828 0.507812 17.4219 0.507812C17.6693 0.520833 17.8776 0.559896 18.0469 0.625C18.2161 0.677083 18.3789 0.742188 18.5352 0.820312C18.7044 0.898438 18.8737 0.989583 19.043 1.09375C19.2253 1.1849 19.4401 1.28255 19.6875 1.38672C19.7005 1.39974 19.7331 1.41276 19.7852 1.42578C19.8372 1.4388 19.8893 1.45833 19.9414 1.48438C20.0065 1.54948 20.0781 1.59505 20.1562 1.62109C20.2474 1.64714 20.3255 1.69271 20.3906 1.75781C20.7943 2.13542 21.1523 2.53906 21.4648 2.96875C21.7904 3.39844 22.0312 3.89323 22.1875 4.45312C22.1875 4.47917 22.194 4.53776 22.207 4.62891C22.2201 4.72005 22.2331 4.82422 22.2461 4.94141C22.2721 5.04557 22.2917 5.14323 22.3047 5.23438C22.3177 5.32552 22.3242 5.39062 22.3242 5.42969C22.3503 5.44271 22.3763 5.49479 22.4023 5.58594C22.4414 5.66406 22.474 5.75521 22.5 5.85938C22.5391 5.95052 22.5651 6.04167 22.5781 6.13281C22.6042 6.21094 22.6172 6.25651 22.6172 6.26953C22.6172 6.29557 22.6237 6.36719 22.6367 6.48438C22.6497 6.60156 22.6562 6.69271 22.6562 6.75781C22.6562 7.00521 22.6302 7.33073 22.5781 7.73438C22.526 8.125 22.4479 8.53516 22.3438 8.96484C22.2526 9.38151 22.1419 9.78516 22.0117 10.1758C21.8815 10.5534 21.7383 10.8398 21.582 11.0352C21.4779 11.1914 21.3542 11.3281 21.2109 11.4453C21.0807 11.5625 20.931 11.6732 20.7617 11.7773C20.6055 11.8685 20.4427 11.9596 20.2734 12.0508C20.1042 12.1419 19.9414 12.2461 19.7852 12.3633C19.7852 12.3893 19.7461 12.4544 19.668 12.5586C19.5898 12.6497 19.5247 12.6953 19.4727 12.6953C19.3945 12.7474 19.2839 12.7995 19.1406 12.8516C19.0104 12.9036 18.8802 12.9688 18.75 13.0469C18.6328 13.112 18.5286 13.1966 18.4375 13.3008C18.3464 13.3919 18.3008 13.5156 18.3008 13.6719V13.8867C18.3268 13.9128 18.3789 13.9583 18.457 14.0234C18.5352 14.0755 18.6198 14.1341 18.7109 14.1992C18.8151 14.2513 18.9128 14.3034 19.0039 14.3555C19.0951 14.4076 19.1602 14.4401 19.1992 14.4531C19.2383 14.4792 19.3164 14.5247 19.4336 14.5898C19.5508 14.6419 19.6745 14.7005 19.8047 14.7656C19.9479 14.8307 20.0781 14.8958 20.1953 14.9609C20.3125 15.026 20.3776 15.0716 20.3906 15.0977C21.6276 15.8138 22.5326 16.6536 23.1055 17.6172C23.6784 18.5677 23.9648 19.7526 23.9648 21.1719C23.9648 21.6276 23.9193 22.0182 23.8281 22.3438C23.737 22.6562 23.6523 23.0143 23.5742 23.418C23.5482 23.431 23.5352 23.5026 23.5352 23.6328C23.5352 23.763 23.5352 23.8477 23.5352 23.8867C23.4831 24.1081 23.418 24.349 23.3398 24.6094C23.2747 24.8568 23.1901 25.1042 23.0859 25.3516C22.9818 25.599 22.8516 25.8268 22.6953 26.0352C22.5521 26.2435 22.3828 26.4128 22.1875 26.543C22.1484 26.556 22.0443 26.6146 21.875 26.7188C21.7188 26.8099 21.5365 26.9206 21.3281 27.0508C21.1328 27.181 20.931 27.3177 20.7227 27.4609C20.5273 27.5911 20.3711 27.6953 20.2539 27.7734C20.2018 27.7734 20.1367 27.793 20.0586 27.832C19.9805 27.8581 19.9414 27.8841 19.9414 27.9102C19.9284 27.9102 19.8763 27.9167 19.7852 27.9297C19.707 27.9427 19.6159 27.9557 19.5117 27.9688C19.4076 27.9688 19.3099 27.9753 19.2188 27.9883C19.1276 28.0013 19.069 28.0078 19.043 28.0078C19.0169 28.0208 18.9648 28.0469 18.8867 28.0859C18.8086 28.125 18.7174 28.1641 18.6133 28.2031C18.5221 28.2422 18.431 28.2747 18.3398 28.3008C18.2617 28.3268 18.2161 28.3398 18.2031 28.3398C18.1641 28.3398 18.0924 28.3464 17.9883 28.3594C17.8841 28.3724 17.7604 28.3789 17.6172 28.3789C17.474 28.3789 17.3242 28.3789 17.168 28.3789C17.0247 28.3659 16.8815 28.3594 16.7383 28.3594C16.6081 28.3594 16.4909 28.3594 16.3867 28.3594C16.2956 28.3464 16.2305 28.3398 16.1914 28.3398C16.1393 28.3529 16.0026 28.3724 15.7812 28.3984C15.5729 28.4245 15.3451 28.4505 15.0977 28.4766C14.8503 28.5156 14.6159 28.5482 14.3945 28.5742C14.1862 28.6003 14.056 28.6133 14.0039 28.6133C13.9779 28.6393 13.8867 28.6523 13.7305 28.6523C13.5872 28.6523 13.4635 28.6523 13.3594 28.6523C13.0599 28.6523 12.8125 28.6198 12.6172 28.5547C12.4349 28.5026 12.2005 28.4766 11.9141 28.4766H7.61719C7.55208 28.4766 7.44792 28.4831 7.30469 28.4961C7.16146 28.5091 7.01172 28.5221 6.85547 28.5352C6.69922 28.5482 6.54948 28.5612 6.40625 28.5742C6.27604 28.5872 6.1849 28.6003 6.13281 28.6133C6.10677 28.6393 6.02214 28.6719 5.87891 28.7109C5.7487 28.763 5.67708 28.7891 5.66406 28.7891C5.625 28.7891 5.54036 28.763 5.41016 28.7109C5.27995 28.6719 5.20182 28.6393 5.17578 28.6133C4.88932 28.5742 4.59635 28.5547 4.29688 28.5547C4.01042 28.5677 3.71745 28.5612 3.41797 28.5352C3.13151 28.5221 2.84505 28.4766 2.55859 28.3984C2.28516 28.3203 2.01172 28.1901 1.73828 28.0078Z" fill="white"/>
<path d="M30.7812 15.5664C30.7812 15.6445 30.8138 15.7227 30.8789 15.8008C30.957 15.8789 31.0417 15.957 31.1328 16.0352C31.237 16.1003 31.3346 16.1589 31.4258 16.2109C31.5299 16.25 31.6146 16.2826 31.6797 16.3086H35.7031C35.8073 16.2956 35.9831 16.276 36.2305 16.25C36.4909 16.224 36.7578 16.1979 37.0312 16.1719C37.3177 16.1328 37.5846 16.0938 37.832 16.0547C38.0924 16.0156 38.2747 15.9766 38.3789 15.9375C38.4049 15.9115 38.4375 15.8529 38.4766 15.7617C38.5286 15.6576 38.5547 15.5924 38.5547 15.5664V15.2344C38.5547 15.1953 38.5482 15.1237 38.5352 15.0195C38.5221 14.9023 38.5026 14.7852 38.4766 14.668C38.4635 14.5378 38.444 14.4141 38.418 14.2969C38.4049 14.1797 38.3919 14.0951 38.3789 14.043C38.2487 13.9518 38.138 13.8411 38.0469 13.7109C37.9557 13.5807 37.8581 13.457 37.7539 13.3398C37.6628 13.2096 37.5586 13.0924 37.4414 12.9883C37.3372 12.8841 37.207 12.7995 37.0508 12.7344C36.9596 12.6953 36.8359 12.6432 36.6797 12.5781C36.5365 12.5 36.3932 12.4284 36.25 12.3633C36.1068 12.2982 35.9831 12.2396 35.8789 12.1875C35.7747 12.1354 35.7161 12.1029 35.7031 12.0898H35.4102C35.319 12.1029 35.2018 12.1224 35.0586 12.1484C34.9154 12.1745 34.7721 12.2005 34.6289 12.2266C34.4857 12.2396 34.362 12.2526 34.2578 12.2656C34.1536 12.2786 34.0951 12.2852 34.082 12.2852C34.043 12.2852 33.9779 12.3112 33.8867 12.3633C33.8086 12.4023 33.7174 12.4479 33.6133 12.5C33.5221 12.5521 33.431 12.6042 33.3398 12.6562C33.2617 12.6953 33.2096 12.7214 33.1836 12.7344C32.9622 12.8125 32.7474 12.8711 32.5391 12.9102C32.3438 12.9492 32.1745 13.0794 32.0312 13.3008C32.0052 13.3398 31.9466 13.4375 31.8555 13.5938C31.7643 13.75 31.7057 13.8477 31.6797 13.8867C31.6016 14.0299 31.5104 14.1667 31.4062 14.2969C31.3021 14.4141 31.2044 14.5378 31.1133 14.668C31.0221 14.7852 30.944 14.9219 30.8789 15.0781C30.8138 15.2214 30.7812 15.3841 30.7812 15.5664ZM27.832 19.9609C27.8451 19.8958 27.8581 19.7721 27.8711 19.5898C27.8971 19.4076 27.9102 19.2188 27.9102 19.0234C27.9232 18.8151 27.9362 18.6198 27.9492 18.4375C27.9622 18.2552 27.9818 18.1315 28.0078 18.0664C28.0208 17.832 28.0534 17.5716 28.1055 17.2852C28.1706 16.9857 28.2422 16.6862 28.3203 16.3867C28.4115 16.0872 28.5156 15.8008 28.6328 15.5273C28.75 15.2409 28.8802 14.9935 29.0234 14.7852C29.0365 14.7721 29.0625 14.7461 29.1016 14.707C29.1536 14.6549 29.2057 14.6094 29.2578 14.5703C29.3099 14.5182 29.3555 14.4727 29.3945 14.4336C29.4466 14.3945 29.4792 14.3685 29.4922 14.3555C29.5052 14.3424 29.5182 14.3034 29.5312 14.2383C29.5573 14.1732 29.5833 14.1081 29.6094 14.043C29.6354 13.9779 29.6549 13.9193 29.668 13.8672C29.694 13.8021 29.7135 13.763 29.7266 13.75C29.9479 13.3724 30.2214 13.0599 30.5469 12.8125C30.8724 12.5651 31.2044 12.3242 31.543 12.0898C31.7773 11.9466 31.9922 11.8164 32.1875 11.6992C32.3958 11.569 32.5977 11.4583 32.793 11.3672C33.0013 11.263 33.2161 11.1719 33.4375 11.0938C33.6719 11.0156 33.9323 10.9505 34.2188 10.8984C34.2448 10.8984 34.349 10.8919 34.5312 10.8789C34.7266 10.8659 34.9479 10.8594 35.1953 10.8594C35.4427 10.8464 35.6966 10.8333 35.957 10.8203C36.2174 10.8073 36.4258 10.8008 36.582 10.8008H36.9336C37.3633 10.9049 37.7669 11.0286 38.1445 11.1719C38.5352 11.3021 38.8932 11.4714 39.2188 11.6797C39.5573 11.888 39.8633 12.1419 40.1367 12.4414C40.4232 12.7279 40.6836 13.0729 40.918 13.4766C40.931 13.5026 40.9505 13.5807 40.9766 13.7109C41.0026 13.8281 41.0286 13.8867 41.0547 13.8867C41.1328 14.082 41.224 14.2578 41.3281 14.4141C41.4453 14.5703 41.5495 14.7266 41.6406 14.8828C41.7448 15.026 41.8294 15.1823 41.8945 15.3516C41.9596 15.5078 41.9922 15.6901 41.9922 15.8984C41.9922 16.1458 41.888 16.3867 41.6797 16.6211C41.4844 16.8424 41.3281 17.0182 41.2109 17.1484C41.1328 17.1745 40.9896 17.207 40.7812 17.2461C40.5859 17.2852 40.3646 17.3242 40.1172 17.3633C39.8828 17.4023 39.6419 17.4349 39.3945 17.4609C39.1602 17.487 38.9648 17.5 38.8086 17.5C38.7565 17.5 38.6393 17.5 38.457 17.5C38.2878 17.487 38.0794 17.474 37.832 17.4609C37.5977 17.4479 37.3438 17.4414 37.0703 17.4414C36.7969 17.4284 36.5365 17.4219 36.2891 17.4219C36.0286 17.4219 35.8008 17.4349 35.6055 17.4609C35.4232 17.487 35.2995 17.5 35.2344 17.5C35.2214 17.5 35.1628 17.5065 35.0586 17.5195C34.9674 17.5326 34.8633 17.5521 34.7461 17.5781C34.6289 17.5911 34.5182 17.6042 34.4141 17.6172C34.3099 17.6302 34.2448 17.6367 34.2188 17.6367C34.0755 17.6497 33.8672 17.6562 33.5938 17.6562C33.3203 17.6562 33.0143 17.6562 32.6758 17.6562C32.3372 17.6562 32.0182 17.6562 31.7188 17.6562C31.4323 17.6562 31.2305 17.6497 31.1133 17.6367C31.0091 17.6497 30.9375 17.6888 30.8984 17.7539C30.8594 17.806 30.8268 17.8646 30.8008 17.9297C30.8008 17.9297 30.7943 17.9622 30.7812 18.0273C30.7812 18.0794 30.7812 18.1445 30.7812 18.2227C30.7812 18.3008 30.7812 18.3854 30.7812 18.4766C30.7812 18.5547 30.7812 18.6198 30.7812 18.6719C30.7812 18.737 30.7812 18.8346 30.7812 18.9648C30.7812 19.0951 30.7812 19.2253 30.7812 19.3555C30.7812 19.4727 30.7812 19.5833 30.7812 19.6875C30.7943 19.7917 30.8008 19.8503 30.8008 19.8633C30.8138 20.1367 30.918 20.5078 31.1133 20.9766C31.3086 21.4323 31.5365 21.8945 31.7969 22.3633C32.0703 22.832 32.3568 23.2682 32.6562 23.6719C32.9688 24.0625 33.2552 24.3229 33.5156 24.4531C33.5677 24.4922 33.6914 24.5638 33.8867 24.668C34.082 24.7721 34.2904 24.8828 34.5117 25C34.7331 25.1042 34.9414 25.2083 35.1367 25.3125C35.3451 25.4036 35.4883 25.4688 35.5664 25.5078C35.6315 25.5078 35.6771 25.5013 35.7031 25.4883C35.7422 25.4753 35.7878 25.4688 35.8398 25.4688C36.1003 25.4688 36.3411 25.5013 36.5625 25.5664C36.7969 25.6315 37.0443 25.6641 37.3047 25.6641H37.5977C37.6628 25.6641 37.7344 25.6576 37.8125 25.6445L39.7656 24.6289C39.8177 24.4727 39.8828 24.3164 39.9609 24.1602C40.0391 23.9909 40.1302 23.8411 40.2344 23.7109C40.3516 23.5807 40.4818 23.4766 40.625 23.3984C40.7812 23.3203 40.9701 23.2812 41.1914 23.2812H41.2109C41.237 23.3073 41.2695 23.3529 41.3086 23.418C41.3607 23.4831 41.3867 23.5221 41.3867 23.5352C41.3867 23.5612 41.3607 23.6328 41.3086 23.75C41.2695 23.8672 41.237 23.9583 41.2109 24.0234C41.0677 24.401 40.918 24.7591 40.7617 25.0977C40.6055 25.4362 40.4102 25.7747 40.1758 26.1133C40.1497 26.1393 40.1042 26.1849 40.0391 26.25C39.974 26.3151 39.9023 26.3867 39.8242 26.4648C39.7461 26.543 39.668 26.6211 39.5898 26.6992C39.5247 26.7643 39.4727 26.8164 39.4336 26.8555C39.4076 26.8685 39.3555 26.8945 39.2773 26.9336C39.2122 26.9727 39.1341 27.0182 39.043 27.0703C38.9648 27.1094 38.8932 27.1549 38.8281 27.207C38.763 27.2461 38.724 27.2721 38.7109 27.2852C38.4115 27.4674 38.1445 27.6302 37.9102 27.7734C37.6888 27.9167 37.4609 28.0404 37.2266 28.1445C37.0052 28.2487 36.7643 28.3333 36.5039 28.3984C36.2565 28.4505 35.9701 28.4766 35.6445 28.4766C34.7852 28.4766 33.9648 28.3789 33.1836 28.1836C32.4023 27.9753 31.6927 27.6693 31.0547 27.2656C30.4167 26.849 29.8698 26.3281 29.4141 25.7031C28.9714 25.0651 28.6589 24.3099 28.4766 23.4375C28.4245 23.2943 28.3659 23.0794 28.3008 22.793C28.2357 22.5065 28.1706 22.2135 28.1055 21.9141C28.0404 21.6146 27.9818 21.3411 27.9297 21.0938C27.8776 20.8333 27.8451 20.6706 27.832 20.6055V19.9609Z" fill="white"/>
<path d="M52.1289 19.1211C52.0898 19.1211 51.9922 19.1602 51.8359 19.2383C51.6927 19.3164 51.5365 19.4076 51.3672 19.5117C51.2109 19.6029 51.0547 19.7005 50.8984 19.8047C50.7552 19.8958 50.6576 19.9609 50.6055 20C50.5794 20.0391 50.5013 20.1237 50.3711 20.2539C50.2409 20.3841 50.0977 20.5273 49.9414 20.6836C49.7982 20.8268 49.6615 20.9635 49.5312 21.0938C49.401 21.224 49.3229 21.3086 49.2969 21.3477C49.2448 21.3477 49.1797 21.3737 49.1016 21.4258L48.9844 21.4844C48.9193 21.5495 48.8281 21.7057 48.7109 21.9531C48.5938 22.1875 48.4961 22.4349 48.418 22.6953C48.3268 22.9557 48.2747 23.151 48.2617 23.2812C48.2487 23.4115 48.2422 23.5872 48.2422 23.8086C48.2422 24.1341 48.2812 24.4336 48.3594 24.707C48.4375 24.9805 48.6458 25.2018 48.9844 25.3711C49.0365 25.3971 49.1081 25.4297 49.1992 25.4688C49.3034 25.4948 49.401 25.5208 49.4922 25.5469C49.5964 25.5729 49.6875 25.599 49.7656 25.625C49.8438 25.638 49.9023 25.6445 49.9414 25.6445C50.0065 25.6445 50.0911 25.6445 50.1953 25.6445C50.2995 25.6315 50.4102 25.6185 50.5273 25.6055C50.6445 25.5924 50.7487 25.5794 50.8398 25.5664C50.944 25.5534 51.0221 25.5404 51.0742 25.5273C51.556 25.4232 51.9401 25.2669 52.2266 25.0586C52.513 24.8372 52.7148 24.4922 52.832 24.0234C52.8581 23.9062 52.8971 23.7565 52.9492 23.5742C53.0013 23.3789 53.0469 23.1901 53.0859 23.0078C53.138 22.8125 53.1836 22.6432 53.2227 22.5C53.2617 22.3438 53.2812 22.2526 53.2812 22.2266C53.3073 22.2266 53.3203 22.2005 53.3203 22.1484C53.3333 22.0833 53.3398 22.0443 53.3398 22.0312C53.3398 21.9922 53.3333 21.9466 53.3203 21.8945C53.3203 21.8294 53.3073 21.7839 53.2812 21.7578C53.2552 21.6667 53.2357 21.582 53.2227 21.5039C53.2096 21.4388 53.1966 21.3737 53.1836 21.3086C53.1836 21.2435 53.1836 21.1979 53.1836 21.1719V20.4297C53.1576 20.3125 53.112 20.1823 53.0469 20.0391C52.9818 19.8828 52.9036 19.7396 52.8125 19.6094C52.7344 19.4661 52.6367 19.349 52.5195 19.2578C52.4023 19.1667 52.2721 19.1211 52.1289 19.1211ZM44.6875 24.7656C44.6875 24.4401 44.7266 24.0625 44.8047 23.6328C44.8828 23.1901 45.0391 22.8255 45.2734 22.5391C45.2865 22.526 45.3451 22.4609 45.4492 22.3438C45.5664 22.2266 45.6966 22.0964 45.8398 21.9531C45.9831 21.7969 46.1263 21.6471 46.2695 21.5039C46.4258 21.3607 46.543 21.25 46.6211 21.1719C47.0378 20.7943 47.4805 20.4492 47.9492 20.1367C48.418 19.8112 48.8997 19.5247 49.3945 19.2773C49.4596 19.2513 49.5703 19.2253 49.7266 19.1992C49.8958 19.1732 50 19.1471 50.0391 19.1211C50.0781 19.1081 50.1497 19.0755 50.2539 19.0234C50.3711 18.9583 50.4948 18.8932 50.625 18.8281C50.7552 18.75 50.8724 18.6849 50.9766 18.6328C51.0938 18.5677 51.1654 18.5352 51.1914 18.5352C51.4128 18.431 51.6146 18.3464 51.7969 18.2812C51.9922 18.2161 52.1745 18.1445 52.3438 18.0664C52.513 17.9883 52.6758 17.8971 52.832 17.793C52.9883 17.6758 53.138 17.5195 53.2812 17.3242C53.3073 17.2721 53.3268 17.181 53.3398 17.0508C53.3659 16.9076 53.3854 16.7578 53.3984 16.6016C53.4115 16.4323 53.418 16.276 53.418 16.1328C53.431 15.9766 53.4375 15.8659 53.4375 15.8008C53.4375 15.4883 53.431 15.1758 53.418 14.8633C53.4049 14.5378 53.3529 14.2318 53.2617 13.9453C53.1836 13.6458 53.0534 13.3789 52.8711 13.1445C52.7018 12.8971 52.4544 12.7018 52.1289 12.5586C52.1029 12.5456 52.0443 12.526 51.9531 12.5C51.862 12.474 51.7643 12.4479 51.6602 12.4219C51.556 12.3828 51.4583 12.3503 51.3672 12.3242C51.276 12.2982 51.2174 12.2852 51.1914 12.2852C51.1914 12.2721 51.1654 12.2526 51.1133 12.2266C51.0612 12.2005 51.0026 12.1745 50.9375 12.1484C50.8724 12.1094 50.8073 12.0833 50.7422 12.0703C50.6771 12.0443 50.6315 12.0247 50.6055 12.0117H50.5078C50.3385 12.0117 50.2083 12.0312 50.1172 12.0703C50.026 12.1094 49.9089 12.181 49.7656 12.2852C49.7135 12.3112 49.6484 12.3438 49.5703 12.3828C49.4922 12.4219 49.4141 12.4674 49.3359 12.5195C49.2578 12.5716 49.1862 12.6172 49.1211 12.6562C49.069 12.6823 49.0365 12.6953 49.0234 12.6953C48.9974 12.7214 48.9648 12.7734 48.9258 12.8516C48.8867 12.9167 48.8477 12.9948 48.8086 13.0859C48.7826 13.1641 48.7565 13.2422 48.7305 13.3203C48.7044 13.3854 48.6914 13.4245 48.6914 13.4375C48.6784 13.4635 48.6654 13.5156 48.6523 13.5938C48.6393 13.6589 48.6263 13.737 48.6133 13.8281C48.6003 13.9062 48.5872 13.9844 48.5742 14.0625C48.5612 14.1276 48.5547 14.1667 48.5547 14.1797C48.5547 14.2188 48.5286 14.3034 48.4766 14.4336C48.4245 14.5508 48.3789 14.6224 48.3398 14.6484C48.2878 14.9349 48.2487 15.1758 48.2227 15.3711C48.2096 15.5664 48.1641 15.7227 48.0859 15.8398C48.0078 15.957 47.8841 16.0417 47.7148 16.0938C47.5586 16.1328 47.3177 16.1523 46.9922 16.1523C46.6927 16.1523 46.3997 16.1458 46.1133 16.1328C45.8398 16.1198 45.5924 16.0742 45.3711 15.9961C45.1628 15.9049 44.9935 15.7682 44.8633 15.5859C44.7331 15.3906 44.668 15.1237 44.668 14.7852C44.668 14.6419 44.6745 14.4857 44.6875 14.3164C44.7005 14.1471 44.7461 14.0039 44.8242 13.8867C44.8372 13.8737 44.8698 13.8411 44.9219 13.7891C44.974 13.724 45.0326 13.6589 45.0977 13.5938C45.1628 13.5286 45.2214 13.4701 45.2734 13.418C45.3385 13.3659 45.3841 13.3268 45.4102 13.3008C46.5299 12.4674 47.6953 11.7904 48.9062 11.2695C50.1302 10.7357 51.4388 10.4688 52.832 10.4688C53.1576 10.4688 53.4831 10.4883 53.8086 10.5273C54.1471 10.5664 54.4727 10.6445 54.7852 10.7617C55.0977 10.8659 55.3841 11.0156 55.6445 11.2109C55.9049 11.4062 56.1198 11.6536 56.2891 11.9531C56.3281 12.0312 56.3737 12.1354 56.4258 12.2656C56.4909 12.3958 56.556 12.526 56.6211 12.6562C56.6862 12.7865 56.7383 12.8971 56.7773 12.9883C56.8294 13.0794 56.8555 13.1315 56.8555 13.1445C56.8685 13.1836 56.8815 13.2812 56.8945 13.4375C56.9076 13.5807 56.9206 13.737 56.9336 13.9062C56.9466 14.0625 56.9596 14.2188 56.9727 14.375C56.9857 14.5182 56.9922 14.6094 56.9922 14.6484C56.9922 14.6875 57.0182 14.7461 57.0703 14.8242C57.0964 14.8633 57.1289 14.8958 57.168 14.9219C57.181 14.9219 57.1875 14.9544 57.1875 15.0195V15.0391C57.1745 15.0521 57.168 15.0586 57.168 15.0586C57.0768 15.3581 57.0182 15.6576 56.9922 15.957C56.9661 16.2565 56.9206 16.569 56.8555 16.8945C56.8555 16.9076 56.8359 16.9987 56.7969 17.168C56.7708 17.3372 56.7578 17.4479 56.7578 17.5C56.7318 17.513 56.7188 17.6367 56.7188 17.8711C56.7188 18.0794 56.7253 18.2943 56.7383 18.5156C56.7513 18.737 56.7578 18.8802 56.7578 18.9453C56.7578 18.9714 56.7448 19.0234 56.7188 19.1016C56.7057 19.1667 56.6862 19.2448 56.6602 19.3359C56.6471 19.4141 56.6276 19.4922 56.6016 19.5703C56.5885 19.6354 56.582 19.6745 56.582 19.6875C56.582 19.7266 56.569 19.9089 56.543 20.2344C56.5169 20.5599 56.4844 20.9375 56.4453 21.3672C56.4193 21.7839 56.3867 22.2135 56.3477 22.6562C56.3216 23.0859 56.3021 23.4375 56.2891 23.7109V23.9062C56.2891 23.9583 56.2956 24.0625 56.3086 24.2188C56.3216 24.362 56.3346 24.5182 56.3477 24.6875C56.3607 24.8568 56.3737 25.0195 56.3867 25.1758C56.3997 25.332 56.4128 25.4492 56.4258 25.5273C56.6081 25.7357 56.8359 25.8854 57.1094 25.9766C57.3828 26.0677 57.6367 26.1133 57.8711 26.1133C58.1315 26.1133 58.3594 26.0807 58.5547 26.0156C58.763 25.9505 58.9779 25.918 59.1992 25.918C59.2253 25.918 59.3034 25.9245 59.4336 25.9375C59.5768 25.9375 59.668 25.9375 59.707 25.9375C59.8372 26.0026 59.9154 26.0807 59.9414 26.1719C59.9805 26.263 60 26.3802 60 26.5234C60 26.5365 60 26.5625 60 26.6016C60 26.6406 59.987 26.6602 59.9609 26.6602L58.6133 28.0469L58.457 28.125C58.3268 28.1771 58.2422 28.2031 58.2031 28.2031C58.1641 28.2031 58.0664 28.2096 57.9102 28.2227C57.7539 28.2357 57.5846 28.2487 57.4023 28.2617C57.2201 28.2747 57.0443 28.2878 56.875 28.3008C56.7188 28.3138 56.6211 28.3268 56.582 28.3398C56.556 28.3398 56.4909 28.3529 56.3867 28.3789C56.2826 28.3919 56.1719 28.4115 56.0547 28.4375C55.9375 28.4505 55.8268 28.4635 55.7227 28.4766C55.6315 28.4896 55.5729 28.4896 55.5469 28.4766C55.5208 28.4766 55.4688 28.4701 55.3906 28.457C55.3255 28.431 55.2474 28.4049 55.1562 28.3789C55.0651 28.3398 54.974 28.3073 54.8828 28.2812C54.7917 28.2552 54.7201 28.2292 54.668 28.2031C54.4596 28.125 54.2513 28.0208 54.043 27.8906C53.8346 27.7604 53.6784 27.6042 53.5742 27.4219C53.4961 27.2786 53.431 27.1224 53.3789 26.9531C53.3398 26.7708 53.2878 26.6081 53.2227 26.4648C53.1706 26.3086 53.0924 26.1784 52.9883 26.0742C52.8841 25.9701 52.7214 25.918 52.5 25.918C52.487 25.918 52.474 25.9245 52.4609 25.9375C52.4609 25.9375 52.4544 25.9375 52.4414 25.9375H52.4023C52.0768 26.1458 51.8164 26.3867 51.6211 26.6602C51.4388 26.9336 51.2109 27.1875 50.9375 27.4219C50.7161 27.6042 50.4883 27.7604 50.2539 27.8906C50.0326 28.0078 49.8047 28.1576 49.5703 28.3398C49.5052 28.3659 49.388 28.3919 49.2188 28.418C49.0625 28.444 48.8867 28.4701 48.6914 28.4961C48.5091 28.5352 48.3268 28.5612 48.1445 28.5742C47.9753 28.6003 47.8516 28.6133 47.7734 28.6133C47.7344 28.6133 47.6693 28.6068 47.5781 28.5938C47.487 28.5938 47.3828 28.5872 47.2656 28.5742C47.1615 28.5612 47.0573 28.5417 46.9531 28.5156C46.862 28.5026 46.7969 28.4896 46.7578 28.4766C46.7318 28.4766 46.6862 28.457 46.6211 28.418C46.569 28.3659 46.5104 28.3138 46.4453 28.2617C46.3802 28.2096 46.3151 28.1641 46.25 28.125C46.1979 28.0729 46.1654 28.0469 46.1523 28.0469C45.5794 27.6562 45.1888 27.1745 44.9805 26.6016C44.7852 26.0286 44.6875 25.4167 44.6875 24.7656Z" fill="white"/>
<path d="M60.5469 27.8711C60.5469 27.6628 60.5859 27.5 60.6641 27.3828C60.7552 27.2656 60.8659 27.181 60.9961 27.1289C61.1393 27.0638 61.2956 27.0247 61.4648 27.0117C61.6471 26.9857 61.8229 26.9661 61.9922 26.9531C62.0182 26.9271 62.0833 26.9141 62.1875 26.9141C62.2917 26.9141 62.4023 26.9206 62.5195 26.9336C62.6497 26.9466 62.7344 26.9531 62.7734 26.9531C62.9036 26.875 63.0339 26.7773 63.1641 26.6602C63.3073 26.5299 63.431 26.3932 63.5352 26.25C63.6523 26.0938 63.7435 25.931 63.8086 25.7617C63.8867 25.5794 63.9258 25.4036 63.9258 25.2344L63.9844 21.543L64.0234 20.8008L64.1797 17.0898C64.2188 16.8555 64.2383 16.6471 64.2383 16.4648C64.2513 16.2695 64.2578 16.0807 64.2578 15.8984C64.2578 15.6771 64.2318 15.4362 64.1797 15.1758C64.1406 14.9023 64.056 14.6615 63.9258 14.4531C63.7435 14.1536 63.5221 13.8737 63.2617 13.6133C63.0143 13.3398 62.7279 13.112 62.4023 12.9297C62.3763 12.9167 62.3242 12.9036 62.2461 12.8906C62.168 12.8646 62.0833 12.8385 61.9922 12.8125C61.9141 12.7865 61.8359 12.7539 61.7578 12.7148C61.6927 12.6628 61.6602 12.6107 61.6602 12.5586C61.6602 12.4284 61.7708 12.2852 61.9922 12.1289C62.2135 11.9727 62.4674 11.8229 62.7539 11.6797C63.0404 11.5234 63.3203 11.3932 63.5938 11.2891C63.8802 11.1719 64.0755 11.0807 64.1797 11.0156C64.362 10.9375 64.5312 10.8398 64.6875 10.7227C64.8568 10.5924 65.0195 10.4688 65.1758 10.3516C65.3451 10.2344 65.5143 10.1367 65.6836 10.0586C65.8529 9.96745 66.0417 9.92188 66.25 9.92188C66.4062 9.92188 66.5299 10.013 66.6211 10.1953C66.7122 10.3776 66.7839 10.6055 66.8359 10.8789C66.888 11.1393 66.9336 11.4323 66.9727 11.7578C67.0117 12.0703 67.0573 12.3633 67.1094 12.6367C67.1615 12.8971 67.2266 13.1185 67.3047 13.3008C67.3828 13.4831 67.4935 13.5742 67.6367 13.5742C67.7279 13.5742 67.7865 13.5677 67.8125 13.5547C67.8385 13.5417 67.8906 13.4896 67.9688 13.3984C67.9818 13.3724 68.0404 13.2878 68.1445 13.1445C68.2487 12.9883 68.3659 12.8255 68.4961 12.6562C68.6393 12.474 68.7695 12.3112 68.8867 12.168C69.0039 12.0247 69.082 11.9401 69.1211 11.9141C69.2513 11.7578 69.4792 11.5625 69.8047 11.3281C70.1302 11.0938 70.4818 10.8659 70.8594 10.6445C71.25 10.4232 71.6276 10.2344 71.9922 10.0781C72.3568 9.90885 72.6367 9.82422 72.832 9.82422C73.1055 9.82422 73.3659 9.8763 73.6133 9.98047C73.8737 10.0846 74.1016 10.2344 74.2969 10.4297C74.4922 10.612 74.6484 10.8268 74.7656 11.0742C74.8828 11.3216 74.9414 11.582 74.9414 11.8555C74.9414 12.3763 74.8242 12.832 74.5898 13.2227C74.3685 13.6133 73.9844 13.9193 73.4375 14.1406H73.2031C72.9688 14.1406 72.7539 14.0885 72.5586 13.9844C72.3633 13.8672 72.168 13.7435 71.9727 13.6133C71.7904 13.4701 71.6016 13.3464 71.4062 13.2422C71.2109 13.125 71.0026 13.0664 70.7812 13.0664C70.4818 13.0664 70.2148 13.1185 69.9805 13.2227C69.7591 13.3138 69.5312 13.4115 69.2969 13.5156C69.2448 13.5547 69.1602 13.6068 69.043 13.6719C68.9388 13.724 68.8281 13.7891 68.7109 13.8672C68.6068 13.9323 68.5026 13.9909 68.3984 14.043C68.3073 14.0951 68.2422 14.1276 68.2031 14.1406C68.0729 14.2318 67.9557 14.362 67.8516 14.5312C67.7474 14.7005 67.6562 14.8893 67.5781 15.0977C67.513 15.293 67.4544 15.4948 67.4023 15.7031C67.3633 15.9115 67.3372 16.0938 67.3242 16.25C67.3242 16.263 67.3177 16.3281 67.3047 16.4453C67.2917 16.5495 67.2721 16.6732 67.2461 16.8164C67.2331 16.9596 67.2201 17.1029 67.207 17.2461C67.194 17.3763 67.1875 17.4805 67.1875 17.5586V17.6953C67.1875 17.7865 67.1875 17.9688 67.1875 18.2422C67.2005 18.5026 67.2135 18.8151 67.2266 19.1797C67.2396 19.5312 67.2461 19.9089 67.2461 20.3125C67.2591 20.7031 67.2721 21.0807 67.2852 21.4453C67.2982 21.7969 67.3047 22.1094 67.3047 22.3828C67.3177 22.6432 67.3242 22.819 67.3242 22.9102V24.9609C67.3372 25.026 67.3633 25.1497 67.4023 25.332C67.4414 25.5143 67.487 25.7096 67.5391 25.918C67.6042 26.1133 67.6693 26.3021 67.7344 26.4844C67.8125 26.6536 67.8906 26.7578 67.9688 26.7969C68.0859 26.849 68.2487 26.8945 68.457 26.9336C68.6784 26.9727 68.8932 27.0247 69.1016 27.0898C69.3229 27.1419 69.5117 27.2201 69.668 27.3242C69.8242 27.4284 69.9023 27.5651 69.9023 27.7344C69.9023 27.8776 69.8568 28.0013 69.7656 28.1055C69.6745 28.1966 69.5638 28.2747 69.4336 28.3398C69.3034 28.4049 69.1602 28.4505 69.0039 28.4766C68.8607 28.5156 68.7305 28.5352 68.6133 28.5352C68.3138 28.5352 68.0078 28.5091 67.6953 28.457C67.3958 28.4049 67.0964 28.3789 66.7969 28.3789C66.4583 28.3789 66.1068 28.4049 65.7422 28.457C65.3906 28.5091 65.0521 28.5352 64.7266 28.5352H64.668C64.6419 28.5352 64.5898 28.5286 64.5117 28.5156C64.4466 28.5156 64.3685 28.5091 64.2773 28.4961C64.1992 28.4961 64.1211 28.4896 64.043 28.4766C63.9779 28.4766 63.9388 28.4766 63.9258 28.4766C63.8867 28.4766 63.7891 28.4831 63.6328 28.4961C63.4766 28.5221 63.3659 28.5352 63.3008 28.5352H61.9531C61.7969 28.5352 61.6341 28.5286 61.4648 28.5156C61.2956 28.5026 61.1393 28.4766 60.9961 28.4375C60.8659 28.3854 60.7552 28.3203 60.6641 28.2422C60.5859 28.151 60.5469 28.0273 60.5469 27.8711Z" fill="white"/>
<path d="M85.7031 12.8906C85.7292 12.8646 85.7617 12.7474 85.8008 12.5391C85.8398 12.3177 85.8854 11.9792 85.9375 11.5234C85.9505 11.263 85.9766 11.0156 86.0156 10.7812C86.0547 10.5339 86.1068 10.306 86.1719 10.0977C86.1849 10.0846 86.2109 10.026 86.25 9.92188C86.2891 9.81771 86.3281 9.70703 86.3672 9.58984C86.4193 9.45964 86.4648 9.34245 86.5039 9.23828C86.543 9.13411 86.569 9.06901 86.582 9.04297C86.5951 8.99089 86.6211 8.88672 86.6602 8.73047C86.7122 8.5612 86.7643 8.38542 86.8164 8.20312C86.8685 8.02083 86.9141 7.85156 86.9531 7.69531C87.0052 7.52604 87.0378 7.42188 87.0508 7.38281C87.1289 7.08333 87.2721 6.80339 87.4805 6.54297C87.6888 6.26953 87.8841 6.0026 88.0664 5.74219L88.3594 5.37109C88.9062 4.61589 89.5247 3.93229 90.2148 3.32031C90.918 2.70833 91.6732 2.19401 92.4805 1.77734C93.2878 1.36068 94.1406 1.04167 95.0391 0.820312C95.9375 0.585938 96.8555 0.46875 97.793 0.46875C98.4961 0.46875 99.1602 0.501302 99.7852 0.566406C100.41 0.63151 101.016 0.729167 101.602 0.859375C102.201 0.976562 102.793 1.1263 103.379 1.30859C103.965 1.49089 104.583 1.70573 105.234 1.95312H105.469C105.664 1.95312 105.827 1.88151 105.957 1.73828C106.087 1.58203 106.191 1.41927 106.27 1.25C106.374 1.06771 106.497 0.891927 106.641 0.722656C106.797 0.553385 107.025 0.46875 107.324 0.46875C107.493 0.46875 107.637 0.514323 107.754 0.605469C107.871 0.696615 107.962 0.813802 108.027 0.957031C108.105 1.10026 108.164 1.25651 108.203 1.42578C108.242 1.58203 108.262 1.73177 108.262 1.875C108.249 1.90104 108.242 1.92708 108.242 1.95312C108.229 1.97917 108.223 2.01172 108.223 2.05078C108.223 2.07682 108.216 2.10286 108.203 2.12891C108.177 2.16797 108.151 2.22005 108.125 2.28516C108.125 2.32422 108.112 2.39583 108.086 2.5C108.073 2.59115 108.066 2.6888 108.066 2.79297C108.04 2.97526 108.014 3.15755 107.988 3.33984C107.975 3.52214 107.956 3.66536 107.93 3.76953V4.17969C108.047 4.92188 108.132 5.67708 108.184 6.44531C108.236 7.21354 108.262 7.96875 108.262 8.71094V9.55078C108.197 9.64193 108.105 9.72656 107.988 9.80469C107.871 9.88281 107.76 9.92188 107.656 9.92188C107.5 9.92188 107.357 9.86328 107.227 9.74609C107.096 9.61589 106.979 9.45964 106.875 9.27734C106.784 9.09505 106.699 8.89974 106.621 8.69141C106.556 8.48307 106.497 8.28776 106.445 8.10547C106.393 7.96224 106.348 7.84505 106.309 7.75391C106.283 7.64974 106.257 7.5651 106.23 7.5C106.217 7.47396 106.178 7.41536 106.113 7.32422C106.061 7.23307 105.996 7.13542 105.918 7.03125C105.853 6.92708 105.794 6.83594 105.742 6.75781C105.69 6.66667 105.664 6.60807 105.664 6.58203C105.625 6.54297 105.553 6.4388 105.449 6.26953C105.345 6.10026 105.234 5.92448 105.117 5.74219C105 5.54688 104.889 5.36458 104.785 5.19531C104.681 5.02604 104.622 4.91536 104.609 4.86328C104.531 4.8112 104.486 4.77865 104.473 4.76562C104.46 4.7526 104.453 4.71354 104.453 4.64844C104.232 4.55729 104.049 4.43359 103.906 4.27734C103.346 3.8737 102.786 3.48958 102.227 3.125C101.68 2.76042 101.068 2.50651 100.391 2.36328H99.7852C99.7591 2.36328 99.7201 2.35677 99.668 2.34375C99.6289 2.33073 99.5768 2.3112 99.5117 2.28516C99.4857 2.28516 99.4596 2.28516 99.4336 2.28516C99.4206 2.27214 99.388 2.26562 99.3359 2.26562C99.2969 2.2526 99.2383 2.24609 99.1602 2.24609C99.082 2.23307 98.9648 2.21354 98.8086 2.1875C98.3268 2.1875 97.8711 2.23307 97.4414 2.32422C97.0117 2.40234 96.5755 2.51302 96.1328 2.65625C96.0938 2.66927 96.0482 2.68229 95.9961 2.69531C95.957 2.70833 95.918 2.72135 95.8789 2.73438C95.8529 2.7474 95.8268 2.75391 95.8008 2.75391C95.7096 2.77995 95.651 2.79297 95.625 2.79297C95.612 2.79297 95.5794 2.79297 95.5273 2.79297C95.4753 2.81901 95.4297 2.83854 95.3906 2.85156C95.3646 2.86458 95.2669 2.90365 95.0977 2.96875C95.0326 2.99479 94.9349 3.07292 94.8047 3.20312C94.6745 3.32031 94.4661 3.50911 94.1797 3.76953C94.1146 3.83464 94.0365 3.90625 93.9453 3.98438C93.8672 4.04948 93.8086 4.09505 93.7695 4.12109C93.7044 4.1862 93.6328 4.2513 93.5547 4.31641C93.4766 4.38151 93.4245 4.42708 93.3984 4.45312C93.3724 4.47917 93.3073 4.54427 93.2031 4.64844C93.112 4.7526 93.0664 4.8112 93.0664 4.82422C93.0404 4.86328 93.0013 4.94141 92.9492 5.05859C92.8971 5.17578 92.8385 5.29948 92.7734 5.42969C92.7083 5.5599 92.6432 5.67708 92.5781 5.78125C92.526 5.88542 92.487 5.95052 92.4609 5.97656C92.4349 6.0026 92.4023 6.04818 92.3633 6.11328C92.3372 6.17839 92.2982 6.24349 92.2461 6.30859C92.181 6.41276 92.1029 6.52995 92.0117 6.66016C91.9206 6.77734 91.8294 6.89453 91.7383 7.01172C91.6602 7.12891 91.5885 7.23307 91.5234 7.32422C91.4714 7.40234 91.4453 7.44792 91.4453 7.46094C91.4323 7.47396 91.4193 7.51302 91.4062 7.57812C91.3932 7.63021 91.3802 7.69531 91.3672 7.77344C91.3542 7.83854 91.3411 7.91016 91.3281 7.98828C91.3151 8.05339 91.3086 8.09245 91.3086 8.10547C91.2826 8.13151 91.237 8.20964 91.1719 8.33984C91.1198 8.47005 91.0547 8.61328 90.9766 8.76953C90.9115 8.92578 90.8464 9.06901 90.7812 9.19922C90.7292 9.32943 90.7031 9.41406 90.7031 9.45312C90.6641 9.51823 90.638 9.58984 90.625 9.66797L90.5859 9.82422C90.5599 9.94141 90.5208 10.1237 90.4688 10.3711C90.4297 10.6055 90.3906 10.8529 90.3516 11.1133C90.3125 11.3607 90.2799 11.5885 90.2539 11.7969C90.2279 12.0052 90.2148 12.1354 90.2148 12.1875V15.1367C90.2409 15.1628 90.2734 15.2734 90.3125 15.4688C90.3646 15.651 90.3906 15.8333 90.3906 16.0156C90.3906 15.9635 90.332 16.2565 90.2148 16.8945C90.306 17.0898 90.3581 17.3112 90.3711 17.5586C90.3971 17.793 90.4297 18.0339 90.4688 18.2812C90.4948 18.4766 90.5208 18.6979 90.5469 18.9453C90.5859 19.1797 90.638 19.4271 90.7031 19.6875C90.7552 19.8958 90.8659 20.1432 91.0352 20.4297C91.2044 20.7161 91.3737 20.9896 91.543 21.25C91.5951 21.3281 91.6602 21.4258 91.7383 21.543C91.8294 21.6602 91.9466 21.862 92.0898 22.1484C92.2201 22.4089 92.3503 22.6693 92.4805 22.9297C92.6237 23.1771 92.806 23.3594 93.0273 23.4766C93.0794 23.5026 93.112 23.5221 93.125 23.5352C93.138 23.5352 93.1706 23.5482 93.2227 23.5742C93.2878 23.6133 93.3854 23.6849 93.5156 23.7891C93.6589 23.8932 93.8802 24.0951 94.1797 24.3945C94.349 24.5768 94.5182 24.7526 94.6875 24.9219C94.8698 25.0781 95.0065 25.1823 95.0977 25.2344C95.1107 25.2344 95.1237 25.2474 95.1367 25.2734C95.1497 25.2995 95.2018 25.332 95.293 25.3711C95.293 25.3841 95.3255 25.4036 95.3906 25.4297C95.4557 25.4557 95.5339 25.4883 95.625 25.5273C95.7161 25.5534 95.8203 25.599 95.9375 25.6641C96.0938 25.7292 96.25 25.8008 96.4062 25.8789C96.5755 25.944 96.7383 26.0091 96.8945 26.0742C97.0508 26.1393 97.1875 26.1979 97.3047 26.25C97.4349 26.2891 97.5326 26.3086 97.5977 26.3086H98.8086C98.8607 26.3346 98.8997 26.3542 98.9258 26.3672C98.9518 26.3672 99.0365 26.3932 99.1797 26.4453H99.6875C100.169 26.4453 100.651 26.3477 101.133 26.1523C101.628 25.957 102.103 25.7096 102.559 25.4102C103.014 25.0977 103.438 24.7591 103.828 24.3945C104.232 24.0169 104.577 23.6523 104.863 23.3008C105.046 23.0794 105.176 22.8906 105.254 22.7344C105.345 22.5781 105.436 22.4089 105.527 22.2266L105.801 21.6602C105.853 21.5169 105.905 21.3802 105.957 21.25C106.022 21.1068 106.081 20.957 106.133 20.8008C106.25 20.4622 106.38 20.1237 106.523 19.7852C106.667 19.4466 106.829 19.1081 107.012 18.7695C107.064 18.6914 107.22 18.6523 107.48 18.6523C107.702 18.6523 107.852 18.6979 107.93 18.7891C108.008 18.8802 108.112 19.0365 108.242 19.2578V20.0977C108.242 20.7096 108.203 21.3151 108.125 21.9141C108.099 22.2266 108.073 22.526 108.047 22.8125C108.034 23.099 108.027 23.431 108.027 23.8086C108.027 23.8737 108.034 24.0365 108.047 24.2969C108.06 24.5443 108.079 24.8112 108.105 25.0977C108.132 25.3711 108.151 25.6315 108.164 25.8789C108.19 26.1133 108.216 26.2565 108.242 26.3086V26.543C108.242 26.6341 108.216 26.7448 108.164 26.875C108.125 27.0052 108.066 27.1354 107.988 27.2656C107.923 27.3828 107.845 27.487 107.754 27.5781C107.663 27.6562 107.572 27.6953 107.48 27.6953C107.298 27.6953 107.168 27.6367 107.09 27.5195C107.025 27.4023 106.979 27.2721 106.953 27.1289C106.927 27.1029 106.914 27.0768 106.914 27.0508C106.914 27.0247 106.901 26.9922 106.875 26.9531C106.875 26.9141 106.842 26.8359 106.777 26.7188C106.725 26.6016 106.66 26.4779 106.582 26.3477C106.517 26.2044 106.452 26.0807 106.387 25.9766C106.322 25.8594 106.283 25.7812 106.27 25.7422C106.191 25.6901 106.1 25.6641 105.996 25.6641C105.736 25.6641 105.495 25.7487 105.273 25.918C105.065 26.0742 104.87 26.237 104.688 26.4062C104.57 26.5365 104.453 26.6602 104.336 26.7773C104.232 26.8815 104.134 26.9531 104.043 26.9922C104.004 26.9922 103.958 27.0052 103.906 27.0312C103.854 27.0443 103.796 27.0573 103.73 27.0703C103.678 27.0833 103.639 27.0898 103.613 27.0898C103.522 27.194 103.411 27.2721 103.281 27.3242C103.164 27.3633 103.034 27.4089 102.891 27.4609C102.747 27.513 102.585 27.5651 102.402 27.6172C102.22 27.6562 102.025 27.7083 101.816 27.7734C101.491 27.8516 101.172 27.9492 100.859 28.0664C100.547 28.1706 100.254 28.3073 99.9805 28.4766C99.6289 28.5026 99.2708 28.5221 98.9062 28.5352C98.5417 28.5612 98.1706 28.5742 97.793 28.5742C97.4935 28.5742 97.181 28.5612 96.8555 28.5352C96.543 28.5221 96.224 28.5026 95.8984 28.4766C95.8724 28.4635 95.8203 28.444 95.7422 28.418C95.6641 28.3919 95.5794 28.3659 95.4883 28.3398C95.3971 28.3008 95.3125 28.2747 95.2344 28.2617C95.1562 28.2357 95.0977 28.2161 95.0586 28.2031C95.0846 28.2031 95.0391 28.1966 94.9219 28.1836C94.8177 28.1576 94.707 28.1445 94.5898 28.1445C94.4596 28.1055 94.3555 28.0794 94.2773 28.0664C94.1992 28.0534 94.1406 28.0339 94.1016 28.0078C93.9844 27.9427 93.9128 27.9036 93.8867 27.8906C93.8737 27.8776 93.8607 27.8711 93.8477 27.8711C93.7174 27.793 93.5547 27.7344 93.3594 27.6953C93.0339 27.5781 92.7083 27.4544 92.3828 27.3242C92.0703 27.181 91.7643 27.0247 91.4648 26.8555C91.0091 26.569 90.5859 26.237 90.1953 25.8594C89.8047 25.4688 89.4401 25.0716 89.1016 24.668C89.0625 24.6159 88.9714 24.4987 88.8281 24.3164C88.6849 24.1341 88.5286 23.9453 88.3594 23.75C88.1901 23.5417 88.0339 23.3464 87.8906 23.1641C87.7474 22.9818 87.6562 22.8711 87.6172 22.832C87.6042 22.793 87.5651 22.7148 87.5 22.5977C87.4349 22.4674 87.3568 22.3242 87.2656 22.168C87.1875 22.0117 87.1094 21.862 87.0312 21.7188C86.9661 21.5625 86.9141 21.4518 86.875 21.3867C86.849 21.3346 86.8164 21.263 86.7773 21.1719C86.7383 21.0677 86.7057 20.957 86.6797 20.8398C86.6276 20.6966 86.5755 20.5664 86.5234 20.4492C86.4844 20.319 86.4583 20.2214 86.4453 20.1562C86.3932 19.974 86.3216 19.7201 86.2305 19.3945C86.1523 19.069 86.0742 18.75 85.9961 18.4375C85.918 18.125 85.8529 17.8516 85.8008 17.6172C85.7487 17.3698 85.7227 17.2396 85.7227 17.2266C85.6966 16.875 85.6641 16.5104 85.625 16.1328C85.599 15.7422 85.5859 15.3385 85.5859 14.9219C85.5859 14.2969 85.625 13.6198 85.7031 12.8906Z" fill="white"/>
<path d="M111.445 27.8711C111.445 27.6628 111.484 27.5 111.562 27.3828C111.654 27.2656 111.764 27.181 111.895 27.1289C112.038 27.0638 112.194 27.0247 112.363 27.0117C112.546 26.9857 112.721 26.9661 112.891 26.9531C112.917 26.9271 112.982 26.9141 113.086 26.9141C113.19 26.9141 113.301 26.9206 113.418 26.9336C113.548 26.9466 113.633 26.9531 113.672 26.9531C113.802 26.875 113.932 26.7773 114.062 26.6602C114.206 26.5299 114.329 26.3932 114.434 26.25C114.551 26.0938 114.642 25.931 114.707 25.7617C114.785 25.5794 114.824 25.4036 114.824 25.2344L114.883 21.543L114.922 20.8008L115.078 17.0898C115.117 16.8555 115.137 16.6471 115.137 16.4648C115.15 16.2695 115.156 16.0807 115.156 15.8984C115.156 15.6771 115.13 15.4362 115.078 15.1758C115.039 14.9023 114.954 14.6615 114.824 14.4531C114.642 14.1536 114.421 13.8737 114.16 13.6133C113.913 13.3398 113.626 13.112 113.301 12.9297C113.275 12.9167 113.223 12.9036 113.145 12.8906C113.066 12.8646 112.982 12.8385 112.891 12.8125C112.812 12.7865 112.734 12.7539 112.656 12.7148C112.591 12.6628 112.559 12.6107 112.559 12.5586C112.559 12.4284 112.669 12.2852 112.891 12.1289C113.112 11.9727 113.366 11.8229 113.652 11.6797C113.939 11.5234 114.219 11.3932 114.492 11.2891C114.779 11.1719 114.974 11.0807 115.078 11.0156C115.26 10.9375 115.43 10.8398 115.586 10.7227C115.755 10.5924 115.918 10.4688 116.074 10.3516C116.243 10.2344 116.413 10.1367 116.582 10.0586C116.751 9.96745 116.94 9.92188 117.148 9.92188C117.305 9.92188 117.428 10.013 117.52 10.1953C117.611 10.3776 117.682 10.6055 117.734 10.8789C117.786 11.1393 117.832 11.4323 117.871 11.7578C117.91 12.0703 117.956 12.3633 118.008 12.6367C118.06 12.8971 118.125 13.1185 118.203 13.3008C118.281 13.4831 118.392 13.5742 118.535 13.5742C118.626 13.5742 118.685 13.5677 118.711 13.5547C118.737 13.5417 118.789 13.4896 118.867 13.3984C118.88 13.3724 118.939 13.2878 119.043 13.1445C119.147 12.9883 119.264 12.8255 119.395 12.6562C119.538 12.474 119.668 12.3112 119.785 12.168C119.902 12.0247 119.98 11.9401 120.02 11.9141C120.15 11.7578 120.378 11.5625 120.703 11.3281C121.029 11.0938 121.38 10.8659 121.758 10.6445C122.148 10.4232 122.526 10.2344 122.891 10.0781C123.255 9.90885 123.535 9.82422 123.73 9.82422C124.004 9.82422 124.264 9.8763 124.512 9.98047C124.772 10.0846 125 10.2344 125.195 10.4297C125.391 10.612 125.547 10.8268 125.664 11.0742C125.781 11.3216 125.84 11.582 125.84 11.8555C125.84 12.3763 125.723 12.832 125.488 13.2227C125.267 13.6133 124.883 13.9193 124.336 14.1406H124.102C123.867 14.1406 123.652 14.0885 123.457 13.9844C123.262 13.8672 123.066 13.7435 122.871 13.6133C122.689 13.4701 122.5 13.3464 122.305 13.2422C122.109 13.125 121.901 13.0664 121.68 13.0664C121.38 13.0664 121.113 13.1185 120.879 13.2227C120.658 13.3138 120.43 13.4115 120.195 13.5156C120.143 13.5547 120.059 13.6068 119.941 13.6719C119.837 13.724 119.727 13.7891 119.609 13.8672C119.505 13.9323 119.401 13.9909 119.297 14.043C119.206 14.0951 119.141 14.1276 119.102 14.1406C118.971 14.2318 118.854 14.362 118.75 14.5312C118.646 14.7005 118.555 14.8893 118.477 15.0977C118.411 15.293 118.353 15.4948 118.301 15.7031C118.262 15.9115 118.236 16.0938 118.223 16.25C118.223 16.263 118.216 16.3281 118.203 16.4453C118.19 16.5495 118.171 16.6732 118.145 16.8164C118.132 16.9596 118.118 17.1029 118.105 17.2461C118.092 17.3763 118.086 17.4805 118.086 17.5586V17.6953C118.086 17.7865 118.086 17.9688 118.086 18.2422C118.099 18.5026 118.112 18.8151 118.125 19.1797C118.138 19.5312 118.145 19.9089 118.145 20.3125C118.158 20.7031 118.171 21.0807 118.184 21.4453C118.197 21.7969 118.203 22.1094 118.203 22.3828C118.216 22.6432 118.223 22.819 118.223 22.9102V24.9609C118.236 25.026 118.262 25.1497 118.301 25.332C118.34 25.5143 118.385 25.7096 118.438 25.918C118.503 26.1133 118.568 26.3021 118.633 26.4844C118.711 26.6536 118.789 26.7578 118.867 26.7969C118.984 26.849 119.147 26.8945 119.355 26.9336C119.577 26.9727 119.792 27.0247 120 27.0898C120.221 27.1419 120.41 27.2201 120.566 27.3242C120.723 27.4284 120.801 27.5651 120.801 27.7344C120.801 27.8776 120.755 28.0013 120.664 28.1055C120.573 28.1966 120.462 28.2747 120.332 28.3398C120.202 28.4049 120.059 28.4505 119.902 28.4766C119.759 28.5156 119.629 28.5352 119.512 28.5352C119.212 28.5352 118.906 28.5091 118.594 28.457C118.294 28.4049 117.995 28.3789 117.695 28.3789C117.357 28.3789 117.005 28.4049 116.641 28.457C116.289 28.5091 115.951 28.5352 115.625 28.5352H115.566C115.54 28.5352 115.488 28.5286 115.41 28.5156C115.345 28.5156 115.267 28.5091 115.176 28.4961C115.098 28.4961 115.02 28.4896 114.941 28.4766C114.876 28.4766 114.837 28.4766 114.824 28.4766C114.785 28.4766 114.688 28.4831 114.531 28.4961C114.375 28.5221 114.264 28.5352 114.199 28.5352H112.852C112.695 28.5352 112.533 28.5286 112.363 28.5156C112.194 28.5026 112.038 28.4766 111.895 28.4375C111.764 28.3854 111.654 28.3203 111.562 28.2422C111.484 28.151 111.445 28.0273 111.445 27.8711Z" fill="white"/>
<path d="M130 15.5664C130 15.6445 130.033 15.7227 130.098 15.8008C130.176 15.8789 130.26 15.957 130.352 16.0352C130.456 16.1003 130.553 16.1589 130.645 16.2109C130.749 16.25 130.833 16.2826 130.898 16.3086H134.922C135.026 16.2956 135.202 16.276 135.449 16.25C135.71 16.224 135.977 16.1979 136.25 16.1719C136.536 16.1328 136.803 16.0938 137.051 16.0547C137.311 16.0156 137.493 15.9766 137.598 15.9375C137.624 15.9115 137.656 15.8529 137.695 15.7617C137.747 15.6576 137.773 15.5924 137.773 15.5664V15.2344C137.773 15.1953 137.767 15.1237 137.754 15.0195C137.741 14.9023 137.721 14.7852 137.695 14.668C137.682 14.5378 137.663 14.4141 137.637 14.2969C137.624 14.1797 137.611 14.0951 137.598 14.043C137.467 13.9518 137.357 13.8411 137.266 13.7109C137.174 13.5807 137.077 13.457 136.973 13.3398C136.882 13.2096 136.777 13.0924 136.66 12.9883C136.556 12.8841 136.426 12.7995 136.27 12.7344C136.178 12.6953 136.055 12.6432 135.898 12.5781C135.755 12.5 135.612 12.4284 135.469 12.3633C135.326 12.2982 135.202 12.2396 135.098 12.1875C134.993 12.1354 134.935 12.1029 134.922 12.0898H134.629C134.538 12.1029 134.421 12.1224 134.277 12.1484C134.134 12.1745 133.991 12.2005 133.848 12.2266C133.704 12.2396 133.581 12.2526 133.477 12.2656C133.372 12.2786 133.314 12.2852 133.301 12.2852C133.262 12.2852 133.197 12.3112 133.105 12.3633C133.027 12.4023 132.936 12.4479 132.832 12.5C132.741 12.5521 132.65 12.6042 132.559 12.6562C132.48 12.6953 132.428 12.7214 132.402 12.7344C132.181 12.8125 131.966 12.8711 131.758 12.9102C131.562 12.9492 131.393 13.0794 131.25 13.3008C131.224 13.3398 131.165 13.4375 131.074 13.5938C130.983 13.75 130.924 13.8477 130.898 13.8867C130.82 14.0299 130.729 14.1667 130.625 14.2969C130.521 14.4141 130.423 14.5378 130.332 14.668C130.241 14.7852 130.163 14.9219 130.098 15.0781C130.033 15.2214 130 15.3841 130 15.5664ZM127.051 19.9609C127.064 19.8958 127.077 19.7721 127.09 19.5898C127.116 19.4076 127.129 19.2188 127.129 19.0234C127.142 18.8151 127.155 18.6198 127.168 18.4375C127.181 18.2552 127.201 18.1315 127.227 18.0664C127.24 17.832 127.272 17.5716 127.324 17.2852C127.389 16.9857 127.461 16.6862 127.539 16.3867C127.63 16.0872 127.734 15.8008 127.852 15.5273C127.969 15.2409 128.099 14.9935 128.242 14.7852C128.255 14.7721 128.281 14.7461 128.32 14.707C128.372 14.6549 128.424 14.6094 128.477 14.5703C128.529 14.5182 128.574 14.4727 128.613 14.4336C128.665 14.3945 128.698 14.3685 128.711 14.3555C128.724 14.3424 128.737 14.3034 128.75 14.2383C128.776 14.1732 128.802 14.1081 128.828 14.043C128.854 13.9779 128.874 13.9193 128.887 13.8672C128.913 13.8021 128.932 13.763 128.945 13.75C129.167 13.3724 129.44 13.0599 129.766 12.8125C130.091 12.5651 130.423 12.3242 130.762 12.0898C130.996 11.9466 131.211 11.8164 131.406 11.6992C131.615 11.569 131.816 11.4583 132.012 11.3672C132.22 11.263 132.435 11.1719 132.656 11.0938C132.891 11.0156 133.151 10.9505 133.438 10.8984C133.464 10.8984 133.568 10.8919 133.75 10.8789C133.945 10.8659 134.167 10.8594 134.414 10.8594C134.661 10.8464 134.915 10.8333 135.176 10.8203C135.436 10.8073 135.645 10.8008 135.801 10.8008H136.152C136.582 10.9049 136.986 11.0286 137.363 11.1719C137.754 11.3021 138.112 11.4714 138.438 11.6797C138.776 11.888 139.082 12.1419 139.355 12.4414C139.642 12.7279 139.902 13.0729 140.137 13.4766C140.15 13.5026 140.169 13.5807 140.195 13.7109C140.221 13.8281 140.247 13.8867 140.273 13.8867C140.352 14.082 140.443 14.2578 140.547 14.4141C140.664 14.5703 140.768 14.7266 140.859 14.8828C140.964 15.026 141.048 15.1823 141.113 15.3516C141.178 15.5078 141.211 15.6901 141.211 15.8984C141.211 16.1458 141.107 16.3867 140.898 16.6211C140.703 16.8424 140.547 17.0182 140.43 17.1484C140.352 17.1745 140.208 17.207 140 17.2461C139.805 17.2852 139.583 17.3242 139.336 17.3633C139.102 17.4023 138.861 17.4349 138.613 17.4609C138.379 17.487 138.184 17.5 138.027 17.5C137.975 17.5 137.858 17.5 137.676 17.5C137.507 17.487 137.298 17.474 137.051 17.4609C136.816 17.4479 136.562 17.4414 136.289 17.4414C136.016 17.4284 135.755 17.4219 135.508 17.4219C135.247 17.4219 135.02 17.4349 134.824 17.4609C134.642 17.487 134.518 17.5 134.453 17.5C134.44 17.5 134.382 17.5065 134.277 17.5195C134.186 17.5326 134.082 17.5521 133.965 17.5781C133.848 17.5911 133.737 17.6042 133.633 17.6172C133.529 17.6302 133.464 17.6367 133.438 17.6367C133.294 17.6497 133.086 17.6562 132.812 17.6562C132.539 17.6562 132.233 17.6562 131.895 17.6562C131.556 17.6562 131.237 17.6562 130.938 17.6562C130.651 17.6562 130.449 17.6497 130.332 17.6367C130.228 17.6497 130.156 17.6888 130.117 17.7539C130.078 17.806 130.046 17.8646 130.02 17.9297C130.02 17.9297 130.013 17.9622 130 18.0273C130 18.0794 130 18.1445 130 18.2227C130 18.3008 130 18.3854 130 18.4766C130 18.5547 130 18.6198 130 18.6719C130 18.737 130 18.8346 130 18.9648C130 19.0951 130 19.2253 130 19.3555C130 19.4727 130 19.5833 130 19.6875C130.013 19.7917 130.02 19.8503 130.02 19.8633C130.033 20.1367 130.137 20.5078 130.332 20.9766C130.527 21.4323 130.755 21.8945 131.016 22.3633C131.289 22.832 131.576 23.2682 131.875 23.6719C132.188 24.0625 132.474 24.3229 132.734 24.4531C132.786 24.4922 132.91 24.5638 133.105 24.668C133.301 24.7721 133.509 24.8828 133.73 25C133.952 25.1042 134.16 25.2083 134.355 25.3125C134.564 25.4036 134.707 25.4688 134.785 25.5078C134.85 25.5078 134.896 25.5013 134.922 25.4883C134.961 25.4753 135.007 25.4688 135.059 25.4688C135.319 25.4688 135.56 25.5013 135.781 25.5664C136.016 25.6315 136.263 25.6641 136.523 25.6641H136.816C136.882 25.6641 136.953 25.6576 137.031 25.6445L138.984 24.6289C139.036 24.4727 139.102 24.3164 139.18 24.1602C139.258 23.9909 139.349 23.8411 139.453 23.7109C139.57 23.5807 139.701 23.4766 139.844 23.3984C140 23.3203 140.189 23.2812 140.41 23.2812H140.43C140.456 23.3073 140.488 23.3529 140.527 23.418C140.579 23.4831 140.605 23.5221 140.605 23.5352C140.605 23.5612 140.579 23.6328 140.527 23.75C140.488 23.8672 140.456 23.9583 140.43 24.0234C140.286 24.401 140.137 24.7591 139.98 25.0977C139.824 25.4362 139.629 25.7747 139.395 26.1133C139.368 26.1393 139.323 26.1849 139.258 26.25C139.193 26.3151 139.121 26.3867 139.043 26.4648C138.965 26.543 138.887 26.6211 138.809 26.6992C138.743 26.7643 138.691 26.8164 138.652 26.8555C138.626 26.8685 138.574 26.8945 138.496 26.9336C138.431 26.9727 138.353 27.0182 138.262 27.0703C138.184 27.1094 138.112 27.1549 138.047 27.207C137.982 27.2461 137.943 27.2721 137.93 27.2852C137.63 27.4674 137.363 27.6302 137.129 27.7734C136.908 27.9167 136.68 28.0404 136.445 28.1445C136.224 28.2487 135.983 28.3333 135.723 28.3984C135.475 28.4505 135.189 28.4766 134.863 28.4766C134.004 28.4766 133.184 28.3789 132.402 28.1836C131.621 27.9753 130.911 27.6693 130.273 27.2656C129.635 26.849 129.089 26.3281 128.633 25.7031C128.19 25.0651 127.878 24.3099 127.695 23.4375C127.643 23.2943 127.585 23.0794 127.52 22.793C127.454 22.5065 127.389 22.2135 127.324 21.9141C127.259 21.6146 127.201 21.3411 127.148 21.0938C127.096 20.8333 127.064 20.6706 127.051 20.6055V19.9609Z" fill="white"/>
<path d="M146.68 15.5664C146.68 15.6445 146.712 15.7227 146.777 15.8008C146.855 15.8789 146.94 15.957 147.031 16.0352C147.135 16.1003 147.233 16.1589 147.324 16.2109C147.428 16.25 147.513 16.2826 147.578 16.3086H151.602C151.706 16.2956 151.882 16.276 152.129 16.25C152.389 16.224 152.656 16.1979 152.93 16.1719C153.216 16.1328 153.483 16.0938 153.73 16.0547C153.991 16.0156 154.173 15.9766 154.277 15.9375C154.303 15.9115 154.336 15.8529 154.375 15.7617C154.427 15.6576 154.453 15.5924 154.453 15.5664V15.2344C154.453 15.1953 154.447 15.1237 154.434 15.0195C154.421 14.9023 154.401 14.7852 154.375 14.668C154.362 14.5378 154.342 14.4141 154.316 14.2969C154.303 14.1797 154.29 14.0951 154.277 14.043C154.147 13.9518 154.036 13.8411 153.945 13.7109C153.854 13.5807 153.757 13.457 153.652 13.3398C153.561 13.2096 153.457 13.0924 153.34 12.9883C153.236 12.8841 153.105 12.7995 152.949 12.7344C152.858 12.6953 152.734 12.6432 152.578 12.5781C152.435 12.5 152.292 12.4284 152.148 12.3633C152.005 12.2982 151.882 12.2396 151.777 12.1875C151.673 12.1354 151.615 12.1029 151.602 12.0898H151.309C151.217 12.1029 151.1 12.1224 150.957 12.1484C150.814 12.1745 150.671 12.2005 150.527 12.2266C150.384 12.2396 150.26 12.2526 150.156 12.2656C150.052 12.2786 149.993 12.2852 149.98 12.2852C149.941 12.2852 149.876 12.3112 149.785 12.3633C149.707 12.4023 149.616 12.4479 149.512 12.5C149.421 12.5521 149.329 12.6042 149.238 12.6562C149.16 12.6953 149.108 12.7214 149.082 12.7344C148.861 12.8125 148.646 12.8711 148.438 12.9102C148.242 12.9492 148.073 13.0794 147.93 13.3008C147.904 13.3398 147.845 13.4375 147.754 13.5938C147.663 13.75 147.604 13.8477 147.578 13.8867C147.5 14.0299 147.409 14.1667 147.305 14.2969C147.201 14.4141 147.103 14.5378 147.012 14.668C146.921 14.7852 146.842 14.9219 146.777 15.0781C146.712 15.2214 146.68 15.3841 146.68 15.5664ZM143.73 19.9609C143.743 19.8958 143.757 19.7721 143.77 19.5898C143.796 19.4076 143.809 19.2188 143.809 19.0234C143.822 18.8151 143.835 18.6198 143.848 18.4375C143.861 18.2552 143.88 18.1315 143.906 18.0664C143.919 17.832 143.952 17.5716 144.004 17.2852C144.069 16.9857 144.141 16.6862 144.219 16.3867C144.31 16.0872 144.414 15.8008 144.531 15.5273C144.648 15.2409 144.779 14.9935 144.922 14.7852C144.935 14.7721 144.961 14.7461 145 14.707C145.052 14.6549 145.104 14.6094 145.156 14.5703C145.208 14.5182 145.254 14.4727 145.293 14.4336C145.345 14.3945 145.378 14.3685 145.391 14.3555C145.404 14.3424 145.417 14.3034 145.43 14.2383C145.456 14.1732 145.482 14.1081 145.508 14.043C145.534 13.9779 145.553 13.9193 145.566 13.8672C145.592 13.8021 145.612 13.763 145.625 13.75C145.846 13.3724 146.12 13.0599 146.445 12.8125C146.771 12.5651 147.103 12.3242 147.441 12.0898C147.676 11.9466 147.891 11.8164 148.086 11.6992C148.294 11.569 148.496 11.4583 148.691 11.3672C148.9 11.263 149.115 11.1719 149.336 11.0938C149.57 11.0156 149.831 10.9505 150.117 10.8984C150.143 10.8984 150.247 10.8919 150.43 10.8789C150.625 10.8659 150.846 10.8594 151.094 10.8594C151.341 10.8464 151.595 10.8333 151.855 10.8203C152.116 10.8073 152.324 10.8008 152.48 10.8008H152.832C153.262 10.9049 153.665 11.0286 154.043 11.1719C154.434 11.3021 154.792 11.4714 155.117 11.6797C155.456 11.888 155.762 12.1419 156.035 12.4414C156.322 12.7279 156.582 13.0729 156.816 13.4766C156.829 13.5026 156.849 13.5807 156.875 13.7109C156.901 13.8281 156.927 13.8867 156.953 13.8867C157.031 14.082 157.122 14.2578 157.227 14.4141C157.344 14.5703 157.448 14.7266 157.539 14.8828C157.643 15.026 157.728 15.1823 157.793 15.3516C157.858 15.5078 157.891 15.6901 157.891 15.8984C157.891 16.1458 157.786 16.3867 157.578 16.6211C157.383 16.8424 157.227 17.0182 157.109 17.1484C157.031 17.1745 156.888 17.207 156.68 17.2461C156.484 17.2852 156.263 17.3242 156.016 17.3633C155.781 17.4023 155.54 17.4349 155.293 17.4609C155.059 17.487 154.863 17.5 154.707 17.5C154.655 17.5 154.538 17.5 154.355 17.5C154.186 17.487 153.978 17.474 153.73 17.4609C153.496 17.4479 153.242 17.4414 152.969 17.4414C152.695 17.4284 152.435 17.4219 152.188 17.4219C151.927 17.4219 151.699 17.4349 151.504 17.4609C151.322 17.487 151.198 17.5 151.133 17.5C151.12 17.5 151.061 17.5065 150.957 17.5195C150.866 17.5326 150.762 17.5521 150.645 17.5781C150.527 17.5911 150.417 17.6042 150.312 17.6172C150.208 17.6302 150.143 17.6367 150.117 17.6367C149.974 17.6497 149.766 17.6562 149.492 17.6562C149.219 17.6562 148.913 17.6562 148.574 17.6562C148.236 17.6562 147.917 17.6562 147.617 17.6562C147.331 17.6562 147.129 17.6497 147.012 17.6367C146.908 17.6497 146.836 17.6888 146.797 17.7539C146.758 17.806 146.725 17.8646 146.699 17.9297C146.699 17.9297 146.693 17.9622 146.68 18.0273C146.68 18.0794 146.68 18.1445 146.68 18.2227C146.68 18.3008 146.68 18.3854 146.68 18.4766C146.68 18.5547 146.68 18.6198 146.68 18.6719C146.68 18.737 146.68 18.8346 146.68 18.9648C146.68 19.0951 146.68 19.2253 146.68 19.3555C146.68 19.4727 146.68 19.5833 146.68 19.6875C146.693 19.7917 146.699 19.8503 146.699 19.8633C146.712 20.1367 146.816 20.5078 147.012 20.9766C147.207 21.4323 147.435 21.8945 147.695 22.3633C147.969 22.832 148.255 23.2682 148.555 23.6719C148.867 24.0625 149.154 24.3229 149.414 24.4531C149.466 24.4922 149.59 24.5638 149.785 24.668C149.98 24.7721 150.189 24.8828 150.41 25C150.632 25.1042 150.84 25.2083 151.035 25.3125C151.243 25.4036 151.387 25.4688 151.465 25.5078C151.53 25.5078 151.576 25.5013 151.602 25.4883C151.641 25.4753 151.686 25.4688 151.738 25.4688C151.999 25.4688 152.24 25.5013 152.461 25.5664C152.695 25.6315 152.943 25.6641 153.203 25.6641H153.496C153.561 25.6641 153.633 25.6576 153.711 25.6445L155.664 24.6289C155.716 24.4727 155.781 24.3164 155.859 24.1602C155.938 23.9909 156.029 23.8411 156.133 23.7109C156.25 23.5807 156.38 23.4766 156.523 23.3984C156.68 23.3203 156.868 23.2812 157.09 23.2812H157.109C157.135 23.3073 157.168 23.3529 157.207 23.418C157.259 23.4831 157.285 23.5221 157.285 23.5352C157.285 23.5612 157.259 23.6328 157.207 23.75C157.168 23.8672 157.135 23.9583 157.109 24.0234C156.966 24.401 156.816 24.7591 156.66 25.0977C156.504 25.4362 156.309 25.7747 156.074 26.1133C156.048 26.1393 156.003 26.1849 155.938 26.25C155.872 26.3151 155.801 26.3867 155.723 26.4648C155.645 26.543 155.566 26.6211 155.488 26.6992C155.423 26.7643 155.371 26.8164 155.332 26.8555C155.306 26.8685 155.254 26.8945 155.176 26.9336C155.111 26.9727 155.033 27.0182 154.941 27.0703C154.863 27.1094 154.792 27.1549 154.727 27.207C154.661 27.2461 154.622 27.2721 154.609 27.2852C154.31 27.4674 154.043 27.6302 153.809 27.7734C153.587 27.9167 153.359 28.0404 153.125 28.1445C152.904 28.2487 152.663 28.3333 152.402 28.3984C152.155 28.4505 151.868 28.4766 151.543 28.4766C150.684 28.4766 149.863 28.3789 149.082 28.1836C148.301 27.9753 147.591 27.6693 146.953 27.2656C146.315 26.849 145.768 26.3281 145.312 25.7031C144.87 25.0651 144.557 24.3099 144.375 23.4375C144.323 23.2943 144.264 23.0794 144.199 22.793C144.134 22.5065 144.069 22.2135 144.004 21.9141C143.939 21.6146 143.88 21.3411 143.828 21.0938C143.776 20.8333 143.743 20.6706 143.73 20.6055V19.9609Z" fill="white"/>
<path d="M169.746 13.1445C169.746 12.793 169.674 12.5391 169.531 12.3828C169.388 12.2266 169.225 12.1094 169.043 12.0312C168.874 11.9531 168.717 11.8815 168.574 11.8164C168.431 11.7513 168.359 11.6406 168.359 11.4844C168.359 11.3672 168.392 11.276 168.457 11.2109C168.535 11.1328 168.626 11.0677 168.73 11.0156C168.835 10.9635 168.939 10.931 169.043 10.918C169.16 10.8919 169.258 10.8789 169.336 10.8789C169.518 10.8789 169.694 10.9049 169.863 10.957C170.033 11.0091 170.221 11.0352 170.43 11.0352H170.625C171.237 10.931 171.836 10.8333 172.422 10.7422C173.008 10.651 173.613 10.6055 174.238 10.6055C174.421 10.6055 174.603 10.625 174.785 10.6641C174.98 10.7031 175.078 10.7943 175.078 10.9375V11.0352C175.013 11.1523 174.954 11.2305 174.902 11.2695C174.85 11.3086 174.798 11.3411 174.746 11.3672C174.707 11.3802 174.648 11.3932 174.57 11.4062C174.505 11.4193 174.421 11.4453 174.316 11.4844C174.121 11.5885 173.906 11.6992 173.672 11.8164C173.438 11.9206 173.197 12.0378 172.949 12.168C172.702 12.2982 172.461 12.4284 172.227 12.5586C172.005 12.6888 171.81 12.8255 171.641 12.9688C171.615 12.9818 171.562 13.0273 171.484 13.1055C171.419 13.1836 171.348 13.2682 171.27 13.3594C171.191 13.4375 171.113 13.5221 171.035 13.6133C170.97 13.6914 170.924 13.737 170.898 13.75C170.872 13.75 170.794 13.7956 170.664 13.8867C170.547 13.9779 170.475 14.0299 170.449 14.043C170.436 14.082 170.391 14.1471 170.312 14.2383C170.234 14.3164 170.169 14.401 170.117 14.4922C170.117 14.5182 170.111 14.5312 170.098 14.5312C170.085 14.5312 170.078 14.5378 170.078 14.5508C170.026 14.6289 169.935 14.7526 169.805 14.9219C169.674 15.0781 169.531 15.2409 169.375 15.4102C169.232 15.5794 169.089 15.7422 168.945 15.8984C168.815 16.0547 168.711 16.1589 168.633 16.2109C168.542 16.276 168.457 16.3542 168.379 16.4453C168.301 16.5234 168.229 16.6016 168.164 16.6797C168.06 16.8229 167.969 16.9661 167.891 17.1094C167.826 17.2526 167.793 17.4284 167.793 17.6367C167.793 17.6367 167.812 17.6562 167.852 17.6953C167.891 17.7344 167.936 17.7799 167.988 17.832C168.04 17.8841 168.086 17.9297 168.125 17.9688C168.177 18.0078 168.21 18.0273 168.223 18.0273C168.236 18.0534 168.275 18.0924 168.34 18.1445C168.405 18.1836 168.47 18.2292 168.535 18.2812C168.6 18.3203 168.659 18.3594 168.711 18.3984C168.763 18.4375 168.796 18.4635 168.809 18.4766C168.809 18.5026 168.848 18.5742 168.926 18.6914C169.017 18.7956 169.076 18.8802 169.102 18.9453C169.219 19.1536 169.355 19.3099 169.512 19.4141C169.681 19.5182 169.85 19.6549 170.02 19.8242C170.033 19.8503 170.059 19.8958 170.098 19.9609C170.15 20.013 170.195 20.0716 170.234 20.1367C170.286 20.2018 170.332 20.2669 170.371 20.332C170.423 20.3841 170.449 20.4167 170.449 20.4297C170.488 20.4818 170.553 20.5599 170.645 20.6641C170.736 20.7682 170.827 20.8789 170.918 20.9961C171.009 21.1003 171.094 21.1979 171.172 21.2891C171.25 21.3802 171.302 21.4453 171.328 21.4844L172.07 22.2266C172.109 22.2526 172.181 22.3438 172.285 22.5C172.402 22.6562 172.526 22.832 172.656 23.0273C172.799 23.2227 172.923 23.4049 173.027 23.5742C173.145 23.7435 173.223 23.8542 173.262 23.9062C173.275 23.9193 173.307 23.9518 173.359 24.0039C173.424 24.043 173.49 24.0951 173.555 24.1602C173.633 24.2122 173.698 24.2708 173.75 24.3359C173.802 24.388 173.828 24.4271 173.828 24.4531C173.971 24.6094 174.108 24.7852 174.238 24.9805C174.368 25.1758 174.505 25.3516 174.648 25.5078C174.674 25.5208 174.746 25.5729 174.863 25.6641C174.993 25.7422 175.065 25.7812 175.078 25.7812C175.091 25.7943 175.143 25.8398 175.234 25.918C175.326 25.9831 175.417 26.0612 175.508 26.1523C175.612 26.2305 175.703 26.3086 175.781 26.3867C175.872 26.4648 175.931 26.5169 175.957 26.543C175.983 26.569 176.055 26.6276 176.172 26.7188C176.289 26.7969 176.413 26.888 176.543 26.9922C176.686 27.0833 176.816 27.1745 176.934 27.2656C177.051 27.3438 177.122 27.3958 177.148 27.4219C177.253 27.513 177.318 27.5846 177.344 27.6367C177.37 27.6888 177.383 27.7995 177.383 27.9688C177.383 28.151 177.344 28.3138 177.266 28.457C177.188 28.5872 177.038 28.6523 176.816 28.6523C176.23 28.6523 175.645 28.6198 175.059 28.5547C174.486 28.5026 173.919 28.4766 173.359 28.4766H172.285C171.921 28.4766 171.569 28.4766 171.23 28.4766C170.892 28.4896 170.534 28.5221 170.156 28.5742C169.974 28.5482 169.818 28.4766 169.688 28.3594C169.57 28.2292 169.512 28.0534 169.512 27.832C169.512 27.7799 169.518 27.7344 169.531 27.6953C169.531 27.6562 169.538 27.6237 169.551 27.5977C169.603 27.5716 169.701 27.5195 169.844 27.4414C169.987 27.3633 170.091 27.3112 170.156 27.2852C170.195 27.2852 170.26 27.2786 170.352 27.2656C170.456 27.2396 170.566 27.2201 170.684 27.207C170.801 27.181 170.911 27.1615 171.016 27.1484C171.12 27.1354 171.191 27.1289 171.23 27.1289C171.23 27.1029 171.243 27.0573 171.27 26.9922C171.309 26.9271 171.328 26.8815 171.328 26.8555C171.328 26.8164 171.322 26.7578 171.309 26.6797C171.296 26.5885 171.283 26.4974 171.27 26.4062C171.27 26.3021 171.263 26.2109 171.25 26.1328C171.237 26.0417 171.23 25.9766 171.23 25.9375C171.152 25.8854 171.035 25.7943 170.879 25.6641C170.736 25.5208 170.579 25.3711 170.41 25.2148C170.254 25.0586 170.104 24.9089 169.961 24.7656C169.831 24.6224 169.74 24.5182 169.688 24.4531C169.674 24.4271 169.642 24.3685 169.59 24.2773C169.538 24.1862 169.479 24.0885 169.414 23.9844C169.349 23.8802 169.284 23.7891 169.219 23.7109C169.167 23.6198 169.128 23.5612 169.102 23.5352C168.802 23.1836 168.49 22.8516 168.164 22.5391C167.852 22.2266 167.565 21.875 167.305 21.4844C167.253 21.4062 167.174 21.3086 167.07 21.1914C166.966 21.0612 166.849 20.944 166.719 20.8398C166.589 20.7227 166.458 20.625 166.328 20.5469C166.211 20.4688 166.113 20.4297 166.035 20.4297H165.957C165.879 20.5859 165.801 20.7617 165.723 20.957C165.645 21.1393 165.586 21.3151 165.547 21.4844C165.547 21.5885 165.54 21.7708 165.527 22.0312C165.514 22.2786 165.501 22.5456 165.488 22.832C165.475 23.1185 165.462 23.3854 165.449 23.6328C165.436 23.8802 165.43 24.056 165.43 24.1602V24.9023C165.43 24.9154 165.436 24.9544 165.449 25.0195C165.462 25.0716 165.475 25.1302 165.488 25.1953C165.501 25.2604 165.514 25.3255 165.527 25.3906C165.54 25.4557 165.547 25.4948 165.547 25.5078C165.547 25.5339 165.547 25.599 165.547 25.7031C165.56 25.8073 165.573 25.918 165.586 26.0352C165.599 26.1523 165.612 26.263 165.625 26.3672C165.638 26.4583 165.651 26.5169 165.664 26.543C165.703 26.6341 165.794 26.7383 165.938 26.8555C166.081 26.9727 166.23 27.0898 166.387 27.207C166.556 27.3242 166.699 27.4414 166.816 27.5586C166.947 27.6628 167.012 27.7409 167.012 27.793V27.9102C166.842 28.2096 166.621 28.4049 166.348 28.4961C166.074 28.6003 165.775 28.6523 165.449 28.6523C165.189 28.6523 164.922 28.6393 164.648 28.6133C164.388 28.5872 164.141 28.5742 163.906 28.5742C163.828 28.6003 163.646 28.6198 163.359 28.6328C163.086 28.6589 162.786 28.6849 162.461 28.7109C162.148 28.737 161.849 28.7565 161.562 28.7695C161.289 28.7826 161.12 28.7891 161.055 28.7891H160.762C160.501 28.7891 160.267 28.737 160.059 28.6328C159.85 28.5286 159.746 28.3659 159.746 28.1445V27.9102C159.85 27.7279 160.007 27.5846 160.215 27.4805C160.423 27.3763 160.632 27.2917 160.84 27.2266C161.061 27.1615 161.257 27.1029 161.426 27.0508C161.608 26.9987 161.725 26.9336 161.777 26.8555C161.921 26.6732 162.012 26.4714 162.051 26.25C162.09 26.0286 162.109 25.8008 162.109 25.5664C162.109 25.3581 162.103 25.1693 162.09 25C162.077 24.8177 162.07 24.6354 162.07 24.4531C162.083 24.4271 162.103 24.3685 162.129 24.2773C162.155 24.1732 162.174 24.0625 162.188 23.9453C162.201 23.8281 162.214 23.7174 162.227 23.6133C162.24 23.5091 162.246 23.444 162.246 23.418C162.337 22.4414 162.396 21.4648 162.422 20.4883C162.461 19.4987 162.487 18.5156 162.5 17.5391C162.513 16.5495 162.533 15.5664 162.559 14.5898C162.585 13.6003 162.637 12.6172 162.715 11.6406C162.715 11.6146 162.721 11.5625 162.734 11.4844C162.747 11.3932 162.76 11.2956 162.773 11.1914C162.799 11.0872 162.819 10.9961 162.832 10.918C162.845 10.8268 162.852 10.7682 162.852 10.7422C162.852 10.7292 162.858 10.6185 162.871 10.4102C162.884 10.1888 162.897 9.94141 162.91 9.66797C162.936 9.38151 162.956 9.08854 162.969 8.78906C162.982 8.48958 162.988 8.2487 162.988 8.06641V7.89062C162.988 7.86458 162.982 7.79948 162.969 7.69531C162.956 7.57812 162.936 7.45443 162.91 7.32422C162.897 7.19401 162.884 7.07031 162.871 6.95312C162.858 6.83594 162.852 6.75781 162.852 6.71875C162.852 6.66667 162.845 6.60807 162.832 6.54297C162.819 6.46484 162.812 6.39974 162.812 6.34766C162.812 6.20443 162.819 6.08073 162.832 5.97656C162.845 5.8724 162.852 5.76172 162.852 5.64453C162.852 5.26693 162.826 4.88932 162.773 4.51172C162.734 4.12109 162.617 3.77604 162.422 3.47656C162.357 3.35938 162.188 3.24219 161.914 3.125C161.641 2.99479 161.354 2.87109 161.055 2.75391C160.768 2.6237 160.508 2.49349 160.273 2.36328C160.039 2.23307 159.922 2.10938 159.922 1.99219C159.922 1.96615 159.928 1.91406 159.941 1.83594C159.967 1.74479 159.993 1.67969 160.02 1.64062C160.124 1.4974 160.286 1.40625 160.508 1.36719C160.742 1.3151 160.924 1.27604 161.055 1.25C161.367 1.11979 161.68 0.983073 161.992 0.839844C162.305 0.696615 162.617 0.566406 162.93 0.449219C163.255 0.31901 163.581 0.214844 163.906 0.136719C164.245 0.0455729 164.583 0 164.922 0C164.974 0 165.052 0.00651042 165.156 0.0195312C165.273 0.0325521 165.391 0.0585938 165.508 0.0976562C165.625 0.136719 165.729 0.188802 165.82 0.253906C165.911 0.30599 165.957 0.377604 165.957 0.46875V5.66406C165.957 5.6901 165.951 5.74219 165.938 5.82031C165.938 5.88542 165.924 5.96354 165.898 6.05469C165.885 6.13281 165.859 6.21094 165.82 6.28906C165.781 6.35417 165.729 6.40625 165.664 6.44531V8.51562C165.716 8.55469 165.755 8.72396 165.781 9.02344C165.82 9.3099 165.853 9.63542 165.879 10C165.905 10.3516 165.924 10.6901 165.938 11.0156C165.951 11.3411 165.957 11.5495 165.957 11.6406V12.0898C165.957 12.1029 165.951 12.1484 165.938 12.2266C165.924 12.2917 165.905 12.3698 165.879 12.4609C165.866 12.5391 165.853 12.6172 165.84 12.6953C165.827 12.7734 165.82 12.819 165.82 12.832C165.807 12.9232 165.801 13.0859 165.801 13.3203C165.801 13.5417 165.801 13.7826 165.801 14.043C165.801 14.2904 165.801 14.5312 165.801 14.7656C165.801 14.987 165.807 15.1432 165.82 15.2344C165.807 15.2604 165.781 15.332 165.742 15.4492C165.716 15.5664 165.69 15.638 165.664 15.6641V15.7031C165.664 15.7812 165.677 15.8789 165.703 15.9961C165.729 16.1133 165.755 16.237 165.781 16.3672C165.82 16.4844 165.853 16.6016 165.879 16.7188C165.918 16.8359 165.944 16.9271 165.957 16.9922C165.97 17.0443 165.983 17.1419 165.996 17.2852C166.009 17.4284 166.022 17.5781 166.035 17.7344C166.061 17.8906 166.081 18.0404 166.094 18.1836C166.12 18.3268 166.146 18.4245 166.172 18.4766C166.172 18.5156 166.185 18.5352 166.211 18.5352H166.27C166.374 18.5352 166.504 18.444 166.66 18.2617C166.816 18.0794 167.012 17.8125 167.246 17.4609C167.48 17.1094 167.76 16.6667 168.086 16.1328C168.424 15.599 168.828 14.9805 169.297 14.2773C169.362 14.082 169.453 13.8997 169.57 13.7305C169.688 13.5612 169.746 13.3659 169.746 13.1445Z" fill="white"/>
</svg>
