<svg xmlns="http://www.w3.org/2000/svg" version="1.1" xmlns:xlink="http://www.w3.org/1999/xlink" width="96" height="96"><svg xmlns="http://www.w3.org/2000/svg" version="1.1" xmlns:xlink="http://www.w3.org/1999/xlink" width="96" height="96"><svg width="96" height="96" viewBox="0 0 96 96" fill="none" xmlns="http://www.w3.org/2000/svg">
<rect width="96" height="96" rx="9" fill="#FF7B54"></rect>
<path d="M49.05 73.84C46.4367 73.84 44.0567 73.5367 41.91 72.93C39.81 72.3233 37.9667 71.5067 36.38 70.48C34.84 69.4067 33.5567 68.2167 32.53 66.91C31.5033 65.6033 30.78 64.2267 30.36 62.78L37.01 60.61C37.71 62.5233 39.04 64.18 41 65.58C42.96 66.98 45.3633 67.7033 48.21 67.75C51.6633 67.75 54.37 67.0733 56.33 65.72C58.3367 64.32 59.34 62.4767 59.34 60.19C59.34 58.09 58.4767 56.3867 56.75 55.08C55.0233 53.7267 52.7367 52.7 49.89 52L44.22 50.53C41.98 49.9233 39.9267 49.06 38.06 47.94C36.24 46.82 34.7933 45.3967 33.72 43.67C32.6467 41.9433 32.11 39.8667 32.11 37.44C32.11 32.96 33.5567 29.46 36.45 26.94C39.39 24.42 43.6133 23.16 49.12 23.16C52.2933 23.16 55.0467 23.6733 57.38 24.7C59.7133 25.68 61.6267 26.9867 63.12 28.62C64.66 30.2533 65.7567 32.05 66.41 34.01L59.76 36.25C58.9667 34.15 57.6133 32.47 55.7 31.21C53.7867 29.9033 51.43 29.25 48.63 29.25C45.69 29.25 43.3567 29.95 41.63 31.35C39.95 32.75 39.11 34.6633 39.11 37.09C39.11 39.1433 39.7633 40.73 41.07 41.85C42.4233 42.9233 44.22 43.74 46.46 44.3L52.13 45.7C56.7033 46.82 60.2267 48.6867 62.7 51.3C65.22 53.8667 66.48 56.69 66.48 59.77C66.48 62.43 65.8033 64.8333 64.45 66.98C63.1433 69.08 61.1833 70.76 58.57 72.02C56.0033 73.2333 52.83 73.84 49.05 73.84Z" fill="#191919"></path>
</svg></svg><style>@media (prefers-color-scheme: light) { :root { filter: none; } }
@media (prefers-color-scheme: dark) { :root { filter: none; } }
</style></svg>