<svg xmlns="http://www.w3.org/2000/svg" version="1.1" xmlns:xlink="http://www.w3.org/1999/xlink" width="96" height="96"><svg width="96" height="96" viewBox="0 0 96 96" fill="none" xmlns="http://www.w3.org/2000/svg">
<path d="M29 62.189L35.2466 57.2575C38.7315 62.9123 43.5973 65.5425 49.6466 65.5425C56.0904 65.5425 59.4438 62.3863 59.4438 58.0466C59.4438 52.326 53.3288 51.2082 46.8849 49.8274C39.4548 48.3151 31.5644 46.3425 31.5644 36.7425C31.5644 29.2466 38.4027 23 48.0685 23C56.2877 23 61.6795 25.9589 66.3479 31.2192L60.4301 35.8877C57.6027 32.074 54.3151 29.5096 48.0685 29.5096C41.6247 29.5096 38.9288 32.5342 38.9288 36.6767C38.9288 41.5425 44.5836 42.463 50.8301 43.7781C58.3918 45.3562 66.8082 47.526 66.8082 57.9808C66.8082 65.3452 60.7589 72.3151 49.8438 72.3151C39.8493 72.3151 33.537 68.3699 29 62.189Z" fill="#191919"></path>
</svg><style>@media (prefers-color-scheme: light) { :root { filter: none; } }
@media (prefers-color-scheme: dark) { :root { filter: none; } }
</style></svg>