<svg width="210" height="24" viewBox="0 0 210 24" fill="none" xmlns="http://www.w3.org/2000/svg">
<path d="M9.016 23.384C7.84267 23.384 6.76533 23.2453 5.784 22.968C4.824 22.6907 3.97067 22.3067 3.224 21.816C2.49867 21.3253 1.89067 20.7813 1.4 20.184C0.930667 19.5653 0.6 18.9253 0.408 18.264L4.056 17.144C4.33333 17.9333 4.87733 18.6267 5.688 19.224C6.49867 19.8213 7.50133 20.1307 8.696 20.152C10.0827 20.152 11.1813 19.864 11.992 19.288C12.8027 18.712 13.208 17.9547 13.208 17.016C13.208 16.1627 12.8667 15.4693 12.184 14.936C11.5013 14.3813 10.584 13.9547 9.432 13.656L6.68 12.952C5.63467 12.6747 4.68533 12.2693 3.832 11.736C3 11.2027 2.33867 10.5307 1.848 9.72C1.37867 8.90933 1.144 7.94933 1.144 6.84C1.144 4.74933 1.82667 3.128 3.192 1.976C4.55733 0.802666 6.50933 0.216 9.048 0.216C10.4773 0.216 11.7253 0.439999 12.792 0.887999C13.88 1.31467 14.776 1.912 15.48 2.68C16.184 3.42667 16.7067 4.28 17.048 5.24L13.464 6.392C13.144 5.53867 12.5893 4.83467 11.8 4.28C11.0107 3.72533 10.0293 3.448 8.856 3.448C7.64 3.448 6.68 3.736 5.976 4.312C5.29333 4.888 4.952 5.688 4.952 6.712C4.952 7.544 5.21867 8.19467 5.752 8.664C6.30667 9.112 7.05333 9.45333 7.992 9.688L10.744 10.36C12.7493 10.8507 14.3067 11.6933 15.416 12.888C16.5253 14.0827 17.08 15.4053 17.08 16.856C17.08 18.136 16.7707 19.2667 16.152 20.248C15.5333 21.2293 14.616 21.9973 13.4 22.552C12.2053 23.1067 10.744 23.384 9.016 23.384ZM37.3472 23L28.6112 0.599998H32.3232L41.2833 23H37.3472ZM19.4592 23L28.3872 0.599998H32.1313L23.3952 23H19.4592ZM23.6512 17.496V14.2H37.0592V17.496H23.6512ZM44.8422 23V0.599998H48.8102L55.8502 10.968L62.8263 0.599998H66.8263V23H63.1143V6.456L55.8182 17.24L48.5542 6.52V23H44.8422ZM96.0982 23V0.599998H99.8102V23H96.0982ZM81.1222 23V0.599998H84.8342V23H81.1222ZM84.0342 13.208V9.816H97.6022V13.208H84.0342ZM105.762 23V0.599998H119.554V3.992H109.474V9.944H118.37V13.272H109.474V19.608H119.65V23H105.762ZM125.277 23V0.599998H133.181C134.717 0.599998 136.072 0.898665 137.245 1.496C138.419 2.09333 139.336 2.92533 139.997 3.992C140.659 5.03733 140.989 6.25333 140.989 7.64C140.989 9.02667 140.637 10.2533 139.933 11.32C139.251 12.3867 138.301 13.2293 137.085 13.848C135.869 14.4453 134.493 14.744 132.957 14.744H128.989V23H125.277ZM137.693 23L132.445 13.912L135.325 11.928L141.885 23H137.693ZM128.989 11.32H133.341C134.067 11.32 134.707 11.16 135.261 10.84C135.837 10.52 136.296 10.0827 136.637 9.528C137 8.97333 137.181 8.344 137.181 7.64C137.181 6.57333 136.797 5.69867 136.029 5.016C135.261 4.33333 134.269 3.992 133.053 3.992H128.989V11.32ZM146.292 23V0.599998H150.26L157.3 10.968L164.276 0.599998H168.276V23H164.564V6.456L157.268 17.24L150.004 6.52V23H146.292ZM174.213 23V0.599998H188.005V3.992H177.925V9.944H186.821V13.272H177.925V19.608H188.101V23H174.213ZM201.088 23.384C199.915 23.384 198.838 23.2453 197.856 22.968C196.896 22.6907 196.043 22.3067 195.296 21.816C194.571 21.3253 193.963 20.7813 193.472 20.184C193.003 19.5653 192.672 18.9253 192.48 18.264L196.128 17.144C196.406 17.9333 196.95 18.6267 197.76 19.224C198.571 19.8213 199.574 20.1307 200.768 20.152C202.155 20.152 203.254 19.864 204.064 19.288C204.875 18.712 205.28 17.9547 205.28 17.016C205.28 16.1627 204.939 15.4693 204.256 14.936C203.574 14.3813 202.656 13.9547 201.504 13.656L198.752 12.952C197.707 12.6747 196.758 12.2693 195.904 11.736C195.072 11.2027 194.411 10.5307 193.92 9.72C193.451 8.90933 193.216 7.94933 193.216 6.84C193.216 4.74933 193.899 3.128 195.264 1.976C196.63 0.802666 198.582 0.216 201.12 0.216C202.55 0.216 203.798 0.439999 204.864 0.887999C205.952 1.31467 206.848 1.912 207.552 2.68C208.256 3.42667 208.779 4.28 209.12 5.24L205.536 6.392C205.216 5.53867 204.662 4.83467 203.872 4.28C203.083 3.72533 202.102 3.448 200.928 3.448C199.712 3.448 198.752 3.736 198.048 4.312C197.366 4.888 197.024 5.688 197.024 6.712C197.024 7.544 197.291 8.19467 197.824 8.664C198.379 9.112 199.126 9.45333 200.064 9.688L202.816 10.36C204.822 10.8507 206.379 11.6933 207.488 12.888C208.598 14.0827 209.152 15.4053 209.152 16.856C209.152 18.136 208.843 19.2667 208.224 20.248C207.606 21.2293 206.688 21.9973 205.472 22.552C204.278 23.1067 202.816 23.384 201.088 23.384Z" fill="black"/>
</svg>
