<svg width="303" height="30" viewBox="0 0 303 30" fill="none" xmlns="http://www.w3.org/2000/svg">
<path d="M12.68 30C6.6 30 2.76 27.6 -2.99513e-06 23.84L3.8 20.84C5.92 24.28 8.88 25.88 12.56 25.88C16.48 25.88 18.52 23.96 18.52 21.32C18.52 17.84 14.8 17.16 10.88 16.32C6.36 15.4 1.56 14.2 1.56 8.36C1.56 3.8 5.72 0 11.6 0C16.6 0 19.88 1.8 22.72 5L19.12 7.84C17.4 5.52 15.4 3.96 11.6 3.96C7.68 3.96 6.04 5.8 6.04 8.32C6.04 11.28 9.48 11.84 13.28 12.64C17.88 13.6 23 14.92 23 21.28C23 25.76 19.32 30 12.68 30ZM30.1925 29.6L41.4725 0.4H45.8725L57.1525 29.6H52.6325L50.2725 23.36H37.0725L34.7525 29.6H30.1925ZM43.6725 5.84L38.6325 19.2H48.7125L43.6725 5.84ZM65.7834 29.6V0.4H70.1034L79.6234 13.6L89.4634 0.4H93.5834V29.6H89.3034V7.24L79.5434 20.36L70.1034 7.52V29.6H65.7834ZM137.064 29.6V17H123.064V29.6H118.704V0.4H123.064V12.84H137.064V0.4H141.384V29.6H137.064ZM152.215 29.6V0.4H171.335V4.56H156.495V12.88H171.335V17.04H156.495V25.4H171.335V29.6H152.215ZM181.663 29.6V0.4H193.023C199.383 0.4 203.503 4.52 203.503 10.16C203.503 13.8 201.463 17.28 197.863 18.8L204.063 29.6H199.103L193.823 19.96H185.983V29.6H181.663ZM192.663 4.44H185.983V15.96H192.663C197.103 15.96 199.143 13.12 199.143 10.04C199.143 6.72 196.943 4.44 192.663 4.44ZM213.299 29.6V0.4H217.619L227.139 13.6L236.979 0.4H241.099V29.6H236.819V7.24L227.059 20.36L217.619 7.52V29.6H213.299ZM251.927 29.6V0.4H271.047V4.56H256.207V12.88H271.047V17.04H256.207V25.4H271.047V29.6H251.927ZM291.896 30C285.816 30 281.976 27.6 279.216 23.84L283.016 20.84C285.136 24.28 288.096 25.88 291.776 25.88C295.696 25.88 297.736 23.96 297.736 21.32C297.736 17.84 294.016 17.16 290.096 16.32C285.576 15.4 280.776 14.2 280.776 8.36C280.776 3.8 284.936 0 290.816 0C295.816 0 299.096 1.8 301.936 5L298.336 7.84C296.616 5.52 294.616 3.96 290.816 3.96C286.896 3.96 285.256 5.8 285.256 8.32C285.256 11.28 288.696 11.84 292.496 12.64C297.096 13.6 302.216 14.92 302.216 21.28C302.216 25.76 298.536 30 291.896 30Z" fill="black"/>
</svg>
